Kumimoji-Bold.sfdir
StartChar: uF1D97
Encoding: 990615 990615 0
Width: 1000
Flags: MW
LayerCount: 2
Fore
SplineSet
315 0 m 1
 315 47 l 1
 315 47 l 1
 429 47 l 1
 429 47 l 1
 429 639 l 1
 429 639 l 1
 315 639 l 1
 315 639 l 1
 315 686 l 1
 356 683 454 683 500 683 c 0
 546 683 644 683 685 686 c 1
 685 639 l 1
 685 639 l 1
 571 639 l 1
 571 639 l 1
 571 47 l 1
 571 47 l 1
 685 47 l 1
 685 47 l 1
 685 0 l 1
 644 3 546 3 500 3 c 0
 454 3 356 3 315 0 c 1
EndSplineSet
EndChar
StartChar: uF1D98
Encoding: 990616 990616 1
Width: 1000
Flags: MW
LayerCount: 2
Fore
SplineSet
386 47 m 1
 386 47 l 1
 386 47 l 1
 614 47 l 1
 614 47 l 1
 614 47 l 1
 614 639 l 1
 614 639 l 1
 614 639 l 1
 386 639 l 1
 386 639 l 1
 386 639 l 1
 386 47 l 1
130 0 m 1
 130 47 l 1
 130 47 l 1
 244 47 l 1
 244 47 l 1
 244 639 l 1
 244 639 l 1
 130 639 l 1
 130 639 l 1
 130 686 l 1
 171 683 269 683 315 683 c 0
 361 683 639 683 685 683 c 0
 731 683 829 683 870 686 c 1
 870 639 l 1
 870 639 l 1
 756 639 l 1
 756 639 l 1
 756 47 l 1
 756 47 l 1
 870 47 l 1
 870 47 l 1
 870 0 l 1
 829 3 731 3 685 3 c 0
 639 3 361 3 315 3 c 0
 269 3 171 3 130 0 c 1
EndSplineSet
EndChar
StartChar: uF1D99
Encoding: 990617 990617 2
Width: 1000
Flags: MW
LayerCount: 2
Fore
SplineSet
571 47 m 1
 571 47 l 1
 645 47 l 1
 645 47 l 1
 719 47 l 1
 719 47 l 1
 719 639 l 1
 719 639 l 1
 645 639 l 1
 645 639 l 1
 571 639 l 1
 571 639 l 1
 571 47 l 1
281 47 m 1
 281 47 l 1
 355 47 l 1
 355 47 l 1
 429 47 l 1
 429 47 l 1
 429 639 l 1
 429 639 l 1
 355 639 l 1
 355 639 l 1
 281 639 l 1
 281 639 l 1
 281 47 l 1
45 0 m 1
 45 47 l 1
 45 47 l 1
 139 47 l 1
 139 47 l 1
 139 639 l 1
 139 639 l 1
 45 639 l 1
 45 639 l 1
 45 686 l 1
 86 683 164 683 210 683 c 0
 256 683 744 683 790 683 c 0
 836 683 914 683 955 686 c 1
 955 639 l 1
 955 639 l 1
 861 639 l 1
 861 639 l 1
 861 47 l 1
 861 47 l 1
 955 47 l 1
 955 47 l 1
 955 0 l 1
 914 3 836 3 790 3 c 0
 744 3 256 3 210 3 c 0
 164 3 86 3 45 0 c 1
EndSplineSet
EndChar
StartChar: uF1D9A
Encoding: 990618 990618 3
Width: 1000
Flags: MW
LayerCount: 2
Fore
SplineSet
59 0 m 1
 59 47 l 1
 59 47 l 1
 153 47 l 1
 153 47 l 1
 153 639 l 1
 153 639 l 1
 59 639 l 1
 59 639 l 1
 59 686 l 1
 100 683 178 683 224 683 c 0
 270 683 464 683 503 683 c 0
 546 683 622 683 660 686 c 1
 660 639 l 1
 586 639 l 1
 586 639 l 1
 695 192 l 1
 801 615 l 2
 803 618 805 623 805 627 c 0
 805 639 746 639 737 639 c 1
 737 686 l 1
 776 683 808 683 848 683 c 0
 875 683 903 685 941 686 c 1
 941 639 l 1
 922 639 l 2
 870 639 865 631 859 617 c 2
 693 16 l 2
 686 -10 669 -8 653 -8 c 0
 625 -8 621 0 613 18 c 2
 437 639 l 1
 360 639 l 5
 295 639 l 1
 295 639 l 1
 295 47 l 1
 295 47 l 1
 389 47 l 1
 389 47 l 1
 389 0 l 1
 348 3 270 3 224 3 c 0
 178 3 100 3 59 0 c 1
EndSplineSet
EndChar
StartChar: uF1D9B
Encoding: 990619 990619 4
Width: 1000
Flags: MW
LayerCount: 2
Fore
SplineSet
92 639 m 1
 92 686 l 1
 127 683 211 683 250 683 c 0
 293 683 389 683 427 686 c 1
 427 639 l 1
 333 639 l 1
 333 639 l 5
 546 160 l 1
 748 615 l 2
 749 618 752 623 752 627 c 0
 752 639 673 639 664 639 c 1
 664 686 l 1
 703 683 755 683 795 683 c 0
 822 683 870 685 908 686 c 1
 908 639 l 1
 889 639 l 2
 816 639 812 630 806 617 c 2
 540 16 l 2
 529 -8 516 -8 500 -8 c 0
 472 -8 468 0 460 18 c 2
 184 639 l 1
 92 639 l 1
EndSplineSet
EndChar
StartChar: uF1D9C
Encoding: 990620 990620 5
Width: 1000
Flags: MW
LayerCount: 2
Fore
SplineSet
57 639 m 1
 57 686 l 1
 92 683 156 683 195 683 c 0
 238 683 314 683 352 686 c 1
 352 639 l 1
 278 639 l 1
 278 639 l 1
 406 206 l 1
 533 615 l 2
 534 618 537 623 537 627 c 0
 537 639 478 639 469 639 c 1
 469 686 l 1
 508 683 540 683 580 683 c 0
 607 683 732 683 778 683 c 0
 824 683 902 683 943 686 c 1
 943 639 l 1
 943 639 l 1
 849 639 l 1
 849 639 l 1
 849 47 l 1
 849 47 l 1
 943 47 l 1
 943 47 l 1
 943 0 l 1
 902 3 824 3 778 3 c 0
 732 3 654 3 613 0 c 1
 613 47 l 1
 613 47 l 1
 707 47 l 1
 707 47 l 1
 707 639 l 1
 707 639 l 1
 674 639 l 1
 601 639 595 631 591 617 c 2
 405 16 l 2
 396 -9 381 -8 365 -8 c 0
 337 -8 331 -1 325 18 c 2
 129 639 l 1
 57 639 l 1
EndSplineSet
EndChar
StartChar: uF1D9D
Encoding: 990621 990621 6
Width: 1000
Flags: MW
LayerCount: 2
Fore
SplineSet
674 47 m 1
 674 47 l 1
 711 47 l 1
 748 47 l 1
 748 47 l 1
 748 639 l 1
 748 639 l 1
 711 639 l 1
 674 639 l 1
 674 639 l 1
 674 47 l 1
36 639 m 1
 36 686 l 1
 71 683 125 683 164 683 c 0
 207 683 263 683 301 686 c 1
 301 639 l 1
 227 639 l 1
 227 639 l 1
 336 190 l 1
 437 615 l 2
 438 618 441 623 441 627 c 0
 441 639 382 639 373 639 c 1
 373 686 l 1
 412 683 439 683 479 683 c 0
 506 683 753 683 799 683 c 0
 845 683 923 683 964 686 c 1
 964 639 l 1
 964 639 l 1
 870 639 l 1
 870 639 l 1
 870 47 l 1
 870 47 l 1
 964 47 l 1
 964 47 l 1
 964 0 l 1
 923 3 845 3 799 3 c 0
 753 3 669 3 623 3 c 0
 577 3 499 3 458 0 c 1
 458 47 l 1
 458 47 l 1
 552 47 l 1
 552 47 l 1
 552 639 l 1
 552 639 l 1
 532 639 519 638 510 636 c 0
 503 634 499 632 496 629 c 0
 492 626 491 622 490 617 c 2
 344 16 l 2
 337 -9 320 -8 304 -8 c 0
 276 -8 268 -1 264 18 c 2
 108 639 l 1
 36 639 l 1
EndSplineSet
EndChar
StartChar: uF1D9E
Encoding: 990622 990622 7
Width: 1000
Flags: MW
LayerCount: 2
Fore
SplineSet
710 47 m 1
 748 47 l 1
 786 47 l 1
 786 639 l 1
 748 639 l 1
 710 639 l 1
 710 47 l 1
528 47 m 1
 566 47 l 1
 604 47 l 1
 604 639 l 1
 566 639 l 1
 528 639 l 1
 528 47 l 1
12 639 m 1
 12 686 l 1
 36 683 83 683 109 683 c 0
 135 683 192 683 216 686 c 1
 216 639 l 1
 162 639 l 1
 162 639 l 1
 253 199 l 1
 348 629 l 1
 348 629 l 1
 331 639 309 639 297 639 c 1
 297 686 l 1
 316 685 350 683 375 683 c 0
 399 683 800 683 838 683 c 0
 876 683 954 683 988 686 c 1
 988 639 l 1
 988 639 l 1
 892 639 l 1
 892 47 l 1
 988 47 l 1
 988 47 l 1
 988 0 l 1
 954 3 876 3 838 3 c 0
 800 3 512 3 474 3 c 0
 436 3 358 3 324 0 c 1
 324 47 l 1
 324 47 l 1
 422 47 l 1
 422 639 l 1
 422 639 l 1
 408 639 399 638 394 635 c 0
 388 631 386 625 384 616 c 2
 252 17 l 2
 247 0 246 -8 227 -8 c 0
 209 -8 206 0 202 17 c 2
 65 639 l 1
 12 639 l 1
EndSplineSet
EndChar
StartChar: uF1D9F
Encoding: 990623 990623 8
Width: 1000
Flags: MW
LayerCount: 2
Fore
SplineSet
286 47 m 1
 298 47 l 1
 318 47 340 48 360 50 c 0
 374 51 383 52 389 54 c 0
 396 56 398 60 402 67 c 2
 552 334 l 1
 382 639 l 1
 334 639 l 5
 286 639 l 1
 286 639 l 1
 286 47 l 1
30 0 m 1
 30 47 l 1
 30 47 l 1
 144 47 l 1
 144 47 l 1
 144 639 l 1
 144 639 l 1
 30 639 l 1
 30 639 l 1
 30 686 l 1
 71 683 168 683 214 683 c 0
 260 683 406 683 446 683 c 0
 491 683 557 683 598 686 c 1
 598 639 l 1
 534 639 l 1
 534 639 l 1
 628 470 l 1
 710 617 l 2
 712 620 717 626 718 628 c 1
 683 639 664 639 646 639 c 1
 646 686 l 1
 682 683 739 683 778 683 c 0
 821 683 870 683 912 686 c 1
 912 639 l 1
 882 639 l 2
 854 639 848 639 824 636 c 0
 789 633 786 633 778 618 c 2
 662 409 l 1
 862 47 l 1
 960 47 l 1
 960 47 l 1
 960 0 l 1
 925 3 838 3 798 3 c 0
 753 3 669 3 628 0 c 1
 628 47 l 1
 710 47 l 1
 710 47 l 1
 586 272 l 1
 472 69 l 2
 470 66 465 60 464 58 c 1
 499 47 538 47 556 47 c 1
 556 0 l 1
 520 3 443 3 404 3 c 0
 361 3 260 3 214 3 c 0
 168 3 71 3 30 0 c 1
EndSplineSet
EndChar
StartChar: uF1DB1
Encoding: 990641 990641 30
Width: 1000
Flags: MW
LayerCount: 2
Fore
SplineSet
504 0 m 1
 504 48 l 1
 534 48 l 1
 534 378 l 2
 534 411 532 407 504 407 c 1
 504 449 l 1
 611 455 l 1
 611 345 l 1
 627 409 658 455 704 455 c 0
 720 455 778 457 790 360 c 1
 805 411 825 455 871 455 c 0
 895 455 931 451 947 421 c 0
 957 406 966 367 966 338 c 2
 966 48 l 1
 996 48 l 1
 996 0 l 1
 984 1 946 3 923 3 c 0
 901 3 864 1 852 0 c 1
 852 48 l 1
 883 48 l 1
 883 337 l 2
 883 426 868 425 860 425 c 0
 830 425 792 381 792 269 c 2
 792 48 l 1
 823 48 l 1
 823 0 l 1
 811 1 773 3 750 3 c 0
 728 3 690 1 678 0 c 1
 678 48 l 1
 709 48 l 1
 709 337 l 2
 709 426 702 425 694 425 c 0
 664 425 618 381 618 269 c 2
 618 48 l 1
 649 48 l 1
 649 0 l 1
 637 1 599 3 576 3 c 0
 554 3 516 1 504 0 c 1
4 0 m 1
 4 48 l 1
 34 48 l 1
 34 378 l 2
 34 411 32 407 4 407 c 1
 4 449 l 1
 111 455 l 1
 111 345 l 1
 127 409 158 455 204 455 c 0
 220 455 278 457 290 360 c 1
 305 411 325 455 371 455 c 0
 395 455 431 451 447 421 c 0
 457 406 466 367 466 338 c 2
 466 48 l 1
 496 48 l 1
 496 0 l 1
 484 1 446 3 423 3 c 0
 401 3 364 1 352 0 c 1
 352 48 l 1
 383 48 l 1
 383 337 l 2
 383 426 368 425 360 425 c 0
 330 425 292 381 292 269 c 2
 292 48 l 1
 323 48 l 1
 323 0 l 1
 311 1 273 3 250 3 c 0
 228 3 190 1 178 0 c 1
 178 48 l 1
 209 48 l 1
 209 337 l 2
 209 426 202 425 194 425 c 0
 164 425 118 381 118 269 c 2
 118 48 l 1
 149 48 l 1
 149 0 l 1
 137 1 99 3 76 3 c 0
 54 3 16 1 4 0 c 1
EndSplineSet
EndChar
StartChar: uF1DB2
Encoding: 990642 990642 31
Width: 1000
Flags: MW
LayerCount: 2
Fore
SplineSet
504 0 m 1
 504 48 l 1
 534 48 l 1
 534 378 l 2
 534 411 532 407 504 407 c 1
 504 449 l 1
 611 455 l 1
 611 345 l 1
 627 409 658 455 704 455 c 0
 720 455 778 457 790 360 c 1
 805 411 825 455 871 455 c 0
 895 455 931 451 947 421 c 0
 957 406 966 367 966 338 c 2
 966 48 l 1
 996 48 l 1
 996 0 l 1
 984 1 946 3 923 3 c 0
 901 3 864 1 852 0 c 1
 852 48 l 1
 883 48 l 1
 883 337 l 2
 883 426 868 425 860 425 c 0
 830 425 792 381 792 269 c 2
 792 48 l 1
 823 48 l 1
 823 0 l 1
 811 1 773 3 750 3 c 0
 728 3 690 1 678 0 c 1
 678 48 l 1
 709 48 l 1
 709 337 l 2
 709 426 702 425 694 425 c 0
 664 425 618 381 618 269 c 2
 618 48 l 1
 649 48 l 1
 649 0 l 1
 637 1 599 3 576 3 c 0
 554 3 516 1 504 0 c 1
58 222 m 0
 58 338 122 453 278 453 c 0
 329 453 430 447 430 361 c 0
 430 319 403 298 376 298 c 0
 352 298 322 317 322 361 c 0
 322 370 324 391 340 407 c 1
 329 410 312 413 282 413 c 0
 170 413 170 283 170 227 c 0
 170 181 171 34 292 34 c 0
 336 34 377 53 400 116 c 0
 404 129 404 131 420 131 c 0
 429 131 442 131 442 117 c 0
 442 110 415 -6 274 -6 c 0
 140 -6 58 89 58 222 c 0
EndSplineSet
EndChar
StartChar: uF1DB3
Encoding: 990643 990643 32
Width: 1000
Flags: MW
LayerCount: 2
Fore
SplineSet
504 0 m 1
 504 48 l 1
 534 48 l 1
 534 378 l 2
 534 411 532 407 504 407 c 1
 504 449 l 1
 611 455 l 1
 611 345 l 1
 627 409 658 455 704 455 c 0
 720 455 778 457 790 360 c 1
 805 411 825 455 871 455 c 0
 895 455 931 451 947 421 c 0
 957 406 966 367 966 338 c 2
 966 48 l 1
 996 48 l 1
 996 0 l 1
 984 1 946 3 923 3 c 0
 901 3 864 1 852 0 c 1
 852 48 l 1
 883 48 l 1
 883 337 l 2
 883 426 868 425 860 425 c 0
 830 425 792 381 792 269 c 2
 792 48 l 1
 823 48 l 1
 823 0 l 1
 811 1 773 3 750 3 c 0
 728 3 690 1 678 0 c 1
 678 48 l 1
 709 48 l 1
 709 337 l 2
 709 426 702 425 694 425 c 0
 664 425 618 381 618 269 c 2
 618 48 l 1
 649 48 l 1
 649 0 l 1
 637 1 599 3 576 3 c 0
 554 3 516 1 504 0 c 1
10 0 m 1
 10 47 l 1
 70 47 l 1
 70 47 l 1
 70 600 l 2
 70 639 64 639 10 639 c 1
 10 686 l 1
 164 694 l 1
 164 237 l 1
 330 386 l 1
 330 386 l 1
 323 394 320 397 300 397 c 1
 300 444 l 1
 320 443 376 441 400 441 c 0
 423 441 444 441 468 444 c 1
 468 397 l 1
 410 397 402 390 390 379 c 2
 276 278 l 1
 276 278 l 1
 424 67 l 2
 435 51 439 47 476 47 c 2
 490 47 l 1
 490 0 l 1
 460 2 431 3 400 3 c 0
 396 3 318 2 292 0 c 1
 292 47 l 1
 303 47 320 47 320 56 c 0
 320 59 306 79 298 91 c 2
 210 217 l 1
 193 203 185 197 160 174 c 1
 160 47 l 5
 160 47 l 1
 220 47 l 1
 220 0 l 1
 189 1 148 3 116 3 c 0
 85 3 42 1 10 0 c 1
EndSplineSet
EndChar
StartChar: uF1DB4
Encoding: 990644 990644 33
Width: 1000
Flags: MW
LayerCount: 2
Fore
SplineSet
634 -75 m 0
 634 -12 682 9 690 12 c 1
 664 44 662 93 662 108 c 0
 662 129 666 162 684 197 c 1
 663 220 650 261 650 302 c 0
 650 372 685 450 779 450 c 0
 827 450 854 429 866 417 c 1
 895 452 925 455 935 455 c 0
 965 455 976 420 976 397 c 0
 976 373 965 354 948 354 c 0
 931 354 920 372 920 397 c 0
 920 403 922 412 923 417 c 1
 922 417 920 416 918 416 c 0
 910 415 899 411 883 398 c 1
 893 382 909 349 909 302 c 0
 909 232 873 154 779 154 c 0
 763 154 730 156 700 180 c 1
 696 172 693 157 693 147 c 0
 693 129 700 91 729 84 c 0
 732 83 762 83 779 83 c 0
 841 83 881 83 917 55 c 0
 961 21 966 -42 966 -72 c 0
 966 -142 915 -201 800 -201 c 0
 670 -201 634 -126 634 -75 c 0
701 -73 m 0
 701 -119 730 -165 800 -165 c 0
 876 -165 899 -111 899 -75 c 0
 899 -13 833 -13 815 -13 c 2
 746 -13 l 2
 738 -13 701 -13 701 -73 c 0
728 302 m 0
 728 257 728 190 779 190 c 0
 802 190 815 204 822 223 c 0
 830 246 831 278 831 302 c 0
 831 347 830 414 779 414 c 0
 759 414 747 404 739 389 c 0
 727 366 728 329 728 302 c 0
24 0 m 1
 24 47 l 1
 61 47 l 1
 61 47 l 1
 61 356 l 2
 61 395 59 395 24 395 c 5
 24 442 l 1
 142 450 l 1
 142 342 l 5
 150 405 193 450 250 450 c 0
 275 450 338 447 354 354 c 5
 363 400 398 450 457 450 c 0
 491 450 517 440 537 415 c 4
 556 392 565 356 565 306 c 6
 565 47 l 5
 602 47 l 1
 602 0 l 1
 584 1 550 3 520 3 c 4
 490 3 457 1 439 0 c 1
 439 47 l 1
 476 47 l 5
 476 47 l 5
 476 317 l 6
 476 394 469 414 447 414 c 0
 407 414 358 364 358 256 c 2
 358 47 l 1
 358 47 l 1
 395 47 l 1
 395 0 l 1
 377 1 343 3 313 3 c 0
 283 3 249 1 231 0 c 1
 231 47 l 1
 269 47 l 1
 269 47 l 1
 269 317 l 2
 269 394 262 414 240 414 c 0
 200 414 150 365 150 256 c 2
 150 47 l 1
 150 47 l 1
 188 47 l 1
 188 0 l 1
 170 1 136 3 106 3 c 0
 76 3 42 1 24 0 c 1
EndSplineSet
EndChar
StartChar: uF1DB5
Encoding: 990645 990645 34
Width: 1000
Flags: MW
LayerCount: 2
Fore
SplineSet
518 -75 m 0
 518 -12 582 9 593 12 c 1
 558 44 555 93 555 108 c 0
 555 129 560 162 585 197 c 1
 557 220 539 261 539 302 c 0
 539 372 587 450 714 450 c 0
 779 450 816 429 832 417 c 1
 871 452 912 455 925 455 c 0
 965 455 981 420 981 397 c 0
 981 373 966 354 943 354 c 0
 920 354 905 372 905 397 c 0
 905 403 906 412 908 417 c 1
 906 417 904 416 901 416 c 0
 890 415 875 411 854 398 c 1
 867 382 889 349 889 302 c 0
 889 232 841 154 714 154 c 0
 692 154 647 156 607 180 c 1
 602 172 598 157 598 147 c 0
 598 129 607 91 646 84 c 0
 650 83 691 83 714 83 c 0
 798 83 852 83 901 55 c 0
 960 21 967 -42 967 -72 c 0
 967 -142 898 -201 742 -201 c 0
 566 -201 518 -126 518 -75 c 0
593 -73 m 0
 593 -119 636 -165 742 -165 c 0
 856 -165 891 -111 891 -75 c 0
 891 -13 791 -13 764 -13 c 2
 661 -13 l 2
 649 -13 593 -13 593 -73 c 0
637 302 m 0
 637 257 637 190 714 190 c 0
 749 190 768 204 779 223 c 0
 791 246 791 278 791 302 c 0
 791 347 791 414 714 414 c 0
 684 414 665 404 654 389 c 0
 636 366 637 329 637 302 c 0
19 0 m 1
 19 47 l 1
 80 47 l 1
 80 47 l 1
 80 600 l 2
 80 639 74 639 19 639 c 1
 19 686 l 1
 175 694 l 1
 175 237 l 1
 341 386 l 1
 341 386 l 1
 334 394 332 397 312 397 c 1
 312 444 l 1
 332 443 389 441 413 441 c 0
 436 441 457 441 481 444 c 1
 481 397 l 1
 422 397 414 390 402 379 c 2
 288 278 l 1
 288 278 l 1
 437 67 l 2
 448 51 450 47 488 47 c 2
 503 47 l 1
 503 0 l 1
 473 2 444 3 412 3 c 0
 408 3 331 2 305 0 c 1
 305 47 l 1
 316 47 332 47 332 56 c 0
 332 59 318 79 310 91 c 2
 221 217 l 1
 203 203 197 197 171 174 c 1
 171 47 l 1
 171 47 l 1
 231 47 l 1
 231 0 l 1
 199 1 158 3 125 3 c 0
 93 3 52 1 19 0 c 1
EndSplineSet
EndChar
StartChar: uF1DB6
Encoding: 990646 990646 35
Width: 1000
Flags: MW
LayerCount: 2
Fore
SplineSet
558 222 m 0
 558 338 622 453 778 453 c 0
 829 453 930 447 930 361 c 0
 930 319 903 298 876 298 c 0
 852 298 822 317 822 361 c 0
 822 370 824 391 840 407 c 1
 829 410 812 413 782 413 c 0
 670 413 670 283 670 227 c 0
 670 181 671 34 792 34 c 0
 836 34 877 53 900 116 c 0
 904 129 904 131 920 131 c 0
 929 131 942 131 942 117 c 0
 942 110 915 -6 774 -6 c 0
 640 -6 558 89 558 222 c 0
58 222 m 0
 58 338 122 453 278 453 c 0
 329 453 430 447 430 361 c 0
 430 319 403 298 376 298 c 0
 352 298 322 317 322 361 c 0
 322 370 324 391 340 407 c 1
 329 410 312 413 282 413 c 0
 170 413 170 283 170 227 c 0
 170 181 171 34 292 34 c 0
 336 34 377 53 400 116 c 0
 404 129 404 131 420 131 c 0
 429 131 442 131 442 117 c 0
 442 110 415 -6 274 -6 c 0
 140 -6 58 89 58 222 c 0
EndSplineSet
EndChar
StartChar: uF1DB7
Encoding: 990647 990647 36
Width: 1000
Flags: MW
LayerCount: 2
Fore
SplineSet
22 0 m 1
 22 47 l 1
 91 47 l 1
 91 47 l 1
 91 356 l 2
 91 395 84 395 22 395 c 1
 22 442 l 1
 194 450 l 1
 194 342 l 1
 226 405 283 450 370 450 c 0
 408 450 500 447 520 354 c 1
 546 400 598 450 689 450 c 0
 742 450 782 440 807 415 c 0
 831 392 843 356 843 306 c 2
 843 47 l 1
 912 47 l 1
 912 0 l 1
 884 1 825 3 786 3 c 0
 748 3 688 1 660 0 c 1
 660 47 l 1
 729 47 l 1
 729 47 l 1
 729 317 l 2
 729 394 707 414 673 414 c 0
 611 414 524 364 524 256 c 2
 524 47 l 1
 524 47 l 1
 593 47 l 1
 593 0 l 1
 565 1 506 3 467 3 c 0
 429 3 369 1 341 0 c 1
 341 47 l 1
 410 47 l 1
 410 47 l 1
 410 317 l 2
 410 394 388 414 354 414 c 0
 292 414 205 365 205 256 c 2
 205 47 l 1
 205 47 l 1
 274 47 l 1
 274 0 l 1
 246 1 187 3 148 3 c 0
 110 3 50 1 22 0 c 1
693 480 m 1
 693 546 l 1
 694 560 698 563 714 570 c 0
 826 621 886 640 886 691 c 0
 886 713 872 743 821 752 c 0
 813 754 805 755 796 755 c 1
 799 746 801 741 801 732 c 0
 801 700 777 678 747 678 c 0
 715 678 693 703 693 732 c 0
 693 742 696 751 700 758 c 0
 708 772 722 780 740 784 c 0
 766 791 799 791 826 791 c 0
 963 791 990 731 990 691 c 8
 990 630 893 609 864 600 c 1
 847 596 817 583 794 575 c 1
 845 575 l 2
 903 575 930 575 936 581 c 0
 940 585 943 591 945 596 c 0
 947 604 950 618 952 626 c 9
 987 626 l 1
 966 480 l 1
 693 480 l 1
EndSplineSet
EndChar
StartChar: uF1DBA
Encoding: 990650 990650 37
Width: 1000
Flags: MW
LayerCount: 2
Fore
SplineSet
840 78 m 0
 840 125 866 156 904 156 c 0
 945 156 982 123 982 78 c 0
 982 39 950 0 904 0 c 0
 863 0 840 33 840 78 c 0
601 229 m 0
 601 184 601 133 612 94 c 0
 622 59 640 34 676 34 c 0
 709 34 727 54 738 84 c 0
 752 124 752 180 752 229 c 0
 752 277 751 332 739 366 c 0
 726 401 701 417 676 417 c 0
 647 417 622 396 611 359 c 0
 601 325 601 274 601 229 c 0
526 218 m 0
 526 351 579 453 676 453 c 0
 772 453 827 352 827 218 c 0
 827 95 775 -6 676 -6 c 0
 577 -6 526 94 526 218 c 0
18 0 m 1
 18 47 l 1
 44 47 l 2
 72 47 74 47 98 50 c 0
 126 53 126 54 126 76 c 2
 126 639 l 1
 126 639 l 1
 18 639 l 1
 18 639 l 1
 18 686 l 1
 203 686 l 2
 215 686 215 685 222 673 c 2
 458 205 l 1
 458 610 l 2
 458 632 457 633 440 636 c 0
 429 638 420 639 409 639 c 2
 394 639 l 1
 394 686 l 1
 418 683 449 683 474 683 c 0
 497 683 531 683 553 686 c 1
 553 639 l 1
 538 639 l 2
 521 639 520 639 506 636 c 0
 489 633 489 632 489 610 c 2
 489 32 l 2
 489 9 489 0 473 0 c 0
 464 0 463 1 457 13 c 2
 163 599 l 1
 163 599 l 1
 163 76 l 2
 163 54 163 53 180 50 c 0
 191 48 201 47 212 47 c 2
 227 47 l 1
 227 0 l 1
 203 3 172 3 147 3 c 0
 114 3 56 3 18 0 c 1
EndSplineSet
EndChar
StartChar: uF1DBB
Encoding: 990651 990651 38
Width: 1000
VWidth: 500
Flags: MW
LayerCount: 2
Fore
SplineSet
871 78 m 0
 871 125 895 156 917 156 c 0
 941 156 962 123 962 78 c 0
 962 39 944 0 917 0 c 0
 893 0 871 33 871 78 c 0
515 0 m 1
 515 47 l 1
 515 47 l 1
 555 47 l 1
 555 639 l 1
 515 639 l 1
 515 639 l 1
 515 686 l 1
 530 683 569 683 587 683 c 0
 605 683 645 683 660 686 c 1
 660 639 l 1
 660 639 l 1
 620 639 l 1
 620 338 l 1
 735 613 l 1
 741 619 738 622 744 626 c 1
 733 638 722 639 713 639 c 1
 713 686 l 1
 730 683 752 683 769 683 c 0
 788 683 798 684 809 686 c 1
 809 639 l 1
 813 639 l 1
 766 639 773 634 759 602 c 2
 685 424 l 1
 780 66 l 2
 783 53 786 47 807 47 c 2
 815 47 l 1
 815 0 l 1
 794 3 778 3 757 3 c 0
 740 3 702 3 687 0 c 1
 687 47 l 1
 694 47 719 48 715 60 c 1
 716 58 716 60 713 69 c 2
 644 330 l 1
 620 270 l 1
 620 47 l 1
 660 47 l 1
 660 47 l 1
 660 0 l 1
 645 3 605 3 587 3 c 0
 569 3 530 3 515 0 c 1
371 78 m 0
 371 125 395 156 417 156 c 0
 441 156 462 123 462 78 c 0
 462 39 444 0 417 0 c 0
 393 0 371 33 371 78 c 0
15 0 m 1
 15 47 l 1
 15 47 l 1
 55 47 l 1
 55 639 l 1
 15 639 l 1
 15 639 l 1
 15 686 l 1
 30 683 69 683 87 683 c 0
 105 683 145 683 160 686 c 1
 160 639 l 1
 160 639 l 1
 120 639 l 1
 120 338 l 1
 235 613 l 1
 241 619 238 622 244 626 c 1
 233 638 222 639 213 639 c 1
 213 686 l 1
 230 683 252 683 269 683 c 0
 288 683 298 684 309 686 c 1
 309 639 l 1
 313 639 l 1
 266 639 273 634 259 602 c 2
 185 424 l 1
 280 66 l 2
 283 53 286 47 307 47 c 2
 315 47 l 1
 315 0 l 1
 294 3 278 3 257 3 c 0
 240 3 202 3 187 0 c 1
 187 47 l 1
 194 47 219 48 215 60 c 1
 216 58 216 60 213 69 c 2
 144 330 l 1
 120 270 l 1
 120 47 l 1
 160 47 l 1
 160 47 l 1
 160 0 l 1
 145 3 105 3 87 3 c 0
 69 3 30 3 15 0 c 1
EndSplineSet
EndChar
StartChar: uF1DBC
Encoding: 990652 990652 39
Width: 1000
Flags: MW
LayerCount: 2
Fore
SplineSet
685 0 m 1
 685 47 l 1
 685 47 l 1
 737 47 l 1
 737 639 l 1
 685 639 l 1
 685 639 l 1
 685 686 l 1
 704 683 752 683 773 683 c 0
 797 683 850 683 871 686 c 1
 871 639 l 1
 871 639 l 1
 805 639 l 1
 805 47 l 1
 805 47 l 1
 855 47 l 2
 942 47 950 205 954 274 c 1
 977 274 l 1
 961 0 l 1
 685 0 l 1
350 0 m 1
 350 47 l 1
 350 47 l 1
 398 47 l 1
 398 633 l 1
 350 633 l 1
 350 633 l 1
 350 680 l 1
 624 680 l 1
 638 439 l 1
 616 439 l 1
 609 555 600 633 525 633 c 2
 466 633 l 1
 466 633 l 1
 466 376 l 1
 484 376 l 2
 529 376 531 419 531 493 c 1
 554 493 l 1
 554 212 l 1
 531 212 l 1
 531 286 528 329 484 329 c 2
 466 329 l 1
 466 47 l 1
 466 47 l 1
 526 47 l 2
 609 47 620 140 630 274 c 1
 652 274 l 1
 631 0 l 1
 350 0 l 1
17 434 m 1
 27 675 l 1
 307 675 l 1
 316 434 l 1
 295 434 l 1
 291 546 287 628 226 628 c 2
 199 628 l 1
 199 628 l 1
 199 47 l 1
 263 47 l 1
 263 47 l 1
 263 0 l 1
 240 3 192 3 167 3 c 0
 142 3 94 3 71 0 c 1
 71 47 l 1
 71 47 l 1
 135 47 l 1
 135 628 l 1
 135 628 l 1
 107 628 l 2
 46 628 43 546 39 434 c 1
 17 434 l 1
EndSplineSet
EndChar
StartChar: uF1F54
Encoding: 991060 991060 40
Width: 1000
Flags: MW
LayerCount: 2
Fore
SplineSet
504 0 m 1
 504 48 l 1
 534 48 l 1
 534 378 l 2
 534 411 532 407 504 407 c 1
 504 449 l 1
 611 455 l 1
 611 345 l 1
 627 409 658 455 704 455 c 0
 720 455 778 457 790 360 c 1
 805 411 825 455 871 455 c 0
 895 455 931 451 947 421 c 0
 957 406 966 367 966 338 c 2
 966 48 l 1
 996 48 l 1
 996 0 l 1
 984 1 946 3 923 3 c 0
 901 3 864 1 852 0 c 1
 852 48 l 1
 883 48 l 1
 883 337 l 2
 883 426 868 425 860 425 c 0
 830 425 792 381 792 269 c 2
 792 48 l 1
 823 48 l 1
 823 0 l 1
 811 1 773 3 750 3 c 0
 728 3 690 1 678 0 c 1
 678 48 l 1
 709 48 l 1
 709 337 l 2
 709 426 702 425 694 425 c 0
 664 425 618 381 618 269 c 2
 618 48 l 1
 649 48 l 1
 649 0 l 1
 637 1 599 3 576 3 c 0
 554 3 516 1 504 0 c 1
58 222 m 0
 58 338 122 453 278 453 c 0
 329 453 430 447 430 361 c 0
 430 319 403 298 376 298 c 0
 352 298 322 317 322 361 c 0
 322 370 324 391 340 407 c 1
 329 410 312 413 282 413 c 0
 170 413 170 283 170 227 c 0
 170 181 171 34 292 34 c 0
 336 34 377 53 400 116 c 0
 404 129 404 131 420 131 c 0
 429 131 442 131 442 117 c 0
 442 110 415 -6 274 -6 c 0
 140 -6 58 89 58 222 c 0
693 480 m 5
 693 546 l 5
 694 560 698 563 714 570 c 4
 826 621 886 640 886 691 c 4
 886 713 872 743 821 752 c 4
 813 754 805 755 796 755 c 5
 799 746 801 741 801 732 c 4
 801 700 777 678 747 678 c 4
 715 678 693 703 693 732 c 4
 693 742 696 751 700 758 c 4
 708 772 722 780 740 784 c 4
 766 791 799 791 826 791 c 4
 963 791 990 731 990 691 c 12
 990 630 893 609 864 600 c 5
 847 596 817 583 794 575 c 5
 845 575 l 6
 903 575 930 575 936 581 c 4
 940 585 943 591 945 596 c 4
 947 604 950 618 952 626 c 13
 987 626 l 5
 966 480 l 5
 693 480 l 5
EndSplineSet
EndChar
StartChar: uF1F55
Encoding: 991061 991061 41
Width: 1000
Flags: MW
LayerCount: 2
Fore
SplineSet
504 0 m 1
 504 48 l 1
 534 48 l 1
 534 378 l 2
 534 411 532 407 504 407 c 1
 504 449 l 1
 611 455 l 1
 611 345 l 1
 627 409 658 455 704 455 c 0
 720 455 778 457 790 360 c 1
 805 411 825 455 871 455 c 0
 895 455 931 451 947 421 c 0
 957 406 966 367 966 338 c 2
 966 48 l 1
 996 48 l 1
 996 0 l 1
 984 1 946 3 923 3 c 0
 901 3 864 1 852 0 c 1
 852 48 l 1
 883 48 l 1
 883 337 l 2
 883 426 868 425 860 425 c 0
 830 425 792 381 792 269 c 2
 792 48 l 1
 823 48 l 1
 823 0 l 1
 811 1 773 3 750 3 c 0
 728 3 690 1 678 0 c 1
 678 48 l 1
 709 48 l 1
 709 337 l 2
 709 426 702 425 694 425 c 0
 664 425 618 381 618 269 c 2
 618 48 l 1
 649 48 l 1
 649 0 l 1
 637 1 599 3 576 3 c 0
 554 3 516 1 504 0 c 1
10 0 m 1
 10 47 l 1
 70 47 l 1
 70 47 l 1
 70 600 l 2
 70 639 64 639 10 639 c 1
 10 686 l 1
 164 694 l 1
 164 237 l 1
 330 386 l 1
 330 386 l 1
 323 394 320 397 300 397 c 1
 300 444 l 1
 320 443 376 441 400 441 c 0
 423 441 444 441 468 444 c 1
 468 397 l 1
 410 397 402 390 390 379 c 2
 276 278 l 1
 276 278 l 1
 424 67 l 2
 435 51 439 47 476 47 c 2
 490 47 l 1
 490 0 l 1
 460 2 431 3 400 3 c 0
 396 3 318 2 292 0 c 1
 292 47 l 1
 303 47 320 47 320 56 c 0
 320 59 306 79 298 91 c 2
 210 217 l 1
 193 203 185 197 160 174 c 1
 160 47 l 5
 160 47 l 1
 220 47 l 1
 220 0 l 1
 189 1 148 3 116 3 c 0
 85 3 42 1 10 0 c 1
693 480 m 5
 693 546 l 5
 694 560 698 563 714 570 c 4
 826 621 886 640 886 691 c 4
 886 713 872 743 821 752 c 4
 813 754 805 755 796 755 c 5
 799 746 801 741 801 732 c 4
 801 700 777 678 747 678 c 4
 715 678 693 703 693 732 c 4
 693 742 696 751 700 758 c 4
 708 772 722 780 740 784 c 4
 766 791 799 791 826 791 c 4
 963 791 990 731 990 691 c 12
 990 630 893 609 864 600 c 5
 847 596 817 583 794 575 c 5
 845 575 l 6
 903 575 930 575 936 581 c 4
 940 585 943 591 945 596 c 4
 947 604 950 618 952 626 c 13
 987 626 l 5
 966 480 l 5
 693 480 l 5
EndSplineSet
EndChar
StartChar: uF1F56
Encoding: 991062 991062 42
Width: 1000
Flags: MW
LayerCount: 2
Fore
SplineSet
373 0 m 1
 373 47 l 1
 412 47 l 1
 412 47 l 1
 412 356 l 2
 412 395 410 395 373 395 c 1
 373 442 l 1
 496 450 l 1
 496 342 l 5
 505 405 551 450 610 450 c 0
 636 450 703 447 719 354 c 5
 726 400 765 450 827 450 c 0
 863 450 890 440 910 415 c 0
 930 392 939 356 939 306 c 2
 939 47 l 1
 978 47 l 1
 978 0 l 1
 959 1 925 3 893 3 c 0
 862 3 826 1 807 0 c 1
 807 47 l 1
 846 47 l 1
 846 47 l 1
 846 317 l 2
 846 394 839 414 816 414 c 0
 774 414 722 364 722 256 c 2
 722 47 l 1
 722 47 l 1
 761 47 l 1
 761 0 l 1
 742 1 708 3 676 3 c 0
 645 3 609 1 590 0 c 1
 590 47 l 1
 629 47 l 1
 629 47 l 1
 629 317 l 2
 629 394 622 414 599 414 c 0
 557 414 505 365 505 256 c 2
 505 47 l 1
 505 47 l 1
 545 47 l 1
 545 0 l 1
 526 1 491 3 459 3 c 0
 428 3 392 1 373 0 c 1
22 222 m 0
 22 338 72 453 194 453 c 0
 218 453 256 451 283 429 c 0
 300 415 312 394 312 361 c 0
 312 319 290 298 269 298 c 0
 251 298 225 317 225 361 c 0
 225 370 226 391 237 407 c 1
 229 410 218 413 197 413 c 0
 118 413 118 283 118 227 c 0
 118 181 119 34 204 34 c 0
 235 34 264 53 280 116 c 0
 283 129 290 131 301 131 c 0
 307 131 321 131 321 117 c 0
 321 110 300 -6 190 -6 c 0
 85 -6 22 89 22 222 c 0
685 565 m 4
 685 599 711 622 743 622 c 4
 775 622 800 599 800 565 c 4
 800 537 784 523 776 517 c 5
 796 512 818 511 828 511 c 4
 873 511 882 534 882 566 c 4
 882 613 860 621 834 623 c 4
 828 623 822 623 816 623 c 4
 801 623 800 625 796 630 c 5
 793 636 794 643 798 647 c 4
 809 657 834 644 854 667 c 4
 865 680 869 697 869 713 c 4
 869 734 863 751 831 751 c 4
 812 751 798 748 780 740 c 5
 783 738 786 736 790 734 c 4
 802 726 814 713 814 691 c 4
 814 660 790 639 762 639 c 4
 734 639 710 659 710 692 c 4
 710 704 712 716 720 729 c 4
 736 757 771 781 834 781 c 4
 932 781 972 745 972 710 c 4
 972 670 940 651 906 638 c 5
 946 630 996 609 996 566 c 4
 996 531 960 478 833 478 c 4
 713 478 685 530 685 565 c 4
EndSplineSet
EndChar
StartChar: uF1F57
Encoding: 991063 991063 43
Width: 1000
Flags: MW
LayerCount: 2
Fore
SplineSet
22 0 m 1
 22 47 l 1
 91 47 l 1
 91 47 l 1
 91 356 l 2
 91 395 84 395 22 395 c 1
 22 442 l 1
 194 450 l 1
 194 342 l 1
 226 405 283 450 370 450 c 0
 408 450 500 447 520 354 c 1
 546 400 598 450 689 450 c 0
 742 450 782 440 807 415 c 0
 831 392 843 356 843 306 c 2
 843 47 l 1
 912 47 l 1
 912 0 l 1
 884 1 825 3 786 3 c 0
 748 3 688 1 660 0 c 1
 660 47 l 1
 729 47 l 1
 729 47 l 1
 729 317 l 2
 729 394 707 414 673 414 c 0
 611 414 524 364 524 256 c 2
 524 47 l 1
 524 47 l 1
 593 47 l 1
 593 0 l 1
 565 1 506 3 467 3 c 0
 429 3 369 1 341 0 c 1
 341 47 l 1
 410 47 l 1
 410 47 l 1
 410 317 l 2
 410 394 388 414 354 414 c 0
 292 414 205 365 205 256 c 2
 205 47 l 1
 205 47 l 1
 274 47 l 1
 274 0 l 1
 246 1 187 3 148 3 c 0
 110 3 50 1 22 0 c 1
685 565 m 4
 685 599 711 622 743 622 c 4
 775 622 800 599 800 565 c 4
 800 537 784 523 776 517 c 5
 796 512 818 511 828 511 c 4
 873 511 882 534 882 566 c 4
 882 613 860 621 834 623 c 4
 828 623 822 623 816 623 c 4
 801 623 800 625 796 630 c 5
 793 636 794 643 798 647 c 4
 809 657 834 644 854 667 c 4
 865 680 869 697 869 713 c 4
 869 734 863 751 831 751 c 4
 812 751 798 748 780 740 c 5
 783 738 786 736 790 734 c 4
 802 726 814 713 814 691 c 4
 814 660 790 639 762 639 c 4
 734 639 710 659 710 692 c 4
 710 704 712 716 720 729 c 4
 736 757 771 781 834 781 c 4
 932 781 972 745 972 710 c 4
 972 670 940 651 906 638 c 5
 946 630 996 609 996 566 c 4
 996 531 960 478 833 478 c 4
 713 478 685 530 685 565 c 4
EndSplineSet
EndChar
StartChar: uF1F58
Encoding: 991064 991064 44
Width: 1000
Flags: MW
LayerCount: 2
Fore
SplineSet
696 88 m 0
 696 105 701 122 704 133 c 2
 816 576 l 2
 821 596 826 616 830 636 c 1
 809 638 790 636 778 639 c 0
 768 641 762 647 762 659 c 0
 762 686 785 686 792 687 c 0
 825 689 882 692 908 693 c 0
 915 693 921 694 922 694 c 0
 934 694 946 690 946 674 c 0
 946 670 945 665 944 661 c 2
 810 123 l 2
 800 83 798 69 798 56 c 0
 798 35 806 26 816 26 c 0
 847 26 864 91 874 129 c 0
 877 141 880 150 882 154 c 0
 887 161 897 162 906 162 c 0
 926 162 934 159 934 146 c 0
 934 143 935 139 934 135 c 0
 926 103 912 64 890 34 c 0
 871 8 846 -11 812 -11 c 0
 756 -11 696 23 696 88 c 0
54 221 m 0
 54 362 160 450 306 450 c 0
 339 450 390 444 440 405 c 1
 440 600 l 2
 440 639 434 639 372 639 c 1
 372 686 l 1
 548 694 l 1
 548 86 l 2
 548 47 556 47 618 47 c 1
 618 0 l 1
 434 -6 l 1
 434 43 l 1
 403 18 355 -6 294 -6 c 0
 146 -6 54 89 54 221 c 0
182 221 m 0
 182 180 182 122 206 80 c 0
 224 51 254 30 304 30 c 0
 380 30 421 85 434 103 c 1
 434 103 l 1
 434 353 l 1
 434 353 l 1
 412 382 373 414 316 414 c 0
 285 414 237 404 208 362 c 0
 182 323 182 269 182 221 c 0
EndSplineSet
EndChar
StartChar: uF1F59
Encoding: 991065 991065 45
Width: 1000
Flags: MW
LayerCount: 2
Fore
SplineSet
376 88 m 0
 376 105 381 122 384 133 c 2
 494 576 l 2
 499 596 504 616 508 636 c 1
 487 638 470 636 458 639 c 4
 448 641 442 647 442 659 c 0
 442 686 463 686 470 687 c 0
 503 689 562 692 588 693 c 0
 595 693 599 694 600 694 c 0
 612 694 624 690 624 674 c 0
 624 670 623 665 622 661 c 2
 488 123 l 2
 478 83 476 69 476 56 c 0
 476 35 486 26 496 26 c 0
 527 26 544 91 554 129 c 0
 557 141 560 150 562 154 c 0
 567 161 575 162 584 162 c 0
 604 162 614 159 614 146 c 0
 614 143 613 139 612 135 c 0
 604 103 592 64 570 34 c 0
 551 8 524 -11 490 -11 c 0
 434 -11 376 23 376 88 c 0
EndSplineSet
EndChar
StartChar: uF1F5A
Encoding: 991066 991066 46
Width: 1000
Flags: MW
LayerCount: 2
Fore
SplineSet
688 88 m 0
 688 105 693 122 696 133 c 2
 807 576 l 2
 812 596 817 616 821 636 c 1
 800 638 782 636 770 639 c 0
 760 641 754 647 754 659 c 0
 754 686 776 686 783 687 c 0
 816 689 874 692 900 693 c 0
 907 693 912 694 913 694 c 0
 925 694 937 690 937 674 c 0
 937 670 936 665 935 661 c 2
 801 123 l 2
 791 83 789 69 789 56 c 0
 789 35 798 26 808 26 c 0
 839 26 856 91 866 129 c 0
 869 141 872 150 874 154 c 0
 879 161 888 162 897 162 c 0
 917 162 926 159 926 146 c 0
 926 143 926 139 925 135 c 0
 917 103 904 64 882 34 c 0
 863 8 837 -11 803 -11 c 0
 747 -11 688 23 688 88 c 0
63 0 m 1
 63 47 l 1
 132 47 l 1
 132 47 l 1
 132 600 l 2
 132 639 125 639 63 639 c 1
 63 686 l 1
 240 694 l 1
 240 237 l 1
 429 386 l 1
 429 386 l 1
 421 394 418 397 395 397 c 1
 395 444 l 1
 418 443 483 441 510 441 c 0
 536 441 561 441 588 444 c 1
 588 397 l 1
 521 397 512 390 498 379 c 2
 368 278 l 1
 368 278 l 1
 537 67 l 2
 550 51 553 47 596 47 c 2
 613 47 l 1
 613 0 l 1
 579 2 545 3 509 3 c 0
 504 3 417 2 387 0 c 1
 387 47 l 1
 400 47 418 47 418 56 c 0
 418 59 402 79 393 91 c 2
 292 217 l 1
 272 203 264 197 235 174 c 1
 235 47 l 1
 235 47 l 1
 304 47 l 1
 304 0 l 1
 268 1 220 3 183 3 c 0
 147 3 100 1 63 0 c 1
EndSplineSet
EndChar
StartChar: uF1F5B
Encoding: 991067 991067 47
Width: 1000
Flags: MW
LayerCount: 2
Fore
SplineSet
586 22 m 2
 586 131 l 2
 586 154 585 160 606 160 c 0
 618 160 624 160 628 146 c 1
 638 103 660 30 752 30 c 0
 771 30 852 30 852 105 c 0
 852 164 787 177 756 183 c 0
 689 197 655 203 620 238 c 0
 603 255 586 282 586 322 c 0
 586 453 720 453 746 453 c 0
 781 453 811 447 834 434 c 1
 843 439 849 443 854 445 c 4
 869 453 871 453 874 453 c 0
 890 453 888 444 888 425 c 2
 888 345 l 2
 888 322 889 317 868 317 c 0
 850 317 849 322 848 337 c 0
 844 392 811 421 746 421 c 0
 729 421 648 421 648 359 c 0
 648 312 704 301 736 294 c 0
 804 281 832 275 866 246 c 1
 896 218 914 183 914 140 c 0
 914 -6 779 -6 752 -6 c 0
 735 -6 690 -6 650 26 c 1
 647 24 629 9 628 9 c 0
 610 -6 608 -6 602 -6 c 0
 586 -6 586 3 586 22 c 2
4 0 m 1
 4 48 l 1
 34 48 l 1
 34 378 l 2
 34 411 32 407 4 407 c 1
 4 449 l 1
 111 455 l 1
 111 345 l 1
 127 409 158 455 204 455 c 0
 220 455 278 457 290 360 c 1
 305 411 325 455 371 455 c 0
 395 455 431 451 447 421 c 0
 457 406 466 367 466 338 c 2
 466 48 l 1
 496 48 l 1
 496 0 l 1
 484 1 446 3 423 3 c 0
 401 3 364 1 352 0 c 1
 352 48 l 1
 383 48 l 1
 383 337 l 2
 383 426 368 425 360 425 c 0
 330 425 292 381 292 269 c 2
 292 48 l 1
 323 48 l 1
 323 0 l 1
 311 1 273 3 250 3 c 0
 228 3 190 1 178 0 c 1
 178 48 l 1
 209 48 l 1
 209 337 l 2
 209 426 202 425 194 425 c 0
 164 425 118 381 118 269 c 2
 118 48 l 1
 149 48 l 1
 149 0 l 1
 137 1 99 3 76 3 c 0
 54 3 16 1 4 0 c 1
EndSplineSet
EndChar
StartChar: uF1F5C
Encoding: 991068 991068 48
Width: 1000
Flags: MW
LayerCount: 2
Fore
SplineSet
586 22 m 2
 586 131 l 2
 586 154 585 160 606 160 c 0
 618 160 624 160 628 146 c 1
 638 103 660 30 752 30 c 0
 771 30 852 30 852 105 c 0
 852 164 787 177 756 183 c 0
 689 197 655 203 620 238 c 0
 603 255 586 282 586 322 c 0
 586 453 720 453 746 453 c 0
 781 453 811 447 834 434 c 1
 843 439 849 443 854 445 c 0
 869 453 871 453 874 453 c 0
 890 453 888 444 888 425 c 2
 888 345 l 2
 888 322 889 317 868 317 c 0
 850 317 849 322 848 337 c 0
 844 392 811 421 746 421 c 0
 729 421 648 421 648 359 c 0
 648 312 704 301 736 294 c 0
 804 281 832 275 866 246 c 1
 896 218 914 183 914 140 c 0
 914 -6 779 -6 752 -6 c 0
 735 -6 690 -6 650 26 c 1
 647 24 629 9 628 9 c 0
 610 -6 608 -6 602 -6 c 0
 586 -6 586 3 586 22 c 2
37 -147 m 1
 37 -147 l 1
 97 -147 l 1
 97 -147 l 1
 97 359 l 1
 96 388 89 394 47 394 c 2
 37 394 l 1
 37 442 l 1
 194 450 l 1
 194 147 l 2
 194 138 193 128 193 118 c 0
 193 56 197 31 262 31 c 0
 303 31 362 58 367 170 c 2
 367 170 l 1
 367 355 l 2
 367 386 364 394 316 394 c 2
 309 394 l 1
 309 442 l 1
 464 450 l 1
 464 85 l 2
 464 54 471 48 515 48 c 2
 524 48 l 1
 524 0 l 1
 372 -5 l 1
 372 38 l 1
 371 72 l 1
 331 -4 277 -5 251 -5 c 2
 248 -5 l 2
 230 -5 212 -4 194 -1 c 1
 194 -147 l 1
 194 -147 l 1
 252 -147 l 1
 252 -147 l 1
 252 -195 l 1
 220 -193 188 -192 156 -192 c 0
 151 -192 146 -192 141 -192 c 0
 99 -192 68 -193 37 -195 c 1
 37 -147 l 1
EndSplineSet
EndChar
StartChar: uF1F5D
Encoding: 991069 991069 49
Width: 1000
Flags: MW
LayerCount: 2
Fore
SplineSet
586 22 m 2
 586 131 l 2
 586 154 585 160 606 160 c 0
 618 160 624 160 628 146 c 1
 638 103 660 30 752 30 c 0
 771 30 852 30 852 105 c 0
 852 164 787 177 756 183 c 0
 689 197 655 203 620 238 c 0
 603 255 586 282 586 322 c 0
 586 453 720 453 746 453 c 0
 781 453 811 447 834 434 c 1
 843 439 849 443 854 445 c 4
 869 453 871 453 874 453 c 0
 890 453 888 444 888 425 c 2
 888 345 l 2
 888 322 889 317 868 317 c 0
 850 317 849 322 848 337 c 0
 844 392 811 421 746 421 c 0
 729 421 648 421 648 359 c 0
 648 312 704 301 736 294 c 0
 804 281 832 275 866 246 c 1
 896 218 914 183 914 140 c 0
 914 -6 779 -6 752 -6 c 0
 735 -6 690 -6 650 26 c 1
 647 24 629 9 628 9 c 0
 610 -6 608 -6 602 -6 c 0
 586 -6 586 3 586 22 c 2
12 0 m 1
 12 47 l 1
 72 47 l 1
 72 47 l 1
 72 356 l 2
 72 395 66 395 12 395 c 1
 12 442 l 1
 162 450 l 1
 162 342 l 1
 185 393 210 450 294 450 c 0
 339 450 373 439 396 414 c 0
 417 391 428 356 428 306 c 2
 428 47 l 5
 428 47 l 1
 488 47 l 1
 488 0 l 1
 464 1 412 3 378 3 c 0
 345 3 292 1 268 0 c 1
 268 47 l 1
 328 47 l 1
 328 47 l 1
 328 317 l 2
 328 393 310 414 280 414 c 0
 225 414 172 365 172 256 c 2
 172 47 l 1
 172 47 l 1
 232 47 l 1
 232 0 l 1
 208 1 156 3 122 3 c 0
 89 3 36 1 12 0 c 1
EndSplineSet
EndChar
StartChar: uF1F5E
Encoding: 991070 991070 50
Width: 1000
Flags: MW
LayerCount: 2
Fore
SplineSet
617 22 m 2
 617 131 l 2
 617 154 617 160 639 160 c 0
 652 160 657 160 661 146 c 1
 672 103 695 30 790 30 c 0
 810 30 893 30 893 105 c 0
 893 164 825 177 793 183 c 0
 724 197 689 203 653 238 c 0
 635 255 617 282 617 322 c 0
 617 453 756 453 783 453 c 0
 819 453 851 447 874 434 c 1
 883 439 890 443 895 445 c 0
 910 453 911 453 914 453 c 0
 930 453 931 444 931 425 c 2
 931 345 l 2
 931 322 931 317 909 317 c 0
 890 317 889 322 888 337 c 0
 886 364 876 384 860 398 c 4
 842 413 817 421 782 421 c 0
 765 421 681 421 681 359 c 0
 681 312 740 301 773 294 c 0
 843 281 872 275 907 246 c 1
 939 218 957 183 957 140 c 0
 957 -6 818 -6 790 -6 c 0
 772 -6 725 -6 684 26 c 1
 681 24 662 9 661 9 c 0
 642 -6 640 -6 634 -6 c 0
 618 -6 617 3 617 22 c 2
43 -147 m 1
 105 -147 l 1
 105 -147 l 1
 105 357 l 2
 105 395 99 395 43 395 c 1
 43 442 l 1
 203 450 l 1
 203 401 l 1
 224 419 270 450 338 450 c 0
 468 450 550 356 550 223 c 0
 550 84 458 -6 323 -6 c 0
 286 -6 247 4 208 39 c 1
 208 39 l 1
 208 -147 l 1
 208 -147 l 1
 270 -147 l 1
 270 -194 l 1
 245 -193 192 -191 157 -191 c 0
 123 -191 68 -193 43 -194 c 1
 43 -147 l 1
208 117 m 2
 208 98 208 97 218 84 c 0
 258 30 300 30 313 30 c 0
 371 30 435 82 435 223 c 0
 435 349 384 410 324 410 c 0
 304 410 257 404 221 363 c 0
 208 349 208 348 208 329 c 2
 208 117 l 2
EndSplineSet
EndChar
StartChar: uF1F5F
Encoding: 991071 991071 51
Width: 1000
Flags: MW
LayerCount: 2
Fore
SplineSet
524 0 m 1
 524 47 l 1
 524 47 l 1
 590 47 l 1
 590 639 l 1
 524 639 l 1
 524 639 l 1
 524 686 l 1
 790 686 l 2
 894 686 941 602 941 514 c 0
 941 442 906 379 838 360 c 1
 927 342 959 264 959 186 c 0
 959 90 912 0 808 0 c 2
 524 0 l 1
690 47 m 1
 690 47 l 1
 782 47 l 2
 820 47 848 104 848 188 c 0
 848 196 847 251 836 290 c 1
 823 339 804 339 789 339 c 2
 690 339 l 1
 690 47 l 1
690 375 m 1
 764 375 l 2
 819 375 833 442 833 514 c 0
 833 645 762 639 780 639 c 2
 690 639 l 1
 690 639 l 1
 690 375 l 1
22 0 m 1
 22 47 l 1
 22 47 l 1
 82 47 l 1
 82 639 l 1
 22 639 l 1
 22 639 l 1
 22 686 l 1
 45 683 104 683 131 683 c 0
 158 683 217 683 240 686 c 1
 240 639 l 1
 240 639 l 1
 180 639 l 1
 180 338 l 1
 353 613 l 1
 362 619 357 622 366 626 c 1
 349 638 333 639 320 639 c 1
 320 686 l 1
 346 683 378 683 404 683 c 0
 433 683 447 684 464 686 c 1
 464 639 l 1
 470 639 l 1
 399 639 410 634 389 602 c 2
 277 424 l 1
 420 66 l 2
 425 53 428 47 460 47 c 2
 473 47 l 1
 473 0 l 1
 441 3 416 3 385 3 c 0
 360 3 303 3 281 0 c 1
 281 47 l 1
 291 47 328 48 322 60 c 1
 323 58 323 60 319 69 c 2
 216 330 l 1
 180 270 l 1
 180 47 l 1
 240 47 l 1
 240 47 l 1
 240 0 l 1
 217 3 158 3 131 3 c 0
 104 3 45 3 22 0 c 1
EndSplineSet
EndChar
StartChar: uF1F60
Encoding: 991072 991072 52
Width: 1000
Flags: MW
LayerCount: 2
Fore
SplineSet
524 0 m 1
 524 47 l 1
 524 47 l 1
 590 47 l 1
 590 639 l 1
 524 639 l 1
 524 639 l 1
 524 686 l 1
 790 686 l 2
 894 686 941 602 941 514 c 0
 941 442 906 379 838 360 c 1
 927 342 959 264 959 186 c 0
 959 90 912 0 808 0 c 2
 524 0 l 1
690 47 m 1
 690 47 l 1
 782 47 l 2
 820 47 848 104 848 188 c 0
 848 196 847 251 836 290 c 1
 823 339 804 339 789 339 c 2
 690 339 l 1
 690 47 l 1
690 375 m 1
 764 375 l 2
 819 375 833 442 833 514 c 0
 833 645 762 639 780 639 c 2
 690 639 l 1
 690 639 l 1
 690 375 l 1
17 0 m 5
 17 47 l 1
 25 47 l 2
 8 47 42 47 55 50 c 0
 67 53 66 54 66 76 c 2
 66 639 l 1
 17 639 l 1
 17 686 l 1
 145 686 l 2
 168 686 166 678 170 658 c 2
 249 197 l 1
 328 661 l 2
 332 686 340 686 353 686 c 2
 480 686 l 1
 480 639 l 1
 431 639 l 1
 431 47 l 1
 480 47 l 1
 480 0 l 1
 457 3 413 3 389 3 c 0
 365 3 320 3 297 0 c 1
 297 47 l 1
 347 47 l 1
 347 614 l 1
 346 614 l 1
 240 26 l 2
 236 10 238 0 224 0 c 0
 200 0 204 23 205 25 c 2
 103 594 l 1
 102 594 l 1
 102 76 l 2
 102 54 101 53 114 50 c 0
 108 50 126 47 143 47 c 2
 151 47 l 1
 151 0 l 1
 132 -2 104 3 84 3 c 0
 63 3 41 -2 17 0 c 5
EndSplineSet
EndChar
StartChar: uF1F61
Encoding: 991073 991073 53
Width: 1000
Flags: MW
LayerCount: 2
Fore
SplineSet
524 0 m 1
 524 47 l 1
 524 47 l 1
 590 47 l 1
 590 639 l 1
 524 639 l 1
 524 639 l 1
 524 686 l 1
 790 686 l 2
 894 686 941 602 941 514 c 0
 941 442 906 379 838 360 c 1
 927 342 959 264 959 186 c 0
 959 90 912 0 808 0 c 2
 524 0 l 1
690 47 m 1
 690 47 l 1
 782 47 l 2
 820 47 848 104 848 188 c 0
 848 196 847 251 836 290 c 1
 823 339 804 339 789 339 c 2
 690 339 l 1
 690 47 l 1
690 375 m 1
 764 375 l 2
 819 375 833 442 833 514 c 0
 833 645 762 639 780 639 c 2
 690 639 l 1
 690 639 l 1
 690 375 l 1
36 343 m 0
 36 575 139 697 261 697 c 0
 297 697 330 681 361 638 c 1
 399 688 l 2
 405 695 406 697 412 697 c 0
 424 697 424 688 424 669 c 2
 424 454 l 2
 424 428 423 426 405 426 c 0
 395 426 389 426 388 440 c 0
 373 600 317 650 273 650 c 0
 262 650 204 652 163 554 c 1
 134 486 141 367 141 342 c 0
 141 286 139 195 164 128 c 1
 197 46 253 36 273 36 c 0
 279 36 298 40 311 60 c 0
 314 69 326 87 326 128 c 2
 326 229 l 1
 247 229 l 1
 247 229 l 1
 247 276 l 1
 274 273 339 273 369 273 c 0
 397 273 442 273 468 276 c 1
 468 229 l 1
 424 229 l 1
 424 28 l 2
 424 13 424 0 414 0 c 0
 409 0 367 28 348 52 c 1
 350 52 338 -11 260 -11 c 0
 145 -11 36 103 36 343 c 0
EndSplineSet
EndChar
StartChar: uF1F62
Encoding: 991074 991074 54
Width: 1000
Flags: MW
LayerCount: 2
Fore
SplineSet
29 0 m 1
 29 47 l 1
 29 47 l 1
 137 47 l 1
 137 47 l 1
 137 639 l 1
 137 639 l 1
 29 639 l 1
 29 639 l 1
 29 686 l 1
 67 683 163 683 200 683 c 0
 237 683 320 683 352 686 c 1
 352 639 l 1
 352 639 l 1
 260 639 l 1
 260 639 l 1
 260 380 l 1
 507 380 l 1
 507 639 l 1
 507 639 l 1
 415 639 l 1
 415 639 l 1
 415 686 l 1
 727 686 l 2
 871 686 971 601 971 491 c 0
 971 374 855 302 736 302 c 2
 628 302 l 1
 628 47 l 1
 628 47 l 1
 720 47 l 1
 720 47 l 1
 720 0 l 1
 688 3 605 3 568 3 c 0
 531 3 447 3 415 0 c 1
 415 47 l 1
 415 47 l 1
 507 47 l 1
 507 47 l 1
 507 333 l 1
 260 333 l 1
 260 47 l 1
 260 47 l 1
 352 47 l 1
 352 47 l 1
 352 0 l 1
 320 3 237 3 200 3 c 0
 163 3 67 3 29 0 c 1
623 343 m 1
 694 343 l 2
 822 343 823 420 823 491 c 0
 823 563 823 639 695 639 c 2
 623 639 l 1
 623 639 l 1
 623 343 l 1
EndSplineSet
EndChar
StartChar: uF1F63
Encoding: 991075 991075 55
Width: 1000
Flags: MW
LayerCount: 2
Fore
SplineSet
660 22 m 4
 660 31 659 33 666 44 c 6
 872 408 l 5
 809 408 l 6
 733 408 710 372 706 269 c 5
 671 269 l 5
 680 444 l 5
 951 444 l 6
 964 444 975 444 975 423 c 4
 975 414 973 412 967 401 c 6
 763 40 l 5
 826 40 l 6
 923 40 935 101 942 202 c 5
 977 202 l 5
 964 0 l 5
 683 0 l 6
 669 0 660 0 660 22 c 4
23 0 m 5
 23 47 l 5
 23 47 l 5
 103 47 l 5
 103 47 l 5
 103 639 l 5
 103 639 l 5
 23 639 l 5
 23 639 l 5
 23 686 l 5
 51 683 123 683 155 683 c 4
 187 683 259 683 287 686 c 5
 287 639 l 5
 287 639 l 5
 208 639 l 5
 208 639 l 5
 208 380 l 5
 444 380 l 5
 444 639 l 5
 444 639 l 5
 365 639 l 5
 365 639 l 5
 365 686 l 5
 393 683 465 683 497 683 c 4
 529 683 601 683 629 686 c 5
 629 639 l 5
 629 639 l 5
 549 639 l 5
 549 639 l 5
 549 47 l 5
 549 47 l 5
 629 47 l 5
 629 47 l 5
 629 0 l 5
 601 3 529 3 497 3 c 4
 465 3 393 3 365 0 c 5
 365 47 l 5
 365 47 l 5
 444 47 l 5
 444 47 l 5
 444 333 l 5
 208 333 l 5
 208 47 l 5
 208 47 l 5
 287 47 l 5
 287 47 l 5
 287 0 l 5
 259 3 187 3 155 3 c 4
 123 3 51 3 23 0 c 5
EndSplineSet
EndChar
StartChar: uF1F64
Encoding: 991076 991076 56
Width: 1000
Flags: MW
LayerCount: 2
Fore
SplineSet
605 639 m 1
 605 686 l 1
 728 694 l 1
 728 401 l 1
 747 421 769 450 817 450 c 0
 912 450 973 356 973 223 c 0
 973 84 905 -6 808 -6 c 0
 750 -6 724 48 718 56 c 1
 680 0 l 1
 643 0 l 1
 643 600 l 2
 643 639 638 639 605 639 c 1
732 99 m 1
 732 99 l 1
 740 84 756 30 802 30 c 0
 823 30 839 41 862 82 c 1
 882 121 883 176 883 223 c 0
 883 263 883 320 865 361 c 0
 852 392 844 414 810 414 c 0
 774 414 753 385 732 350 c 1
 732 350 l 1
 732 99 l 1
27 0 m 1
 27 47 l 1
 65 47 l 1
 65 47 l 1
 65 356 l 2
 65 395 58 395 27 395 c 1
 27 442 l 1
 145 450 l 1
 145 342 l 1
 153 405 197 450 254 450 c 0
 279 450 343 447 359 354 c 1
 364 400 403 450 462 450 c 0
 497 450 522 440 542 415 c 0
 561 392 570 356 570 306 c 2
 570 47 l 1
 608 47 l 1
 608 0 l 1
 590 1 557 3 526 3 c 0
 496 3 462 1 444 0 c 1
 444 47 l 1
 481 47 l 1
 481 47 l 1
 481 317 l 2
 481 394 474 414 452 414 c 0
 412 414 362 364 362 256 c 2
 362 47 l 1
 362 47 l 1
 400 47 l 1
 400 0 l 1
 382 1 349 3 318 3 c 0
 288 3 253 1 235 0 c 1
 235 47 l 1
 273 47 l 1
 273 47 l 1
 273 317 l 2
 273 394 266 414 244 414 c 0
 204 414 154 365 154 256 c 2
 154 47 l 1
 154 47 l 1
 192 47 l 1
 192 0 l 1
 174 1 140 3 109 3 c 0
 79 3 45 1 27 0 c 1
EndSplineSet
EndChar
StartChar: uF1F65
Encoding: 991077 991077 57
Width: 1000
Flags: MW
LayerCount: 2
Fore
SplineSet
774 88 m 4
 774 105 778 122 780 133 c 6
 869 576 l 6
 873 596 877 616 880 636 c 5
 863 638 849 636 839 639 c 4
 831 641 827 647 827 659 c 4
 827 686 844 686 850 687 c 4
 876 689 923 692 944 693 c 4
 950 693 953 694 954 694 c 4
 964 694 973 690 973 674 c 4
 973 670 973 665 972 661 c 6
 864 123 l 6
 856 83 855 69 855 56 c 4
 855 35 862 26 870 26 c 4
 895 26 908 91 916 129 c 4
 918 141 921 150 923 154 c 4
 927 161 934 162 941 162 c 4
 957 162 965 159 965 146 c 4
 965 143 965 139 964 135 c 4
 958 103 947 64 929 34 c 4
 914 8 893 -11 866 -11 c 4
 821 -11 774 23 774 88 c 4
27 0 m 5
 27 47 l 5
 82 47 l 5
 82 47 l 5
 82 356 l 6
 82 395 77 395 27 395 c 5
 27 442 l 5
 165 450 l 5
 165 342 l 5
 191 405 236 450 306 450 c 4
 336 450 410 447 426 354 c 5
 447 400 489 450 562 450 c 4
 605 450 636 440 656 415 c 4
 675 392 685 356 685 306 c 6
 685 47 l 5
 741 47 l 5
 741 0 l 5
 719 1 671 3 640 3 c 4
 610 3 561 1 539 0 c 5
 539 47 l 5
 594 47 l 5
 594 47 l 5
 594 317 l 6
 594 394 576 414 549 414 c 4
 499 414 429 364 429 256 c 6
 429 47 l 5
 429 47 l 5
 485 47 l 5
 485 0 l 5
 463 1 415 3 384 3 c 4
 354 3 305 1 283 0 c 5
 283 47 l 5
 338 47 l 5
 338 47 l 5
 338 317 l 6
 338 394 320 414 293 414 c 4
 243 414 173 365 173 256 c 6
 173 47 l 5
 173 47 l 5
 229 47 l 5
 229 0 l 5
 207 1 159 3 128 3 c 4
 98 3 49 1 27 0 c 5
EndSplineSet
EndChar
StartChar: uF1F75
Encoding: 991093 991093 58
Width: 1000
Flags: MW
LayerCount: 2
Fore
SplineSet
850 78 m 0
 850 125 880 156 908 156 c 0
 939 156 966 123 966 78 c 0
 966 39 942 0 908 0 c 0
 877 0 850 33 850 78 c 0
459 0 m 1
 459 47 l 1
 459 47 l 1
 510 47 l 1
 510 639 l 1
 459 639 l 1
 459 639 l 1
 459 686 l 1
 479 683 529 683 552 683 c 0
 575 683 624 683 644 686 c 1
 644 639 l 1
 644 639 l 1
 594 639 l 1
 594 338 l 1
 741 613 l 1
 749 619 744 622 752 626 c 1
 738 638 723 639 712 639 c 1
 712 686 l 1
 734 683 762 683 784 683 c 0
 809 683 821 684 835 686 c 1
 835 639 l 1
 840 639 l 1
 780 639 789 634 771 602 c 2
 676 424 l 1
 798 66 l 2
 802 53 805 47 832 47 c 2
 843 47 l 1
 843 0 l 1
 816 3 794 3 768 3 c 0
 747 3 698 3 679 0 c 1
 679 47 l 1
 687 47 719 48 714 60 c 1
 715 58 715 60 712 69 c 2
 624 330 l 1
 594 270 l 1
 594 47 l 1
 644 47 l 1
 644 47 l 1
 644 0 l 1
 624 3 575 3 552 3 c 0
 529 3 479 3 459 0 c 1
34 0 m 1
 34 47 l 1
 34 47 l 1
 85 47 l 1
 85 639 l 1
 34 639 l 1
 34 639 l 1
 34 686 l 1
 54 683 104 683 127 683 c 0
 150 683 200 683 220 686 c 1
 220 639 l 1
 220 639 l 1
 168 639 l 1
 168 338 l 1
 316 613 l 1
 324 619 319 622 327 626 c 1
 313 638 299 639 288 639 c 1
 288 686 l 1
 310 683 337 683 359 683 c 0
 384 683 396 684 410 686 c 1
 410 639 l 1
 415 639 l 1
 355 639 364 634 346 602 c 2
 251 424 l 1
 372 66 l 2
 376 53 379 47 406 47 c 2
 418 47 l 1
 418 0 l 1
 391 3 369 3 343 3 c 0
 322 3 273 3 254 0 c 1
 254 47 l 1
 262 47 294 48 289 60 c 1
 290 58 290 60 287 69 c 2
 199 330 l 1
 168 270 l 1
 168 47 l 1
 220 47 l 1
 220 47 l 1
 220 0 l 1
 200 3 150 3 127 3 c 0
 104 3 54 3 34 0 c 1
EndSplineSet
EndChar
StartChar: uF1F77
Encoding: 991095 991095 59
Width: 1000
Flags: MW
LayerCount: 2
Fore
SplineSet
683 0 m 1
 683 31 l 1
 683 31 l 1
 735 31 l 1
 735 422 l 1
 683 422 l 1
 683 422 l 1
 683 453 l 1
 701 451 750 451 771 451 c 0
 795 451 846 451 867 453 c 1
 867 422 l 1
 867 422 l 1
 803 422 l 1
 803 31 l 1
 803 31 l 1
 852 31 l 2
 938 31 946 135 950 181 c 1
 972 181 l 1
 957 0 l 1
 683 0 l 1
352 0 m 1
 352 31 l 1
 352 31 l 1
 399 31 l 1
 399 418 l 1
 352 418 l 1
 352 418 l 1
 352 449 l 1
 622 449 l 1
 637 290 l 1
 615 290 l 1
 608 367 599 418 525 418 c 2
 466 418 l 1
 466 418 l 1
 466 248 l 1
 484 248 l 2
 528 248 531 276 531 325 c 1
 553 325 l 1
 553 140 l 1
 531 140 l 1
 531 189 528 217 484 217 c 2
 466 217 l 1
 466 31 l 1
 466 31 l 1
 525 31 l 2
 607 31 619 93 629 181 c 1
 651 181 l 1
 630 0 l 1
 352 0 l 1
28 484 m 1
 39 675 l 1
 375 675 l 1
 386 484 l 1
 360 484 l 1
 355 596 351 628 278 628 c 2
 245 628 l 1
 245 628 l 1
 245 47 l 1
 322 47 l 1
 322 47 l 1
 322 0 l 1
 295 3 237 3 207 3 c 0
 177 3 119 3 92 0 c 1
 92 47 l 1
 92 47 l 1
 169 47 l 1
 169 628 l 1
 169 628 l 1
 136 628 l 2
 63 628 58 596 53 484 c 1
 28 484 l 1
EndSplineSet
EndChar
StartChar: uF1F7D
Encoding: 991101 991101 69
Width: 1000
Flags: MW
LayerCount: 2
Fore
SplineSet
228 319 m 0
 228 382 227 504 292 582 c 0
 328 625 394 655 500 655 c 0
 595 655 658 631 694 596 c 0
 772 519 772 385 772 319 c 0
 772 252 772 128 700 52 c 0
 664 14 600 -11 500 -11 c 0
 400 -11 336 14 300 52 c 0
 228 128 228 253 228 319 c 0
358 331 m 0
 358 276 358 172 369 120 c 0
 385 47 455 25 500 25 c 0
 538 25 616 39 634 132 c 0
 643 184 642 275 642 331 c 0
 642 413 642 519 621 556 c 0
 597 600 546 619 500 619 c 0
 470 619 383 609 368 520 c 0
 358 468 358 403 358 331 c 0
831 78 m 4
 831 125 871 156 909 156 c 4
 950 156 987 123 987 78 c 4
 987 39 955 0 909 0 c 4
 868 0 831 33 831 78 c 4
EndSplineSet
EndChar
StartChar: uF1F7E
Encoding: 991102 991102 70
Width: 1000
Flags: MW
LayerCount: 2
Fore
SplineSet
289 544 m 1
 289 591 l 1
 309 591 l 2
 330 591 440 591 518 648 c 0
 527 655 529 655 540 655 c 0
 566 655 566 645 566 623 c 2
 566 47 l 5
 566 47 l 1
 711 47 l 1
 711 47 l 1
 711 0 l 1
 667 3 556 3 507 3 c 0
 458 3 344 3 300 0 c 1
 300 47 l 1
 300 47 l 1
 447 47 l 1
 447 47 l 1
 447 564 l 1
 381 545 325 544 309 544 c 2
 289 544 l 1
831 78 m 4
 831 125 871 156 909 156 c 4
 950 156 987 123 987 78 c 4
 987 39 955 0 909 0 c 4
 868 0 831 33 831 78 c 4
EndSplineSet
EndChar
StartChar: uF1F80
Encoding: 991104 991104 72
Width: 1000
Flags: MW
LayerCount: 2
Fore
SplineSet
240 139 m 0
 240 190 274 217 316 217 c 0
 360 217 392 186 392 141 c 0
 392 100 367 75 334 66 c 1
 382 36 446 32 478 32 c 0
 608 32 608 134 608 181 c 0
 608 232 607 330 471 330 c 2
 416 330 l 2
 394 330 384 330 384 348 c 0
 384 354 385 364 396 365 c 0
 402 366 405 367 456 369 c 0
 504 371 534 390 554 414 c 0
 588 455 588 511 588 519 c 0
 588 552 584 616 480 616 c 0
 449 616 409 611 376 595 c 4
 368 591 359 586 352 580 c 1
 356 579 415 568 415 510 c 0
 415 473 385 441 340 441 c 0
 302 441 272 468 272 511 c 0
 272 556 296 596 342 622 c 0
 378 642 428 655 488 655 c 0
 653 655 728 593 728 516 c 0
 728 430 655 373 581 352 c 1
 731 321 760 235 760 180 c 0
 760 89 688 -11 484 -11 c 0
 419 -11 363 0 322 21 c 0
 269 47 240 89 240 139 c 0
831 78 m 4
 831 125 871 156 909 156 c 4
 950 156 987 123 987 78 c 4
 987 39 955 0 909 0 c 4
 868 0 831 33 831 78 c 4
EndSplineSet
EndChar
StartChar: uF1F82
Encoding: 991106 991106 74
Width: 1000
Flags: MW
LayerCount: 2
Fore
SplineSet
247 159 m 0
 247 220 299 229 314 229 c 0
 338 229 381 214 381 161 c 0
 381 125 356 98 316 94 c 9
 316 94 l 21
 324 83 333 74 343 67 c 0
 384 36 437 32 461 32 c 0
 513 32 549 44 571 64 c 1
 611 100 611 158 611 205 c 0
 611 254 611 307 585 340 c 0
 569 360 542 373 500 373 c 0
 449 373 381 363 342 317 c 0
 335 309 333 305 320 305 c 0
 298 305 298 318 298 336 c 2
 298 628 l 2
 298 644 298 655 312 655 c 0
 315 655 316 654 325 651 c 0
 351 642 410 623 505 623 c 0
 559 623 622 629 679 651 c 0
 690 655 691 655 694 655 c 0
 706 655 708 644 708 637 c 0
 708 612 616 499 435 499 c 0
 393 499 379 501 351 506 c 1
 351 374 l 1
 402 406 469 409 505 409 c 0
 674 409 753 316 753 201 c 0
 753 79 655 -11 466 -11 c 0
 395 -11 340 11 303 43 c 0
 283 60 268 80 259 102 c 0
 251 120 247 140 247 159 c 0
831 78 m 4
 831 125 871 156 909 156 c 4
 950 156 987 123 987 78 c 4
 987 39 955 0 909 0 c 4
 868 0 831 33 831 78 c 4
EndSplineSet
EndChar
StartChar: uF1F84
Encoding: 991108 991108 76
Width: 1000
Flags: MW
LayerCount: 2
Fore
SplineSet
237 422 m 1
 272 676 l 1
 319 676 l 1
 321 666 322 657 343 653 c 1
 357 649 509 644 538 644 c 2
 763 644 l 1
 763 609 763 607 753 596 c 2
 587 416 l 2
 543 375 517 316 506 249 c 0
 497 202 493 154 493 106 c 2
 493 60 l 2
 493 25 480 7 465 -2 c 4
 452 -10 437 -11 430 -11 c 0
 427 -11 411 -11 396 -2 c 0
 381 7 368 24 368 59 c 0
 368 207 440 342 547 454 c 2
 616 519 l 1
 422 519 l 2
 405 519 322 519 311 513 c 0
 307 511 294 498 284 422 c 1
 237 422 l 1
831 78 m 4
 831 125 871 156 909 156 c 4
 950 156 987 123 987 78 c 4
 987 39 955 0 909 0 c 4
 868 0 831 33 831 78 c 4
EndSplineSet
EndChar
StartChar: uF1F85
Encoding: 991109 991109 77
Width: 1000
Flags: MW
LayerCount: 2
Fore
SplineSet
223 161 m 0
 223 235 267 292 361 329 c 1
 330 343 307 359 293 376 c 4
 263 412 255 450 255 480 c 0
 255 576 328 655 502 655 c 0
 644 655 745 610 745 508 c 0
 745 450 714 406 632 370 c 1
 661 357 698 340 724 314 c 0
 754 285 777 245 777 187 c 0
 777 77 697 -11 498 -11 c 0
 337 -11 223 40 223 161 c 0
309 161 m 0
 309 83 380 32 502 32 c 0
 573 32 691 48 691 132 c 0
 691 180 645 201 590 226 c 0
 521 257 463 284 419 302 c 1
 375 282 309 239 309 161 c 0
335 539 m 0
 335 505 370 488 390 479 c 2
 578 395 l 1
 633 424 665 458 665 507 c 0
 665 575 603 616 498 616 c 0
 448 616 335 609 335 539 c 0
831 78 m 4
 831 125 871 156 909 156 c 4
 950 156 987 123 987 78 c 4
 987 39 955 0 909 0 c 4
 868 0 831 33 831 78 c 4
EndSplineSet
EndChar
StartChar: uF1F86
Encoding: 991110 991110 78
Width: 1000
Flags: MW
LayerCount: 2
Fore
SplineSet
235 440 m 0
 235 510 263 567 309 604 c 1
 351 637 418 655 502 655 c 0
 764 655 765 396 765 329 c 0
 765 73 602 -11 436 -11 c 0
 395 -11 362 -4 336 7 c 0
 286 29 264 69 264 114 c 0
 264 152 288 178 327 178 c 0
 366 178 389 150 389 116 c 0
 389 71 352 57 340 54 c 1
 348 48 358 44 367 41 c 4
 391 33 417 32 434 32 c 0
 522 32 576 77 598 116 c 0
 617 150 629 209 629 282 c 2
 629 304 l 1
 581 234 523 227 479 227 c 0
 335 227 235 302 235 440 c 0
371 438 m 0
 371 384 371 338 390 306 c 0
 406 279 435 263 490 263 c 0
 595 263 628 365 628 428 c 0
 628 462 627 520 612 553 c 0
 607 563 579 616 505 616 c 0
 444 616 411 599 392 572 c 0
 371 539 371 491 371 438 c 0
831 78 m 4
 831 125 871 156 909 156 c 4
 950 156 987 123 987 78 c 4
 987 39 955 0 909 0 c 4
 868 0 831 33 831 78 c 4
EndSplineSet
EndChar
StartChar: uF1F9C
Encoding: 991132 991132 15
Width: 1000
Flags: MW
LayerCount: 2
Fore
SplineSet
380 0 m 1
 380 47 l 1
 450 47 l 1
 450 47 l 1
 450 356 l 2
 450 395 443 395 384 395 c 1
 384 442 l 1
 558 450 l 1
 558 47 l 5
 558 47 l 1
 620 47 l 1
 620 0 l 1
 584 1 532 3 502 3 c 0
 460 3 411 1 380 0 c 1
412 617 m 0
 412 660 447 695 490 695 c 0
 532 695 568 661 568 617 c 0
 568 573 532 539 490 539 c 0
 447 539 412 574 412 617 c 0
EndSplineSet
EndChar
StartChar: uF1F9D
Encoding: 991133 991133 16
Width: 1000
Flags: MW
LayerCount: 2
Fore
SplineSet
240 0 m 1
 240 47 l 1
 310 47 l 1
 310 47 l 1
 310 356 l 2
 310 395 303 395 244 395 c 1
 244 442 l 1
 418 450 l 1
 418 47 l 5
 418 47 l 1
 480 47 l 1
 480 0 l 1
 444 1 392 3 362 3 c 0
 320 3 271 1 240 0 c 1
272 617 m 0
 272 660 307 695 350 695 c 0
 392 695 428 661 428 617 c 0
 428 573 392 539 350 539 c 0
 307 539 272 574 272 617 c 0
520 0 m 1
 520 47 l 1
 590 47 l 1
 590 47 l 1
 590 356 l 2
 590 395 583 395 524 395 c 1
 524 442 l 1
 698 450 l 1
 698 47 l 5
 698 47 l 1
 760 47 l 1
 760 0 l 1
 724 1 672 3 642 3 c 0
 600 3 551 1 520 0 c 1
552 617 m 0
 552 660 587 695 630 695 c 0
 672 695 708 661 708 617 c 0
 708 573 672 539 630 539 c 0
 587 539 552 574 552 617 c 0
EndSplineSet
EndChar
StartChar: uF1F9E
Encoding: 991134 991134 17
Width: 1000
Flags: MW
LayerCount: 2
Fore
SplineSet
100 0 m 1
 100 47 l 1
 170 47 l 1
 170 47 l 1
 170 356 l 2
 170 395 163 395 104 395 c 1
 104 442 l 1
 278 450 l 1
 278 47 l 5
 278 47 l 1
 340 47 l 1
 340 0 l 1
 304 1 252 3 222 3 c 0
 180 3 131 1 100 0 c 1
132 617 m 0
 132 660 167 695 210 695 c 0
 252 695 288 661 288 617 c 0
 288 573 252 539 210 539 c 0
 167 539 132 574 132 617 c 0
380 0 m 1
 380 47 l 1
 450 47 l 1
 450 47 l 1
 450 356 l 2
 450 395 443 395 384 395 c 1
 384 442 l 1
 558 450 l 1
 558 47 l 5
 558 47 l 1
 620 47 l 1
 620 0 l 1
 584 1 532 3 502 3 c 0
 460 3 411 1 380 0 c 1
412 617 m 0
 412 660 447 695 490 695 c 0
 532 695 568 661 568 617 c 0
 568 573 532 539 490 539 c 0
 447 539 412 574 412 617 c 0
660 0 m 1
 660 47 l 1
 730 47 l 1
 730 47 l 1
 730 356 l 2
 730 395 723 395 664 395 c 1
 664 442 l 1
 838 450 l 1
 838 47 l 5
 838 47 l 1
 900 47 l 1
 900 0 l 1
 864 1 812 3 782 3 c 0
 740 3 691 1 660 0 c 1
692 617 m 0
 692 660 727 695 770 695 c 0
 812 695 848 661 848 617 c 0
 848 573 812 539 770 539 c 0
 727 539 692 574 692 617 c 0
EndSplineSet
EndChar
StartChar: uF1F9F
Encoding: 991135 991135 18
Width: 1000
Flags: MW
LayerCount: 2
Fore
SplineSet
142 0 m 1
 142 47 l 1
 212 47 l 1
 212 47 l 1
 212 356 l 2
 212 395 205 395 146 395 c 1
 146 442 l 1
 320 450 l 1
 320 47 l 1
 320 47 l 1
 382 47 l 1
 382 0 l 1
 346 1 294 3 264 3 c 0
 222 3 173 1 142 0 c 1
174 617 m 0
 174 660 209 695 252 695 c 0
 294 695 330 661 330 617 c 0
 330 573 294 539 252 539 c 0
 209 539 174 574 174 617 c 0
384 397 m 1
 384 444 l 1
 425 443 470 441 498 441 c 0
 499 441 589 442 622 444 c 1
 622 397 l 1
 568 397 l 1
 568 397 l 1
 654 148 l 1
 732 374 l 2
 736 385 736 385 736 386 c 0
 736 394 707 397 688 397 c 1
 688 444 l 1
 709 443 755 441 780 441 c 0
 805 441 833 442 858 444 c 1
 858 397 l 1
 794 397 789 390 784 376 c 2
 658 20 l 2
 653 -3 639 -4 622 -4 c 0
 609 -4 596 -4 584 21 c 2
 448 397 l 1
 448 397 l 1
 384 397 l 1
EndSplineSet
EndChar
StartChar: uF1FA0
Encoding: 991136 991136 19
Width: 1000
Flags: MW
LayerCount: 2
Fore
SplineSet
223 397 m 1
 223 444 l 1
 264 443 309 441 337 441 c 0
 338 441 428 442 461 444 c 1
 461 397 l 1
 407 397 l 1
 407 397 l 1
 534 124 l 1
 650 374 l 2
 655 384 655 385 655 386 c 0
 655 394 626 397 607 397 c 1
 607 444 l 1
 628 443 673 441 698 441 c 0
 723 441 752 442 777 444 c 1
 777 397 l 1
 713 397 709 390 703 376 c 2
 537 20 l 2
 527 -1 517 -4 500 -4 c 0
 487 -4 474 -4 462 21 c 2
 287 397 l 1
 287 397 l 1
 223 397 l 1
EndSplineSet
EndChar
StartChar: uF1FA1
Encoding: 991137 991137 20
Width: 1000
Flags: MW
LayerCount: 2
Fore
SplineSet
132 397 m 5
 132 444 l 5
 173 443 218 441 246 441 c 4
 247 441 337 442 370 444 c 5
 370 397 l 5
 316 397 l 5
 316 397 l 5
 402 148 l 5
 478 374 l 6
 482 385 484 385 484 386 c 4
 484 394 455 397 436 397 c 5
 436 444 l 5
 457 443 501 441 526 441 c 4
 551 441 581 442 606 444 c 5
 606 397 l 5
 542 397 537 390 532 376 c 6
 406 20 l 6
 401 -3 385 -4 368 -4 c 4
 355 -4 342 -4 330 21 c 6
 196 397 l 5
 196 397 l 5
 132 397 l 5
628 0 m 1
 628 47 l 1
 698 47 l 1
 698 47 l 1
 698 356 l 2
 698 395 691 395 632 395 c 1
 632 442 l 1
 806 450 l 1
 806 47 l 5
 806 47 l 1
 868 47 l 1
 868 0 l 1
 832 1 780 3 750 3 c 0
 708 3 659 1 628 0 c 1
660 617 m 0
 660 660 695 695 738 695 c 0
 780 695 816 661 816 617 c 0
 816 573 780 539 738 539 c 0
 695 539 660 574 660 617 c 0
EndSplineSet
EndChar
StartChar: uF1FA2
Encoding: 991138 991138 21
Width: 1000
Flags: MW
LayerCount: 2
Fore
SplineSet
12 397 m 1
 12 444 l 1
 53 443 78 441 106 441 c 0
 107 441 197 442 230 444 c 1
 230 397 l 1
 176 397 l 1
 176 397 l 1
 262 148 l 1
 338 374 l 2
 342 385 344 385 344 386 c 0
 344 394 315 397 296 397 c 1
 296 444 l 1
 317 443 361 441 386 441 c 0
 411 441 421 442 446 444 c 1
 446 397 l 1
 382 397 397 390 392 376 c 2
 266 20 l 2
 261 -3 245 -4 228 -4 c 0
 215 -4 202 -4 190 21 c 2
 56 397 l 1
 56 397 l 1
 12 397 l 1
468 0 m 1
 468 47 l 1
 538 47 l 1
 538 47 l 1
 538 356 l 2
 538 395 531 395 472 395 c 1
 472 442 l 1
 646 450 l 1
 646 47 l 1
 646 47 l 1
 708 47 l 1
 708 0 l 1
 672 1 620 3 590 3 c 0
 548 3 499 1 468 0 c 1
500 617 m 0
 500 660 535 695 578 695 c 0
 620 695 656 661 656 617 c 0
 656 573 620 539 578 539 c 0
 535 539 500 574 500 617 c 0
748 0 m 1
 748 47 l 1
 818 47 l 1
 818 47 l 1
 818 356 l 2
 818 395 811 395 752 395 c 1
 752 442 l 1
 926 450 l 1
 926 47 l 1
 926 47 l 1
 988 47 l 1
 988 0 l 1
 952 1 900 3 870 3 c 0
 828 3 779 1 748 0 c 1
780 617 m 0
 780 660 815 695 858 695 c 0
 900 695 936 661 936 617 c 0
 936 573 900 539 858 539 c 0
 815 539 780 574 780 617 c 0
EndSplineSet
EndChar
StartChar: uF1FA3
Encoding: 991139 991139 22
Width: 1000
Flags: MW
LayerCount: 2
Fore
SplineSet
6 397 m 1
 6 444 l 1
 47 443 52 441 80 441 c 0
 81 441 141 442 174 444 c 1
 174 397 l 1
 140 397 l 1
 140 397 l 1
 193 158 l 1
 244 374 l 2
 247 385 246 385 246 386 c 0
 246 394 239 397 220 397 c 1
 220 444 l 1
 241 443 267 441 292 441 c 0
 317 441 305 442 330 444 c 1
 330 397 l 1
 300 397 300 390 296 376 c 2
 206 20 l 2
 201 -3 185 -4 168 -4 c 0
 155 -4 136 -6 130 21 c 2
 30 397 l 1
 30 397 l 1
 6 397 l 1
354 0 m 1
 354 47 l 1
 404 47 l 1
 404 47 l 1
 404 356 l 2
 404 395 402 395 358 395 c 1
 358 442 l 1
 512 450 l 1
 512 47 l 1
 512 47 l 1
 554 47 l 1
 554 0 l 1
 518 1 486 3 456 3 c 0
 414 3 385 1 354 0 c 1
366 617 m 0
 366 660 401 695 444 695 c 0
 486 695 522 661 522 617 c 0
 522 573 486 539 444 539 c 0
 401 539 366 574 366 617 c 0
574 0 m 1
 574 47 l 1
 624 47 l 1
 624 47 l 1
 624 356 l 2
 624 395 622 395 578 395 c 1
 578 442 l 1
 732 450 l 1
 732 47 l 1
 732 47 l 1
 774 47 l 1
 774 0 l 1
 738 1 706 3 676 3 c 0
 634 3 605 1 574 0 c 1
586 617 m 0
 586 660 621 695 664 695 c 0
 706 695 742 661 742 617 c 0
 742 573 706 539 664 539 c 0
 621 539 586 574 586 617 c 0
794 0 m 1
 794 47 l 1
 844 47 l 1
 844 47 l 1
 844 356 l 2
 844 395 840 395 798 395 c 1
 798 442 l 1
 952 450 l 1
 952 47 l 1
 952 47 l 1
 994 47 l 1
 994 0 l 1
 958 1 926 3 896 3 c 0
 854 3 825 1 794 0 c 1
806 617 m 0
 806 660 841 695 884 695 c 0
 926 695 962 661 962 617 c 0
 962 573 926 539 884 539 c 0
 841 539 806 574 806 617 c 0
EndSplineSet
EndChar
StartChar: uF1FA4
Encoding: 991140 991140 23
Width: 1000
Flags: MW
LayerCount: 2
Fore
SplineSet
129 0 m 1
 129 47 l 1
 199 47 l 1
 199 47 l 1
 199 356 l 2
 199 395 192 395 133 395 c 1
 133 442 l 1
 307 450 l 1
 307 47 l 1
 307 47 l 1
 369 47 l 1
 369 0 l 1
 333 1 281 3 251 3 c 0
 209 3 160 1 129 0 c 1
161 617 m 0
 161 660 196 695 239 695 c 0
 281 695 317 661 317 617 c 0
 317 573 281 539 239 539 c 0
 196 539 161 574 161 617 c 0
387 0 m 1
 387 47 l 1
 435 47 477 47 489 66 c 2
 579 209 l 1
 463 397 l 1
 463 397 l 1
 393 397 l 1
 393 444 l 1
 426 443 471 441 503 441 c 0
 535 441 597 443 623 444 c 1
 623 397 l 1
 583 397 l 1
 583 397 l 1
 640 304 l 1
 685 376 l 2
 690 379 686 383 690 389 c 1
 678 396 669 397 655 397 c 1
 655 444 l 1
 683 443 734 441 759 441 c 0
 764 441 816 442 851 444 c 1
 851 397 l 1
 768 397 764 388 749 376 c 2
 671 254 l 1
 799 47 l 1
 871 47 l 1
 871 0 l 1
 838 1 793 3 761 3 c 0
 728 3 667 1 641 0 c 1
 641 47 l 1
 679 47 l 1
 679 47 l 1
 610 158 l 1
 553 68 l 2
 548 59 548 59 548 58 c 0
 548 52 565 47 583 47 c 1
 583 0 l 1
 563 1 504 3 479 3 c 0
 474 3 422 2 387 0 c 1
EndSplineSet
EndChar
StartChar: uF1FF6
Encoding: 991222 991222 60
Width: 1000
Flags: MW
LayerCount: 2
Fore
SplineSet
373 0 m 1
 373 47 l 1
 442 47 l 1
 442 47 l 1
 442 356 l 2
 442 395 435 395 373 395 c 1
 373 442 l 1
 545 450 l 1
 545 342 l 1
 571 393 624 450 720 450 c 0
 772 450 812 439 838 414 c 0
 862 391 874 356 874 306 c 2
 874 47 l 1
 943 47 l 1
 943 0 l 1
 915 1 856 3 817 3 c 0
 779 3 719 1 691 0 c 1
 691 47 l 1
 760 47 l 1
 760 47 l 1
 760 317 l 2
 760 393 739 414 705 414 c 0
 642 414 556 365 556 256 c 2
 556 47 l 1
 556 47 l 1
 625 47 l 1
 625 0 l 1
 597 1 538 3 499 3 c 0
 461 3 401 1 373 0 c 1
57 0 m 1
 57 47 l 1
 126 47 l 1
 126 47 l 1
 126 356 l 2
 126 395 119 395 60 395 c 1
 60 442 l 1
 234 450 l 1
 234 47 l 5
 234 47 l 1
 296 47 l 1
 296 0 l 1
 260 1 209 3 179 3 c 0
 137 3 88 1 57 0 c 1
88 617 m 0
 88 660 123 695 166 695 c 0
 208 695 244 661 244 617 c 0
 244 573 208 539 166 539 c 0
 123 539 88 574 88 617 c 0
EndSplineSet
EndChar
StartChar: uF1FFB
Encoding: 991227 991227 62
Width: 1000
Flags: MW
LayerCount: 2
Fore
SplineSet
504 0 m 1
 504 48 l 1
 534 48 l 1
 534 378 l 2
 534 411 532 407 504 407 c 1
 504 449 l 1
 611 455 l 1
 611 345 l 1
 627 409 658 455 704 455 c 0
 720 455 778 457 790 360 c 1
 805 411 825 455 871 455 c 0
 895 455 931 451 947 421 c 0
 957 406 966 367 966 338 c 2
 966 48 l 1
 996 48 l 1
 996 0 l 1
 984 1 946 3 923 3 c 0
 901 3 864 1 852 0 c 1
 852 48 l 1
 883 48 l 1
 883 337 l 2
 883 426 868 425 860 425 c 0
 830 425 792 381 792 269 c 2
 792 48 l 1
 823 48 l 1
 823 0 l 1
 811 1 773 3 750 3 c 0
 728 3 690 1 678 0 c 1
 678 48 l 1
 709 48 l 1
 709 337 l 2
 709 426 702 425 694 425 c 0
 664 425 618 381 618 269 c 2
 618 48 l 1
 649 48 l 1
 649 0 l 1
 637 1 599 3 576 3 c 0
 554 3 516 1 504 0 c 1
4 0 m 1
 4 48 l 1
 34 48 l 1
 34 378 l 2
 34 411 32 407 4 407 c 1
 4 449 l 1
 111 455 l 1
 111 345 l 1
 127 409 158 455 204 455 c 0
 220 455 278 457 290 360 c 1
 305 411 325 455 371 455 c 0
 395 455 431 451 447 421 c 0
 457 406 466 367 466 338 c 2
 466 48 l 1
 496 48 l 1
 496 0 l 1
 484 1 446 3 423 3 c 0
 401 3 364 1 352 0 c 1
 352 48 l 1
 383 48 l 1
 383 337 l 2
 383 426 368 425 360 425 c 0
 330 425 292 381 292 269 c 2
 292 48 l 1
 323 48 l 1
 323 0 l 1
 311 1 273 3 250 3 c 0
 228 3 190 1 178 0 c 1
 178 48 l 1
 209 48 l 1
 209 337 l 2
 209 426 202 425 194 425 c 0
 164 425 118 381 118 269 c 2
 118 48 l 1
 149 48 l 1
 149 0 l 1
 137 1 99 3 76 3 c 0
 54 3 16 1 4 0 c 1
685 565 m 4
 685 599 711 622 743 622 c 4
 775 622 800 599 800 565 c 4
 800 537 784 523 776 517 c 5
 796 512 818 511 828 511 c 4
 873 511 882 534 882 566 c 4
 882 613 860 621 834 623 c 4
 828 623 822 623 816 623 c 4
 801 623 800 625 796 630 c 5
 793 636 794 643 798 647 c 4
 809 657 834 644 854 667 c 4
 865 680 869 697 869 713 c 4
 869 734 863 751 831 751 c 4
 812 751 798 748 780 740 c 5
 783 738 786 736 790 734 c 4
 802 726 814 713 814 691 c 4
 814 660 790 639 762 639 c 4
 734 639 710 659 710 692 c 4
 710 704 712 716 720 729 c 4
 736 757 771 781 834 781 c 4
 932 781 972 745 972 710 c 4
 972 670 940 651 906 638 c 5
 946 630 996 609 996 566 c 4
 996 531 960 478 833 478 c 4
 713 478 685 530 685 565 c 4
EndSplineSet
EndChar
StartChar: uF1FFC
Encoding: 991228 991228 63
Width: 1000
Flags: MW
LayerCount: 2
Fore
SplineSet
413 0 m 1
 413 47 l 1
 449 47 l 1
 449 47 l 1
 449 356 l 2
 449 395 446 395 413 395 c 5
 413 442 l 1
 527 450 l 1
 527 342 l 5
 534 405 577 450 632 450 c 0
 656 450 718 447 733 354 c 5
 743 400 776 450 833 450 c 0
 866 450 891 440 910 415 c 0
 928 392 937 356 937 306 c 2
 937 47 l 1
 973 47 l 1
 973 0 l 1
 955 1 923 3 894 3 c 0
 865 3 833 1 815 0 c 1
 815 47 l 1
 851 47 l 1
 851 47 l 1
 851 317 l 2
 851 394 844 414 823 414 c 0
 784 414 736 364 736 256 c 2
 736 47 l 1
 736 47 l 1
 772 47 l 1
 772 0 l 1
 754 1 722 3 693 3 c 0
 664 3 632 1 614 0 c 1
 614 47 l 1
 650 47 l 1
 650 47 l 1
 650 317 l 2
 650 394 643 414 622 414 c 0
 583 414 535 365 535 256 c 2
 535 47 l 1
 535 47 l 1
 572 47 l 1
 572 0 l 1
 554 1 521 3 492 3 c 0
 463 3 431 1 413 0 c 1
27 0 m 1
 27 47 l 1
 63 47 l 1
 63 47 l 1
 63 600 l 2
 63 639 66 639 27 639 c 1
 27 686 l 1
 145 694 l 1
 145 237 l 1
 257 386 l 1
 257 386 l 1
 252 394 250 397 236 397 c 1
 236 444 l 1
 250 443 291 441 308 441 c 0
 324 441 340 441 357 444 c 1
 357 397 l 1
 315 397 310 390 301 379 c 2
 219 278 l 1
 219 278 l 1
 325 67 l 2
 333 51 335 47 362 47 c 2
 373 47 l 1
 373 0 l 1
 352 2 331 3 308 3 c 0
 305 3 250 2 231 0 c 1
 231 47 l 1
 239 47 250 47 250 56 c 0
 250 59 240 79 234 91 c 2
 171 217 l 1
 158 203 163 197 141 174 c 1
 141 47 l 1
 141 47 l 1
 178 47 l 1
 178 0 l 1
 155 1 130 3 102 3 c 0
 75 3 50 1 27 0 c 1
685 565 m 4
 685 599 711 622 743 622 c 4
 775 622 800 599 800 565 c 4
 800 537 784 523 776 517 c 5
 796 512 818 511 828 511 c 4
 873 511 882 534 882 566 c 4
 882 613 860 621 834 623 c 4
 828 623 822 623 816 623 c 4
 801 623 800 625 796 630 c 5
 793 636 794 643 798 647 c 4
 809 657 834 644 854 667 c 4
 865 680 869 697 869 713 c 4
 869 734 863 751 831 751 c 4
 812 751 798 748 780 740 c 5
 783 738 786 736 790 734 c 4
 802 726 814 713 814 691 c 4
 814 660 790 639 762 639 c 4
 734 639 710 659 710 692 c 4
 710 704 712 716 720 729 c 4
 736 757 771 781 834 781 c 4
 932 781 972 745 972 710 c 4
 972 670 940 651 906 638 c 5
 946 630 996 609 996 566 c 4
 996 531 960 478 833 478 c 4
 713 478 685 530 685 565 c 4
EndSplineSet
EndChar
StartChar: uF1FFD
Encoding: 991229 991229 64
Width: 1000
Flags: MW
LayerCount: 2
Fore
SplineSet
678 222 m 0
 678 338 727 453 846 453 c 0
 870 453 907 451 933 429 c 0
 950 415 961 394 961 361 c 0
 961 319 940 298 919 298 c 0
 901 298 878 317 878 361 c 0
 878 370 880 391 892 407 c 1
 883 410 871 413 848 413 c 0
 763 413 763 283 763 227 c 0
 763 181 763 34 855 34 c 0
 889 34 921 53 938 116 c 0
 941 129 942 131 954 131 c 0
 961 131 970 131 970 117 c 0
 970 110 950 -6 843 -6 c 0
 741 -6 678 89 678 222 c 0
326 225 m 0
 326 350 383 453 489 453 c 0
 535 453 570 435 595 399 c 0
 628 349 632 276 632 245 c 0
 632 218 626 218 611 218 c 2
 411 218 l 1
 411 186 410 123 433 80 c 0
 447 53 469 34 505 34 c 0
 548 34 585 66 599 114 c 0
 603 130 605 135 616 135 c 0
 619 135 632 135 632 117 c 0
 632 100 604 -6 499 -6 c 0
 392 -6 326 91 326 225 c 0
411 251 m 1
 569 251 l 1
 568 286 567 417 489 417 c 0
 470 417 443 405 426 365 c 0
 412 332 412 290 411 251 c 1
30 22 m 2
 30 131 l 2
 30 154 30 160 46 160 c 0
 55 160 59 160 62 146 c 1
 70 103 87 30 157 30 c 0
 172 30 233 30 233 105 c 0
 233 164 183 177 159 183 c 0
 108 197 83 203 57 238 c 0
 44 255 30 282 30 322 c 0
 30 453 132 453 152 453 c 0
 178 453 202 447 219 434 c 1
 226 439 230 443 234 445 c 0
 245 453 247 453 249 453 c 0
 261 453 261 444 261 425 c 2
 261 345 l 2
 261 322 261 317 245 317 c 0
 231 317 231 322 230 337 c 0
 229 364 221 384 209 398 c 0
 196 413 178 421 152 421 c 0
 139 421 77 421 77 359 c 0
 77 312 120 301 145 294 c 0
 197 281 218 275 244 246 c 1
 267 218 280 183 280 140 c 0
 280 -6 178 -6 157 -6 c 0
 144 -6 109 -6 79 26 c 1
 77 24 63 9 62 9 c 0
 48 -6 47 -6 42 -6 c 0
 30 -6 30 3 30 22 c 2
EndSplineSet
EndChar
StartChar: uF1FFE
Encoding: 991230 991230 65
Width: 1000
Flags: MW
LayerCount: 2
Fore
SplineSet
678 0 m 1
 678 47 l 1
 704 47 l 1
 704 47 l 1
 704 356 l 2
 704 395 702 395 678 395 c 1
 678 442 l 1
 772 450 l 1
 772 352 l 1
 789 403 805 450 853 450 c 0
 879 450 899 439 916 414 c 0
 932 391 940 356 940 306 c 2
 940 47 l 1
 966 47 l 1
 966 0 l 1
 952 1 928 3 902 3 c 0
 877 3 853 1 839 0 c 1
 839 47 l 1
 864 47 l 1
 864 47 l 1
 864 317 l 2
 864 393 863 414 846 414 c 0
 814 414 779 365 779 256 c 2
 779 47 l 1
 779 47 l 1
 805 47 l 1
 805 0 l 1
 791 1 768 3 742 3 c 0
 717 3 692 1 678 0 c 1
518 0 m 1
 518 47 l 1
 547 47 l 1
 547 47 l 1
 547 356 l 2
 547 395 545 395 520 395 c 1
 520 442 l 1
 618 450 l 1
 618 47 l 1
 618 47 l 1
 639 47 l 1
 639 0 l 1
 621 1 602 3 582 3 c 0
 555 3 534 1 518 0 c 1
522 617 m 0
 522 660 544 695 573 695 c 0
 600 695 625 661 625 617 c 0
 625 573 600 539 573 539 c 0
 544 539 522 574 522 617 c 0
34 0 m 1
 34 47 l 1
 60 47 l 1
 60 47 l 1
 60 356 l 2
 60 395 58 395 34 395 c 5
 34 442 l 1
 128 450 l 1
 128 352 l 1
 138 415 166 450 210 450 c 0
 229 450 281 457 294 364 c 1
 303 410 325 450 371 450 c 0
 398 450 417 446 434 421 c 0
 450 398 458 356 458 306 c 2
 458 47 l 1
 484 47 l 1
 484 0 l 1
 470 1 446 3 420 3 c 0
 395 3 370 1 356 0 c 1
 356 47 l 1
 382 47 l 1
 382 47 l 1
 382 317 l 2
 382 394 380 414 363 414 c 0
 332 414 297 364 297 256 c 2
 297 47 l 1
 297 47 l 1
 322 47 l 1
 322 0 l 1
 308 1 285 3 259 3 c 0
 234 3 209 1 195 0 c 1
 195 47 l 1
 221 47 l 1
 221 47 l 1
 221 317 l 2
 221 394 219 414 202 414 c 0
 171 414 136 365 136 256 c 2
 136 47 l 1
 136 47 l 1
 161 47 l 1
 161 0 l 1
 147 1 124 3 98 3 c 0
 73 3 48 1 34 0 c 1
EndSplineSet
EndChar
StartChar: uF2000
Encoding: 991232 991232 66
Width: 1000
Flags: MW
LayerCount: 2
Fore
SplineSet
753 88 m 0
 754 105 759 122 762 133 c 2
 873 576 l 2
 878 596 884 616 888 636 c 1
 873 638 859 636 850 639 c 0
 843 641 839 647 840 659 c 0
 842 686 858 686 863 687 c 0
 887 689 931 692 950 693 c 0
 955 693 958 694 959 694 c 0
 968 694 977 690 976 674 c 0
 976 670 974 665 973 661 c 2
 839 123 l 2
 829 83 827 69 826 56 c 0
 825 35 831 26 838 26 c 0
 861 26 877 91 887 129 c 0
 890 141 893 150 895 154 c 0
 899 161 905 162 912 162 c 0
 927 162 934 159 933 146 c 0
 933 143 932 139 931 135 c 0
 923 103 911 64 893 34 c 0
 877 8 857 -11 832 -11 c 0
 791 -11 749 23 753 88 c 0
356 150 m 0
 365 294 456 456 575 456 c 0
 604 456 626 443 645 416 c 1
 656 428 666 435 679 435 c 0
 696 435 712 421 710 393 c 0
 710 390 709 388 708 384 c 0
 704 363 692 315 644 126 c 0
 640 108 632 79 631 57 c 0
 629 30 637 26 643 26 c 0
 668 26 687 106 695 138 c 0
 701 162 708 162 720 162 c 2
 720 162 l 2
 730 162 739 161 738 145 c 0
 738 141 725 84 701 40 c 0
 692 24 680 9 668 0 c 0
 658 -8 647 -11 636 -11 c 0
 608 -11 580 4 564 41 c 1
 539 15 506 -11 463 -11 c 0
 417 -11 348 21 356 150 c 0
432 97 m 0
 428 38 453 26 470 26 c 0
 504 26 546 68 558 97 c 9
 558 97 l 17
 573 157 612 309 620 346 c 0
 621 350 622 353 622 354 c 0
 623 369 613 419 573 419 c 0
 546 419 519 391 501 357 c 0
 477 310 436 153 432 97 c 0
25 159 m 0
 34 300 129 456 264 456 c 0
 319 456 355 417 351 360 c 0
 348 316 322 282 293 282 c 0
 273 282 258 300 260 328 c 0
 261 349 272 383 302 396 c 1
 293 408 282 419 261 419 c 0
 254 419 220 418 185 375 c 0
 172 359 161 337 151 312 c 0
 118 231 104 123 103 113 c 0
 99 54 122 25 161 25 c 0
 203 25 255 47 295 96 c 0
 296 97 309 116 316 116 c 0
 325 116 337 96 336 86 c 0
 335 66 275 -11 156 -11 c 0
 68 -11 18 49 25 159 c 0
EndSplineSet
EndChar
StartChar: uF2001
Encoding: 991233 991233 67
Width: 1000
Flags: MW
LayerCount: 2
Fore
SplineSet
822 88 m 0
 823 105 826 122 828 133 c 2
 904 576 l 2
 908 596 911 616 914 636 c 1
 903 638 898 636 892 639 c 0
 887 641 883 647 884 659 c 0
 885 686 897 686 901 687 c 0
 919 689 950 692 964 693 c 0
 968 693 970 694 971 694 c 0
 977 694 983 690 982 674 c 0
 982 670 982 665 981 661 c 2
 889 123 l 2
 882 83 880 69 879 56 c 0
 878 36 884 26 889 26 c 0
 902 26 912 91 919 129 c 0
 921 141 923 150 924 154 c 0
 927 161 932 162 937 162 c 0
 948 162 953 159 952 146 c 0
 952 143 951 139 950 135 c 0
 944 103 936 64 923 34 c 0
 912 8 897 -11 879 -11 c 0
 849 -11 819 19 822 88 c 0
535 150 m 0
 542 294 607 456 693 456 c 0
 714 456 726 443 740 416 c 1
 748 428 758 435 768 435 c 0
 780 435 791 421 790 393 c 0
 790 390 790 388 789 384 c 0
 786 363 778 315 743 126 c 0
 740 108 734 79 733 57 c 0
 732 30 738 26 742 26 c 0
 760 26 774 106 780 138 c 0
 784 162 788 162 797 162 c 2
 798 162 l 2
 805 162 812 161 811 145 c 0
 811 141 802 84 784 40 c 0
 777 24 770 9 761 0 c 0
 754 -8 745 -11 737 -11 c 0
 717 -11 695 4 683 41 c 1
 665 15 643 -11 612 -11 c 0
 578 -11 529 21 535 150 c 0
597 97 m 0
 594 38 610 26 621 26 c 0
 643 26 670 68 678 97 c 9
 678 97 l 17
 688 157 714 309 719 346 c 0
 720 350 720 353 720 354 c 0
 721 369 714 419 688 419 c 0
 670 419 653 391 641 357 c 0
 625 310 600 153 597 97 c 0
296 159 m 0
 303 300 370 456 468 456 c 0
 508 456 534 417 531 360 c 0
 529 316 510 282 489 282 c 0
 475 282 460 300 461 328 c 0
 462 349 469 383 489 396 c 1
 484 408 476 419 462 419 c 0
 458 419 434 418 412 375 c 0
 404 359 397 337 391 312 c 0
 369 231 359 123 359 113 c 0
 356 54 372 25 397 25 c 0
 424 25 458 47 484 96 c 0
 485 97 494 116 506 116 c 0
 517 116 520 96 520 86 c 0
 519 66 476 -11 390 -11 c 0
 327 -11 291 49 296 159 c 0
18 0 m 1
 18 47 l 1
 52 47 l 1
 52 47 l 1
 52 600 l 2
 52 639 49 639 18 639 c 1
 18 686 l 1
 107 694 l 1
 107 237 l 1
 202 386 l 1
 202 386 l 1
 198 394 197 397 185 397 c 1
 185 444 l 1
 197 443 229 441 243 441 c 0
 256 441 268 441 282 444 c 1
 282 397 l 1
 248 397 244 390 237 379 c 2
 171 278 l 1
 171 278 l 1
 257 67 l 2
 263 51 266 47 287 47 c 2
 295 47 l 1
 295 0 l 1
 278 2 261 3 243 3 c 0
 241 3 196 2 181 0 c 1
 181 47 l 1
 187 47 197 47 197 56 c 0
 197 59 189 79 184 91 c 2
 133 217 l 1
 123 203 118 197 104 174 c 1
 104 47 l 1
 104 47 l 1
 139 47 l 1
 139 0 l 1
 121 1 97 3 79 3 c 0
 61 3 36 1 18 0 c 1
EndSplineSet
EndChar
StartChar: uF2002
Encoding: 991234 991234 68
Width: 1000
Flags: MW
LayerCount: 2
Fore
SplineSet
524 0 m 1
 524 47 l 1
 524 47 l 1
 590 47 l 1
 590 639 l 1
 524 639 l 1
 524 639 l 1
 524 686 l 1
 790 686 l 2
 894 686 941 602 941 514 c 0
 941 442 906 379 838 360 c 1
 927 342 959 264 959 186 c 0
 959 90 912 0 808 0 c 2
 524 0 l 1
690 47 m 1
 690 47 l 1
 782 47 l 2
 820 47 848 104 848 188 c 0
 848 196 847 251 836 290 c 1
 823 339 804 339 789 339 c 2
 690 339 l 1
 690 47 l 1
690 375 m 1
 764 375 l 2
 819 375 833 442 833 514 c 0
 833 645 762 639 780 639 c 2
 690 639 l 1
 690 639 l 1
 690 375 l 1
43 221 m 0
 43 362 135 450 262 450 c 0
 291 450 315 444 359 405 c 1
 359 600 l 2
 359 639 349 639 319 639 c 1
 319 686 l 1
 453 694 l 1
 453 86 l 2
 453 47 465 47 494 47 c 1
 494 0 l 1
 354 -6 l 1
 354 43 l 1
 327 18 305 -6 252 -6 c 0
 123 -6 43 89 43 221 c 0
155 221 m 0
 155 180 155 122 176 80 c 0
 192 51 217 30 261 30 c 0
 327 30 343 85 354 103 c 1
 354 103 l 1
 354 353 l 1
 354 353 l 1
 335 382 320 414 270 414 c 0
 243 414 202 404 177 362 c 0
 154 323 155 269 155 221 c 0
EndSplineSet
EndChar
StartChar: uF2021
Encoding: 991265 991265 10
Width: 1000
Flags: MW
LayerCount: 2
Fore
SplineSet
411 420 m 1
 622 47 l 1
 712 47 l 1
 712 47 l 1
 712 47 l 1
 712 639 l 1
 712 639 l 1
 598 639 l 1
 598 639 l 0
 563 636 534 640 525 624 c 2
 411 420 l 1
32 0 m 1
 32 47 l 1
 60 47 l 2
 80 47 82 48 102 50 c 0
 134 53 137 54 144 67 c 2
 296 329 l 1
 124 639 l 1
 46 639 l 1
 46 639 l 1
 46 686 l 1
 81 683 148 683 188 683 c 0
 233 683 309 683 350 686 c 1
 350 639 l 1
 286 639 l 1
 286 639 l 1
 379 474 l 1
 462 617 l 2
 464 620 469 626 470 628 c 1
 435 639 396 639 378 639 c 1
 378 686 l 1
 414 683 491 683 530 683 c 0
 573 683 737 683 783 683 c 0
 829 683 927 683 968 686 c 1
 968 639 l 1
 968 639 l 1
 854 639 l 1
 854 639 l 1
 854 47 l 1
 854 47 l 1
 968 47 l 1
 968 47 l 1
 968 0 l 1
 927 3 829 3 783 3 c 0
 737 3 590 3 550 3 c 0
 505 3 431 3 390 0 c 1
 390 47 l 1
 452 47 l 1
 452 47 l 1
 328 272 l 1
 214 69 l 2
 212 65 207 60 206 58 c 1
 241 47 260 47 278 47 c 1
 278 0 l 1
 242 3 185 3 146 3 c 0
 103 3 74 3 32 0 c 1
EndSplineSet
EndChar
StartChar: uF2022
Encoding: 991266 991266 11
Width: 1000
Flags: MW
LayerCount: 2
Fore
SplineSet
701 47 m 1
 701 47 l 1
 739 47 l 1
 777 47 l 1
 777 47 l 1
 777 639 l 1
 777 639 l 1
 739 639 l 1
 701 639 l 1
 701 639 l 1
 701 47 l 1
347 422 m 1
 529 47 l 1
 544 47 l 1
 559 47 l 1
 559 47 l 1
 559 639 l 1
 559 639 l 1
 549 639 l 1
 521 639 515 638 491 636 c 0
 456 633 453 634 445 618 c 2
 347 422 l 1
7 0 m 1
 7 47 l 1
 15 47 l 2
 35 47 37 48 57 50 c 0
 89 53 92 54 99 67 c 2
 231 327 l 1
 79 639 l 1
 21 639 l 1
 21 639 l 1
 21 686 l 1
 56 683 103 683 143 683 c 0
 188 683 264 683 305 686 c 1
 305 639 l 1
 241 639 l 1
 241 639 l 1
 313 491 l 1
 377 617 l 2
 378 620 384 626 385 628 c 1
 350 639 351 639 333 639 c 1
 333 686 l 1
 369 683 406 683 445 683 c 0
 488 683 802 683 848 683 c 0
 894 683 952 683 993 686 c 1
 993 639 l 1
 993 639 l 1
 919 639 l 1
 919 639 l 1
 919 47 l 1
 919 47 l 1
 993 47 l 1
 993 47 l 1
 993 0 l 1
 952 3 894 3 848 3 c 0
 802 3 505 3 465 3 c 0
 420 3 356 3 315 0 c 1
 315 47 l 1
 367 47 l 1
 367 47 l 1
 264 258 l 1
 169 69 l 2
 167 65 162 60 161 58 c 1
 196 47 225 47 243 47 c 1
 243 0 l 1
 207 3 140 3 101 3 c 0
 58 3 49 3 7 0 c 1
EndSplineSet
EndChar
StartChar: uF2067
Encoding: 991335 991335 12
Width: 1000
Flags: MW
LayerCount: 2
Fore
SplineSet
770 50 m 1
 770 50 l 1
 814 50 l 1
 814 50 l 1
 814 642 l 1
 814 642 l 1
 770 642 l 1
 770 642 l 1
 770 50 l 1
604 50 m 1
 604 50 l 1
 648 50 l 1
 648 50 l 1
 648 642 l 1
 648 642 l 1
 604 642 l 1
 604 642 l 1
 604 50 l 1
298 423 m 1
 461 50 l 1
 471 50 l 1
 482 50 l 1
 482 639 l 1
 482 639 l 1
 462 639 l 1
 446 639 418 638 406 636 c 0
 392 634 384 634 378 618 c 2
 298 423 l 1
10 0 m 1
 10 47 l 1
 18 47 l 2
 26 47 40 48 50 50 c 0
 66 53 76 53 82 67 c 2
 190 323 l 1
 62 639 l 1
 24 639 l 1
 24 639 l 1
 24 686 l 1
 59 683 86 683 126 683 c 0
 171 683 187 683 228 686 c 1
 228 639 l 1
 204 639 l 1
 204 639 l 1
 264 504 l 1
 310 617 l 2
 311 620 312 625 312 630 c 1
 309 636 304 639 286 639 c 1
 286 686 l 1
 322 683 339 683 378 683 c 0
 421 683 818 686 864 686 c 0
 910 686 949 686 990 689 c 1
 990 642 l 1
 990 642 l 1
 936 642 l 1
 936 642 l 1
 936 50 l 1
 936 50 l 1
 990 50 l 1
 990 50 l 1
 990 3 l 1
 949 6 910 6 864 6 c 0
 818 6 438 3 398 3 c 0
 353 3 299 3 258 0 c 1
 258 47 l 1
 300 47 l 1
 300 47 l 1
 222 239 l 1
 152 69 l 2
 151 66 149 60 148 58 c 1
 148 50 178 47 196 47 c 1
 196 0 l 1
 160 3 123 3 84 3 c 0
 41 3 52 3 10 0 c 1
EndSplineSet
EndChar
StartChar: uF2068
Encoding: 991336 991336 13
Width: 1000
Flags: MW
LayerCount: 2
Fore
SplineSet
283 447 m 1
 438 47 l 1
 452 47 l 1
 472 47 l 1
 472 47 l 1
 472 639 l 1
 472 639 l 1
 458 639 l 5
 458 639 l 1
 430 639 424 638 400 636 c 0
 365 633 361 635 354 618 c 2
 283 447 l 1
6 0 m 1
 6 47 l 1
 14 47 l 2
 22 47 30 48 36 50 c 0
 45 53 54 58 58 67 c 2
 170 338 l 1
 58 639 l 1
 20 639 l 1
 20 639 l 1
 20 686 l 1
 55 683 82 683 122 683 c 0
 167 683 193 683 234 686 c 1
 234 639 l 1
 210 639 l 1
 210 639 l 1
 250 533 l 1
 286 617 l 2
 287 620 287 627 288 629 c 1
 286 636 280 639 262 639 c 1
 262 686 l 1
 298 683 315 683 354 683 c 0
 397 683 677 683 716 683 c 0
 759 683 796 683 834 686 c 1
 834 639 l 1
 800 639 l 1
 800 639 l 1
 847 314 l 1
 894 615 l 2
 894 618 896 627 896 631 c 0
 896 639 879 639 870 639 c 1
 870 686 l 1
 884 683 903 683 922 683 c 0
 949 683 965 684 994 686 c 1
 994 639 l 1
 976 639 l 2
 960 639 954 631 952 617 c 2
 846 16 l 2
 842 -10 822 -8 806 -8 c 0
 778 -8 770 -1 766 18 c 2
 650 639 l 1
 634 639 l 1
 614 639 l 1
 614 639 l 1
 614 47 l 1
 614 47 l 1
 688 47 l 1
 688 47 l 1
 688 0 l 1
 647 3 588 3 542 3 c 0
 496 3 414 3 374 3 c 0
 329 3 279 3 238 0 c 1
 238 47 l 1
 280 47 l 1
 280 47 l 1
 202 252 l 1
 128 69 l 2
 126 65 123 54 122 52 c 1
 128 47 154 47 172 47 c 1
 172 0 l 1
 136 3 99 3 60 3 c 0
 17 3 48 3 6 0 c 1
EndSplineSet
EndChar
StartChar: uF2069
Encoding: 991337 991337 14
Width: 1000
Flags: MW
LayerCount: 2
Fore
SplineSet
6 0 m 1
 6 47 l 1
 24 47 l 2
 44 47 41 48 61 50 c 0
 93 53 96 54 103 67 c 2
 233 332 l 1
 83 639 l 1
 15 639 l 1
 15 639 l 1
 15 686 l 1
 50 683 107 683 147 683 c 0
 192 683 248 683 289 686 c 1
 289 639 l 1
 235 639 l 1
 235 639 l 1
 308 488 l 1
 371 617 l 2
 372 620 374 626 375 628 c 1
 350 639 335 639 317 639 c 1
 317 686 l 1
 353 683 400 683 439 683 c 0
 482 683 512 683 551 683 c 0
 594 683 660 683 698 686 c 1
 698 639 l 1
 634 639 l 1
 634 639 l 1
 753 199 l 1
 869 615 l 2
 870 618 871 623 871 627 c 0
 871 639 824 639 815 639 c 1
 815 686 l 1
 854 683 876 683 916 683 c 0
 943 683 956 685 994 686 c 1
 994 639 l 1
 975 639 l 2
 946 639 931 631 927 617 c 2
 751 16 l 2
 744 -9 727 -8 711 -8 c 0
 683 -8 677 -1 671 18 c 2
 485 636 l 1
 485 636 l 1
 470 635 461 634 455 633 c 0
 447 631 443 627 439 618 c 2
 343 419 l 1
 523 47 l 1
 591 47 l 1
 591 47 l 1
 591 0 l 1
 556 3 499 3 459 3 c 0
 414 3 350 3 309 0 c 1
 309 47 l 1
 371 47 l 1
 371 47 l 1
 267 262 l 1
 173 69 l 2
 171 65 170 60 169 58 c 1
 201 47 219 47 237 47 c 1
 237 0 l 1
 201 3 144 3 105 3 c 0
 62 3 48 3 6 0 c 1
EndSplineSet
EndChar
StartChar: uF206A
Encoding: 991338 991338 25
Width: 1000
Flags: MW
LayerCount: 2
Fore
SplineSet
129 0 m 5
 129 47 l 5
 177 47 219 47 231 66 c 6
 321 209 l 5
 205 397 l 5
 205 397 l 5
 135 397 l 5
 135 444 l 5
 168 443 213 441 245 441 c 4
 277 441 339 443 365 444 c 5
 365 397 l 5
 325 397 l 5
 325 397 l 5
 382 304 l 5
 427 376 l 6
 432 379 428 383 432 389 c 5
 420 396 411 397 397 397 c 5
 397 444 l 5
 425 443 476 441 501 441 c 4
 506 441 558 442 593 444 c 5
 593 397 l 5
 510 397 506 388 491 376 c 6
 413 254 l 5
 541 47 l 5
 613 47 l 5
 613 0 l 5
 580 1 535 3 503 3 c 4
 470 3 409 1 383 0 c 5
 383 47 l 5
 421 47 l 5
 421 47 l 5
 352 158 l 5
 295 68 l 6
 290 59 290 59 290 58 c 4
 290 52 307 47 325 47 c 5
 325 0 l 5
 305 1 246 3 221 3 c 4
 216 3 164 2 129 0 c 5
631 0 m 1
 631 47 l 1
 701 47 l 1
 701 47 l 1
 701 356 l 2
 701 395 694 395 635 395 c 1
 635 442 l 1
 809 450 l 1
 809 47 l 5
 809 47 l 1
 871 47 l 1
 871 0 l 1
 835 1 783 3 753 3 c 0
 711 3 662 1 631 0 c 1
663 617 m 0
 663 660 698 695 741 695 c 0
 783 695 819 661 819 617 c 0
 819 573 783 539 741 539 c 0
 698 539 663 574 663 617 c 0
EndSplineSet
EndChar
StartChar: uF206B
Encoding: 991339 991339 26
Width: 1000
Flags: MW
LayerCount: 2
Fore
SplineSet
9 0 m 1
 9 47 l 1
 57 47 89 47 101 66 c 2
 191 209 l 1
 75 397 l 1
 75 397 l 1
 15 397 l 1
 15 444 l 1
 48 443 83 441 115 441 c 0
 147 441 209 443 235 444 c 1
 235 397 l 1
 195 397 l 1
 195 397 l 1
 252 304 l 1
 297 376 l 2
 302 379 298 383 302 389 c 1
 290 396 281 397 267 397 c 1
 267 444 l 1
 295 443 346 441 371 441 c 0
 376 441 418 442 453 444 c 1
 453 397 l 1
 370 397 376 388 361 376 c 2
 283 254 l 1
 411 47 l 1
 473 47 l 1
 473 0 l 1
 440 1 405 3 373 3 c 0
 340 3 279 1 253 0 c 1
 253 47 l 1
 291 47 l 1
 291 47 l 1
 222 158 l 1
 165 68 l 2
 160 59 160 59 160 58 c 0
 160 52 177 47 195 47 c 1
 195 0 l 1
 175 1 116 3 91 3 c 0
 86 3 44 2 9 0 c 1
491 0 m 1
 491 47 l 1
 561 47 l 1
 561 47 l 1
 561 356 l 2
 561 395 554 395 495 395 c 1
 495 442 l 1
 669 450 l 1
 669 47 l 1
 669 47 l 1
 731 47 l 1
 731 0 l 1
 695 1 643 3 613 3 c 0
 571 3 522 1 491 0 c 1
523 617 m 0
 523 660 558 695 601 695 c 0
 643 695 679 661 679 617 c 0
 679 573 643 539 601 539 c 0
 558 539 523 574 523 617 c 0
751 0 m 1
 751 47 l 1
 821 47 l 1
 821 47 l 1
 821 356 l 2
 821 395 814 395 755 395 c 1
 755 442 l 1
 929 450 l 1
 929 47 l 1
 929 47 l 1
 991 47 l 1
 991 0 l 1
 955 1 903 3 873 3 c 0
 831 3 782 1 751 0 c 1
783 617 m 0
 783 660 818 695 861 695 c 0
 903 695 939 661 939 617 c 0
 939 573 903 539 861 539 c 0
 818 539 783 574 783 617 c 0
EndSplineSet
EndChar
StartChar: uF206C
Encoding: 991340 991340 27
Width: 1000
Flags: MW
LayerCount: 2
Fore
SplineSet
4 0 m 1
 4 47 l 1
 52 47 59 48 66 66 c 2
 124 209 l 1
 40 397 l 1
 40 397 l 1
 10 397 l 1
 10 444 l 1
 43 443 48 441 80 441 c 0
 112 441 144 443 170 444 c 1
 170 397 l 1
 150 397 l 1
 150 397 l 1
 176 338 l 1
 192 376 l 2
 194 381 196 383 197 389 c 1
 197 395 196 397 182 397 c 1
 182 444 l 1
 210 443 241 441 266 441 c 0
 271 441 283 442 318 444 c 1
 318 397 l 1
 264 397 263 393 256 376 c 2
 210 263 l 1
 306 47 l 1
 338 47 l 1
 338 0 l 1
 305 1 300 3 268 3 c 0
 235 3 204 1 178 0 c 1
 178 47 l 1
 196 47 l 1
 196 47 l 1
 157 134 l 1
 130 68 l 2
 128 63 125 59 125 58 c 0
 125 52 126 47 140 47 c 1
 140 0 l 1
 120 1 81 3 56 3 c 0
 51 3 39 2 4 0 c 1
356 0 m 1
 356 47 l 1
 406 47 l 1
 406 47 l 1
 406 356 l 2
 406 395 405 395 360 395 c 1
 360 442 l 1
 514 450 l 1
 514 47 l 1
 514 47 l 1
 556 47 l 1
 556 0 l 1
 520 1 488 3 458 3 c 0
 416 3 387 1 356 0 c 1
368 617 m 0
 368 660 403 695 446 695 c 0
 488 695 524 661 524 617 c 0
 524 573 488 539 446 539 c 0
 403 539 368 574 368 617 c 0
576 0 m 1
 576 47 l 1
 626 47 l 1
 626 47 l 1
 626 356 l 2
 626 395 624 395 580 395 c 1
 580 442 l 1
 734 450 l 1
 734 47 l 1
 734 47 l 1
 776 47 l 1
 776 0 l 1
 740 1 708 3 678 3 c 0
 636 3 607 1 576 0 c 1
588 617 m 0
 588 660 623 695 666 695 c 0
 708 695 744 661 744 617 c 0
 744 573 708 539 666 539 c 0
 623 539 588 574 588 617 c 0
796 0 m 1
 796 47 l 1
 846 47 l 1
 846 47 l 1
 846 356 l 2
 846 395 844 395 800 395 c 1
 800 442 l 1
 954 450 l 1
 954 47 l 1
 954 47 l 1
 996 47 l 1
 996 0 l 1
 960 1 928 3 898 3 c 0
 856 3 827 1 796 0 c 1
808 617 m 0
 808 660 843 695 886 695 c 0
 928 695 964 661 964 617 c 0
 964 573 928 539 886 539 c 0
 843 539 808 574 808 617 c 0
EndSplineSet
EndChar
StartChar: uF206D
Encoding: 991341 991341 28
Width: 1000
Flags: MW
LayerCount: 2
Fore
SplineSet
10 0 m 1
 10 47 l 1
 58 47 60 47 72 66 c 2
 162 209 l 1
 46 397 l 1
 46 397 l 1
 16 397 l 1
 16 444 l 1
 49 443 54 441 86 441 c 0
 118 441 180 443 206 444 c 1
 206 397 l 1
 166 397 l 1
 166 397 l 1
 223 304 l 1
 268 376 l 2
 273 379 269 383 273 389 c 1
 261 396 252 397 238 397 c 1
 238 444 l 1
 266 443 317 441 342 441 c 0
 347 441 359 442 394 444 c 1
 394 397 l 1
 352 397 347 388 332 376 c 2
 254 254 l 1
 382 47 l 1
 414 47 l 1
 414 0 l 1
 381 1 376 3 344 3 c 0
 311 3 250 1 224 0 c 1
 224 47 l 1
 262 47 l 1
 262 47 l 1
 193 158 l 1
 136 68 l 2
 131 59 131 59 131 58 c 0
 131 52 148 47 166 47 c 1
 166 0 l 1
 146 1 87 3 62 3 c 0
 57 3 45 2 10 0 c 1
432 0 m 1
 432 47 l 1
 482 47 l 1
 482 47 l 1
 482 356 l 2
 482 395 479 395 436 395 c 1
 436 442 l 1
 590 450 l 1
 590 47 l 1
 590 47 l 1
 632 47 l 1
 632 0 l 1
 596 1 564 3 534 3 c 0
 492 3 463 1 432 0 c 1
444 617 m 0
 444 660 479 695 522 695 c 0
 564 695 600 661 600 617 c 0
 600 573 564 539 522 539 c 0
 479 539 444 574 444 617 c 0
636 397 m 1
 636 444 l 1
 677 443 682 441 710 441 c 0
 711 441 781 442 814 444 c 1
 814 397 l 1
 780 397 l 1
 780 397 l 1
 844 172 l 1
 903 374 l 2
 906 385 906 388 906 389 c 0
 906 397 899 397 880 397 c 1
 880 444 l 1
 901 443 926 441 951 441 c 0
 976 441 965 442 990 444 c 1
 990 397 l 1
 960 397 960 390 956 376 c 2
 850 20 l 2
 844 -3 830 -4 813 -4 c 0
 800 -4 787 -4 775 21 c 2
 660 397 l 1
 660 397 l 1
 636 397 l 1
EndSplineSet
EndChar
StartChar: uF206E
Encoding: 991342 991342 29
Width: 1000
Flags: MW
LayerCount: 2
Fore
SplineSet
20 0 m 1
 20 47 l 1
 68 47 110 47 122 66 c 2
 212 209 l 1
 96 397 l 1
 96 397 l 1
 26 397 l 1
 26 444 l 1
 59 443 104 441 136 441 c 0
 168 441 230 443 256 444 c 1
 256 397 l 1
 216 397 l 1
 216 397 l 1
 273 304 l 1
 318 376 l 2
 323 379 319 383 323 389 c 1
 311 396 302 397 288 397 c 1
 288 444 l 1
 316 443 367 441 392 441 c 0
 397 441 449 442 484 444 c 1
 484 397 l 1
 401 397 397 388 382 376 c 2
 304 254 l 1
 432 47 l 1
 504 47 l 1
 504 0 l 1
 471 1 426 3 394 3 c 0
 361 3 300 1 274 0 c 1
 274 47 l 1
 312 47 l 1
 312 47 l 1
 243 158 l 1
 186 68 l 2
 181 59 181 59 181 58 c 0
 181 52 198 47 216 47 c 1
 216 0 l 1
 196 1 137 3 112 3 c 0
 107 3 55 2 20 0 c 1
506 397 m 1
 506 444 l 1
 547 443 592 441 620 441 c 0
 621 441 711 442 744 444 c 1
 744 397 l 1
 690 397 l 1
 690 397 l 1
 776 148 l 1
 853 374 l 2
 857 385 858 385 858 386 c 0
 858 394 829 397 810 397 c 1
 810 444 l 1
 831 443 876 441 901 441 c 0
 926 441 955 442 980 444 c 1
 980 397 l 1
 916 397 911 390 906 376 c 2
 780 20 l 2
 775 -3 760 -4 743 -4 c 0
 730 -4 717 -4 705 21 c 2
 570 397 l 1
 570 397 l 1
 506 397 l 1
EndSplineSet
EndChar
StartChar: uF206F
Encoding: 991343 991343 79
Width: 1000
Flags: MW
LayerCount: 2
Fore
SplineSet
55 0 m 1
 55 47 l 1
 124 47 l 1
 124 47 l 1
 124 356 l 2
 124 395 117 395 55 395 c 1
 55 442 l 1
 227 450 l 1
 227 342 l 1
 259 405 316 450 403 450 c 0
 441 450 533 447 553 354 c 1
 579 400 631 450 722 450 c 0
 775 450 815 440 840 415 c 0
 864 392 876 356 876 306 c 2
 876 47 l 1
 945 47 l 1
 945 0 l 1
 917 1 858 3 819 3 c 0
 781 3 721 1 693 0 c 1
 693 47 l 1
 762 47 l 1
 762 47 l 5
 762 317 l 2
 762 394 740 414 706 414 c 0
 644 414 557 364 557 256 c 2
 557 47 l 1
 557 47 l 1
 626 47 l 1
 626 0 l 1
 598 1 539 3 500 3 c 0
 462 3 402 1 374 0 c 1
 374 47 l 1
 443 47 l 1
 443 47 l 1
 443 317 l 2
 443 394 421 414 387 414 c 0
 325 414 238 365 238 256 c 2
 238 47 l 1
 238 47 l 1
 307 47 l 1
 307 0 l 1
 279 1 220 3 181 3 c 0
 143 3 83 1 55 0 c 1
EndSplineSet
EndChar
StartChar: uF2070
Encoding: 991344 991344 80
Width: 1000
Flags: MW
LayerCount: 2
Fore
SplineSet
237 -75 m 0
 237 -12 310 9 323 12 c 1
 283 44 279 93 279 108 c 0
 279 129 285 162 313 197 c 1
 281 220 261 261 261 302 c 0
 261 372 316 450 460 450 c 0
 534 450 576 429 594 417 c 1
 638 452 685 455 700 455 c 0
 746 455 763 420 763 397 c 0
 763 373 746 354 720 354 c 0
 694 354 677 372 677 397 c 0
 677 403 679 412 681 417 c 1
 679 417 676 416 673 416 c 4
 661 415 643 411 619 398 c 1
 634 382 659 349 659 302 c 0
 659 232 604 154 460 154 c 0
 435 154 384 156 338 180 c 1
 332 172 328 157 328 147 c 0
 328 129 339 91 383 84 c 0
 388 83 434 83 460 83 c 0
 556 83 616 83 672 55 c 0
 739 21 747 -42 747 -72 c 0
 747 -142 669 -201 492 -201 c 0
 292 -201 237 -126 237 -75 c 0
323 -73 m 0
 323 -119 372 -165 492 -165 c 0
 622 -165 661 -111 661 -75 c 0
 661 -13 548 -13 517 -13 c 2
 400 -13 l 2
 386 -13 323 -13 323 -73 c 0
372 302 m 0
 372 257 372 190 460 190 c 0
 500 190 522 204 534 223 c 0
 548 246 548 278 548 302 c 0
 548 347 548 414 460 414 c 0
 426 414 405 404 392 389 c 0
 372 366 372 329 372 302 c 0
EndSplineSet
EndChar
StartChar: uF2071
Encoding: 991345 991345 81
Width: 1000
Flags: MW
LayerCount: 2
Fore
SplineSet
318 0 m 1
 318 47 l 1
 318 47 l 1
 426 47 l 1
 426 47 l 1
 426 633 l 1
 426 633 l 1
 318 633 l 1
 318 633 l 1
 318 680 l 1
 923 680 l 1
 954 439 l 1
 907 439 l 1
 892 556 869 633 708 633 c 2
 568 633 l 1
 568 633 l 1
 568 364 l 1
 618 364 l 2
 715 364 723 407 723 481 c 1
 770 481 l 1
 770 200 l 1
 723 200 l 1
 723 274 714 317 618 317 c 2
 568 317 l 1
 568 47 l 1
 568 47 l 1
 703 47 l 1
 703 47 l 1
 703 0 l 1
 659 3 550 3 501 3 c 0
 457 3 356 3 318 0 c 1
46 559 m 0
 46 631 96 686 174 686 c 0
 251 686 301 631 301 558 c 0
 301 485 251 431 173 431 c 0
 96 431 46 485 46 559 c 0
107 558 m 0
 107 514 135 492 173 492 c 0
 215 492 240 516 240 559 c 0
 240 602 212 625 174 625 c 0
 132 625 107 601 107 558 c 0
EndSplineSet
EndChar
StartChar: uF2072
Encoding: 991346 991346 82
Width: 1000
Flags: MW
LayerCount: 2
Fore
SplineSet
524 0 m 1
 524 47 l 1
 524 47 l 1
 590 47 l 1
 590 639 l 1
 524 639 l 1
 524 639 l 1
 524 686 l 1
 790 686 l 2
 894 686 941 602 941 514 c 0
 941 442 906 379 838 360 c 1
 927 342 959 264 959 186 c 0
 959 90 912 0 808 0 c 2
 524 0 l 1
690 47 m 1
 690 47 l 1
 782 47 l 2
 820 47 848 104 848 188 c 0
 848 196 847 251 836 290 c 1
 823 339 804 339 789 339 c 2
 690 339 l 1
 690 47 l 1
690 375 m 1
 764 375 l 2
 819 375 833 442 833 514 c 0
 833 645 762 639 780 639 c 2
 690 639 l 1
 690 639 l 1
 690 375 l 1
26 434 m 1
 40 675 l 1
 460 675 l 1
 474 434 l 1
 442 434 l 1
 436 546 430 628 339 628 c 2
 298 628 l 1
 298 628 l 1
 298 47 l 1
 394 47 l 1
 394 47 l 1
 394 0 l 1
 360 3 288 3 250 3 c 0
 212 3 141 3 107 0 c 1
 107 47 l 1
 107 47 l 1
 203 47 l 1
 203 628 l 1
 203 628 l 1
 161 628 l 2
 70 628 64 546 58 434 c 1
 26 434 l 1
EndSplineSet
EndChar
StartChar: uF2073
Encoding: 991347 991347 83
Width: 1000
Flags: MW
LayerCount: 2
Fore
SplineSet
679 0 m 1
 679 47 l 1
 689 47 l 2
 690 47 700 47 709 49 c 0
 716 50 723 53 728 57 c 1
 805 329 l 1
 722 639 l 1
 685 639 l 1
 685 639 l 1
 685 686 l 1
 701 683 733 683 750 683 c 0
 768 683 806 683 822 686 c 1
 822 639 l 1
 790 639 l 1
 790 639 l 1
 841 451 l 1
 887 616 l 1
 890 628 l 1
 876 639 860 639 853 639 c 1
 853 686 l 1
 869 683 897 683 914 683 c 0
 931 683 951 685 968 686 c 1
 968 639 l 1
 957 639 l 2
 945 639 944 639 933 636 c 0
 920 633 920 632 915 617 c 2
 854 401 l 1
 949 47 l 1
 987 47 l 1
 987 47 l 1
 987 0 l 1
 970 3 938 3 921 3 c 0
 903 3 865 3 849 0 c 1
 849 47 l 1
 881 47 l 1
 881 47 l 1
 819 279 l 1
 758 64 l 1
 757 58 l 1
 770 47 785 47 793 47 c 1
 793 0 l 1
 776 3 750 3 733 3 c 0
 716 3 696 1 679 0 c 1
348 0 m 1
 348 47 l 1
 352 47 352 47 357 47 c 1
 379 49 387 53 390 70 c 2
 482 672 l 2
 487 702 494 698 500 698 c 0
 509 698 513 696 517 672 c 2
 614 47 l 1
 651 47 l 1
 651 47 l 1
 651 0 l 1
 634 3 602 3 583 3 c 0
 564 3 525 3 508 0 c 1
 508 47 l 1
 545 47 l 1
 545 47 l 1
 526 176 l 1
 432 176 l 1
 416 70 l 2
 414 57 414 59 414 58 c 0
 414 46 444 47 449 47 c 1
 449 0 l 1
 440 0 417 3 396 3 c 0
 377 3 360 1 348 0 c 1
439 224 m 1
 518 224 l 1
 478 480 l 1
 439 224 l 1
18 0 m 1
 18 47 l 1
 18 47 l 1
 68 47 l 1
 68 633 l 1
 18 633 l 1
 18 633 l 1
 18 680 l 1
 296 680 l 1
 311 439 l 1
 288 439 l 1
 281 553 272 633 195 633 c 2
 138 633 l 1
 138 633 l 1
 138 364 l 1
 155 364 l 2
 201 364 204 406 204 481 c 1
 227 481 l 1
 227 200 l 1
 204 200 l 1
 204 275 201 317 155 317 c 2
 138 317 l 1
 138 47 l 1
 201 47 l 1
 201 47 l 1
 201 0 l 1
 180 3 128 3 105 3 c 0
 84 3 36 3 18 0 c 1
EndSplineSet
EndChar
StartChar: uF2690
Encoding: 992912 992912 84
Width: 1000
Flags: MW
LayerCount: 2
Fore
SplineSet
289 319 m 0
 289 382 289 504 346 582 c 0
 377 625 426 655 500 655 c 0
 566 655 612 631 643 596 c 0
 711 519 711 385 711 319 c 0
 711 252 710 128 647 52 c 0
 616 14 570 -11 500 -11 c 0
 430 -11 384 14 353 52 c 0
 290 128 289 253 289 319 c 0
401 331 m 0
 401 276 401 172 409 120 c 0
 420 47 469 25 500 25 c 0
 526 25 581 39 593 132 c 0
 599 184 599 275 599 331 c 0
 599 413 600 519 585 556 c 0
 568 600 532 619 500 619 c 0
 479 619 418 609 408 520 c 0
 401 468 401 403 401 331 c 0
EndSplineSet
EndChar
StartChar: uF2691
Encoding: 992913 992913 85
Width: 1000
Flags: MW
LayerCount: 2
Fore
SplineSet
324 544 m 1
 324 591 l 1
 341 591 l 2
 359 591 450 591 517 648 c 0
 525 655 526 655 536 655 c 0
 559 655 558 645 558 623 c 2
 558 47 l 1
 680 47 l 5
 680 47 l 1
 680 0 l 1
 642 3 550 3 507 3 c 0
 464 3 372 3 334 0 c 1
 334 47 l 1
 334 47 l 1
 455 47 l 1
 455 564 l 1
 404 545 355 544 341 544 c 2
 324 544 l 1
EndSplineSet
EndChar
StartChar: uF2692
Encoding: 992914 992914 86
Width: 1000
Flags: MW
LayerCount: 2
Fore
SplineSet
300 0 m 1
 300 18 l 2
 300 38 300 40 311 52 c 2
 486 257 l 2
 547 328 580 396 580 465 c 0
 580 540 540 608 465 608 c 0
 434 608 400 597 375 573 c 1
 378 572 383 571 386 569 c 4
 403 561 425 543 425 501 c 0
 425 451 390 429 362 429 c 0
 341 429 300 444 300 503 c 0
 300 593 382 655 487 655 c 0
 610 655 700 581 700 466 c 0
 700 371 644 324 545 240 c 0
 506 207 461 164 420 125 c 1
 548 125 l 2
 562 125 627 125 637 131 c 0
 649 138 656 202 659 222 c 1
 700 222 l 1
 673 0 l 1
 300 0 l 1
EndSplineSet
EndChar
StartChar: uF2693
Encoding: 992915 992915 87
Width: 1000
Flags: MW
LayerCount: 2
Fore
SplineSet
292 139 m 0
 292 190 322 217 359 217 c 0
 397 217 425 186 425 141 c 0
 425 100 404 75 375 66 c 1
 417 36 461 32 484 32 c 0
 575 32 575 134 575 181 c 0
 575 232 575 330 480 330 c 2
 442 330 l 2
 426 330 417 330 417 348 c 0
 417 354 419 364 428 365 c 0
 432 366 434 367 470 369 c 0
 503 371 523 390 537 414 c 4
 561 455 561 511 561 519 c 0
 561 552 558 616 486 616 c 0
 459 616 420 608 390 580 c 1
 393 579 441 568 441 510 c 0
 441 473 419 441 380 441 c 0
 347 441 320 468 320 511 c 0
 320 591 387 655 491 655 c 0
 614 655 680 593 680 516 c 0
 680 430 617 373 557 352 c 1
 683 321 708 235 708 180 c 0
 708 89 645 -11 489 -11 c 0
 377 -11 292 49 292 139 c 0
EndSplineSet
EndChar
StartChar: uF2694
Encoding: 992916 992916 88
Width: 1000
Flags: MW
LayerCount: 2
Fore
SplineSet
278 156 m 1
 278 203 l 1
 582 640 l 2
 592 655 594 656 612 656 c 0
 636 656 638 651 638 624 c 2
 638 203 l 1
 722 203 l 1
 722 156 l 1
 638 156 l 1
 638 47 l 1
 722 47 l 5
 722 47 l 1
 722 0 l 1
 692 3 616 3 581 3 c 0
 544 3 464 3 431 0 c 1
 431 47 l 1
 431 47 l 1
 529 47 l 1
 529 156 l 1
 278 156 l 1
323 203 m 1
 538 203 l 1
 538 513 l 1
 323 203 l 1
EndSplineSet
EndChar
StartChar: uF2695
Encoding: 992917 992917 89
Width: 1000
Flags: MW
LayerCount: 2
Fore
SplineSet
300 159 m 0
 300 220 345 229 358 229 c 0
 379 229 416 214 416 161 c 0
 416 125 397 103 372 96 c 0
 369 95 364 94 360 94 c 1
 397 37 451 32 472 32 c 0
 509 32 533 44 549 64 c 5
 577 100 577 158 577 205 c 0
 577 254 576 307 558 340 c 0
 547 360 529 373 499 373 c 0
 463 373 416 363 382 317 c 0
 376 309 374 305 363 305 c 0
 344 305 344 318 344 336 c 2
 344 628 l 2
 344 644 344 655 356 655 c 0
 359 655 360 654 368 651 c 0
 391 642 437 623 503 623 c 0
 540 623 586 629 636 651 c 0
 646 655 646 655 649 655 c 0
 659 655 661 644 661 637 c 0
 661 612 581 499 454 499 c 0
 424 499 414 501 390 506 c 1
 390 374 l 1
 431 406 478 409 503 409 c 0
 632 409 700 316 700 201 c 0
 700 79 615 -11 476 -11 c 0
 368 -11 300 74 300 159 c 0
EndSplineSet
EndChar
StartChar: uF2696
Encoding: 992918 992918 90
Width: 1000
Flags: MW
LayerCount: 2
Fore
SplineSet
292 317 m 0
 292 569 436 655 554 655 c 0
 646 655 683 592 683 530 c 0
 683 492 662 466 628 466 c 0
 594 466 574 494 574 528 c 0
 574 558 590 585 621 590 c 1
 601 613 572 616 556 616 c 0
 503 616 456 580 435 533 c 0
 429 518 410 475 410 361 c 2
 410 342 l 1
 447 418 496 418 515 418 c 0
 620 418 708 345 708 205 c 0
 708 71 624 -11 503 -11 c 0
 442 -11 376 13 335 89 c 1
 299 158 292 238 292 317 c 0
412 210 m 0
 412 192 412 119 426 87 c 0
 433 71 457 32 502 32 c 0
 547 32 569 51 579 84 c 4
 589 115 590 158 590 207 c 0
 590 259 590 305 578 336 c 0
 568 365 546 382 507 382 c 0
 459 382 412 335 412 210 c 0
EndSplineSet
EndChar
StartChar: uF2697
Encoding: 992919 992919 91
Width: 1000
Flags: MW
LayerCount: 2
Fore
SplineSet
306 422 m 1
 336 676 l 1
 377 676 l 1
 379 666 380 657 398 653 c 1
 410 649 538 644 558 644 c 2
 736 644 l 1
 736 609 736 607 727 596 c 2
 592 416 l 2
 562 375 544 316 536 249 c 0
 530 202 527 154 527 106 c 2
 527 60 l 2
 527 -6 486 -11 472 -11 c 0
 467 -11 418 -11 418 59 c 0
 418 207 480 342 564 454 c 2
 612 519 l 1
 465 519 l 2
 450 519 380 519 370 513 c 0
 367 511 356 498 347 422 c 1
 306 422 l 1
EndSplineSet
EndChar
StartChar: uF2698
Encoding: 992920 992920 92
Width: 1000
Flags: MW
LayerCount: 2
Fore
SplineSet
292 161 m 0
 292 235 330 292 403 329 c 1
 381 343 365 359 353 376 c 4
 327 412 320 450 320 480 c 0
 320 576 381 655 502 655 c 0
 601 655 680 610 680 508 c 0
 680 450 653 406 592 370 c 1
 612 357 639 340 662 314 c 0
 688 285 708 245 708 187 c 0
 708 77 637 -11 498 -11 c 0
 386 -11 292 40 292 161 c 0
367 161 m 0
 367 83 417 32 502 32 c 0
 552 32 633 48 633 132 c 0
 633 180 601 201 563 226 c 0
 515 257 473 284 443 302 c 1
 413 282 367 239 367 161 c 0
385 539 m 0
 385 505 409 488 423 479 c 2
 554 395 l 1
 592 424 615 458 615 507 c 0
 615 575 571 616 498 616 c 0
 463 616 385 609 385 539 c 0
EndSplineSet
EndChar
StartChar: uF2699
Encoding: 992921 992921 93
Width: 1000
Flags: MW
LayerCount: 2
Fore
SplineSet
292 440 m 0
 292 510 316 567 356 604 c 5
 393 637 444 655 502 655 c 0
 708 655 708 396 708 329 c 0
 708 73 571 -11 458 -11 c 0
 361 -11 317 46 317 114 c 0
 317 152 338 178 372 178 c 0
 406 178 426 150 426 116 c 0
 426 71 393 57 383 54 c 1
 409 34 440 32 456 32 c 0
 516 32 554 77 569 116 c 0
 582 150 590 209 590 282 c 2
 590 304 l 1
 557 234 515 227 485 227 c 0
 378 227 292 302 292 440 c 0
410 438 m 0
 410 384 410 338 423 306 c 0
 434 279 455 263 493 263 c 0
 566 263 589 365 589 428 c 0
 589 462 588 520 578 553 c 0
 575 563 554 616 503 616 c 0
 460 616 438 599 425 572 c 0
 410 539 410 491 410 438 c 0
EndSplineSet
EndChar
StartChar: uF269A
Encoding: 992922 992922 94
Width: 1000
Flags: MW
LayerCount: 2
Fore
SplineSet
592 528 m 1
 424 74 l 1
 444 37 477 25 500 25 c 0
 526 25 581 39 593 132 c 0
 599 184 599 275 599 331 c 0
 599 389 599 459 594 508 c 0
 593 515 593 522 592 528 c 1
401 331 m 4
 401 285 407 204 408 148 c 0
 408 140 408 133 408 126 c 1
 576 575 l 1
 557 606 527 619 500 619 c 0
 479 619 418 609 408 520 c 1
 401 468 401 403 401 331 c 4
289 319 m 0
 289 382 289 504 346 582 c 0
 377 625 426 655 500 655 c 0
 566 655 612 631 643 596 c 0
 711 519 711 385 711 319 c 0
 711 252 710 128 647 52 c 0
 616 14 570 -11 500 -11 c 0
 430 -11 384 14 353 52 c 0
 290 128 289 253 289 319 c 0
EndSplineSet
EndChar
StartChar: uF269B
Encoding: 992923 992923 95
Width: 1000
Flags: MW
LayerCount: 2
Fore
SplineSet
671 47 m 1
 671 47 l 1
 700 47 l 1
 729 47 l 1
 729 47 l 1
 729 639 l 1
 729 639 l 1
 700 639 l 1
 671 639 l 1
 671 639 l 1
 671 47 l 1
471 47 m 1
 471 47 l 1
 500 47 l 1
 529 47 l 1
 529 47 l 1
 529 639 l 1
 529 639 l 1
 500 639 l 1
 471 639 l 1
 471 639 l 1
 471 47 l 1
271 47 m 1
 271 47 l 1
 300 47 l 1
 329 47 l 1
 329 47 l 1
 329 639 l 1
 329 639 l 1
 300 639 l 1
 271 639 l 1
 271 639 l 1
 271 47 l 1
15 0 m 1
 15 47 l 1
 15 47 l 1
 129 47 l 1
 129 47 l 1
 129 639 l 1
 129 639 l 1
 15 639 l 1
 15 639 l 1
 15 686 l 1
 56 683 154 683 200 683 c 0
 246 683 754 683 800 683 c 0
 846 683 944 683 985 686 c 1
 985 639 l 1
 985 639 l 1
 871 639 l 1
 871 639 l 1
 871 47 l 1
 871 47 l 1
 985 47 l 1
 985 47 l 1
 985 0 l 1
 944 3 846 3 800 3 c 0
 754 3 246 3 200 3 c 0
 154 3 56 3 15 0 c 1
EndSplineSet
EndChar
StartChar: uF2E46
Encoding: 994886 994886 96
Width: 1000
Flags: MW
LayerCount: 2
Fore
SplineSet
517 0 m 5
 517 47 l 1
 525 47 l 2
 508 47 542 47 555 50 c 0
 567 53 566 54 566 76 c 2
 566 639 l 1
 517 639 l 1
 517 686 l 1
 645 686 l 2
 668 686 666 678 670 658 c 2
 749 197 l 1
 828 661 l 2
 832 686 840 686 853 686 c 2
 980 686 l 1
 980 639 l 1
 931 639 l 1
 931 47 l 1
 980 47 l 1
 980 0 l 1
 957 3 913 3 889 3 c 0
 865 3 820 3 797 0 c 1
 797 47 l 1
 847 47 l 1
 847 614 l 1
 846 614 l 1
 740 26 l 2
 736 10 738 0 724 0 c 0
 700 0 704 23 705 25 c 2
 603 594 l 1
 602 594 l 1
 602 76 l 2
 602 54 601 53 614 50 c 0
 608 50 626 47 643 47 c 2
 651 47 l 1
 651 0 l 1
 632 -2 604 3 584 3 c 0
 563 3 541 -2 517 0 c 5
23 0 m 1
 23 47 l 1
 29 47 28 47 36 47 c 1
 69 49 81 53 85 70 c 2
 224 672 l 2
 231 702 242 698 251 698 c 0
 264 698 270 696 276 672 c 2
 421 47 l 1
 477 47 l 1
 477 47 l 1
 477 0 l 1
 451 3 403 3 375 3 c 0
 347 3 288 3 263 0 c 1
 263 47 l 1
 318 47 l 1
 318 47 l 1
 289 176 l 1
 149 176 l 1
 125 70 l 2
 122 57 122 59 122 58 c 0
 122 46 166 47 174 47 c 1
 174 0 l 1
 161 0 126 3 95 3 c 0
 66 3 41 1 23 0 c 1
159 224 m 1
 278 224 l 1
 218 480 l 1
 159 224 l 1
EndSplineSet
EndChar
StartChar: uF2E47
Encoding: 994887 994887 97
Width: 1000
Flags: MW
LayerCount: 2
Fore
SplineSet
522 0 m 1
 522 47 l 1
 522 47 l 1
 582 47 l 1
 582 639 l 1
 522 639 l 1
 522 639 l 1
 522 686 l 1
 545 683 604 683 631 683 c 0
 658 683 717 683 740 686 c 1
 740 639 l 1
 740 639 l 1
 680 639 l 1
 680 338 l 1
 853 613 l 1
 862 619 857 622 866 626 c 1
 849 638 833 639 820 639 c 1
 820 686 l 1
 846 683 878 683 904 683 c 0
 933 683 947 684 964 686 c 1
 964 639 l 1
 970 639 l 1
 899 639 910 634 889 602 c 2
 777 424 l 1
 920 66 l 2
 925 53 928 47 960 47 c 2
 973 47 l 1
 973 0 l 1
 941 3 916 3 885 3 c 0
 860 3 803 3 781 0 c 1
 781 47 l 1
 791 47 828 48 822 60 c 1
 823 58 823 60 819 69 c 2
 716 330 l 1
 680 270 l 1
 680 47 l 1
 740 47 l 1
 740 47 l 1
 740 0 l 1
 717 3 658 3 631 3 c 0
 604 3 545 3 522 0 c 1
22 0 m 1
 22 47 l 1
 22 47 l 1
 82 47 l 1
 82 639 l 1
 22 639 l 1
 22 639 l 1
 22 686 l 1
 45 683 104 683 131 683 c 0
 158 683 217 683 240 686 c 1
 240 639 l 1
 240 639 l 1
 180 639 l 1
 180 338 l 1
 353 613 l 1
 362 619 357 622 366 626 c 1
 349 638 333 639 320 639 c 1
 320 686 l 1
 346 683 378 683 404 683 c 0
 433 683 447 684 464 686 c 1
 464 639 l 1
 470 639 l 1
 399 639 410 634 389 602 c 2
 277 424 l 1
 420 66 l 2
 425 53 428 47 460 47 c 2
 473 47 l 1
 473 0 l 1
 441 3 416 3 385 3 c 0
 360 3 303 3 281 0 c 1
 281 47 l 1
 291 47 328 48 322 60 c 1
 323 58 323 60 319 69 c 2
 216 330 l 1
 180 270 l 1
 180 47 l 1
 240 47 l 1
 240 47 l 1
 240 0 l 1
 217 3 158 3 131 3 c 0
 104 3 45 3 22 0 c 1
EndSplineSet
EndChar
StartChar: uF2E48
Encoding: 994888 994888 98
Width: 1000
Flags: MW
LayerCount: 2
Fore
SplineSet
624 218 m 4
 624 351 685 453 795 453 c 4
 904 453 965 352 965 218 c 4
 965 95 908 -6 795 -6 c 4
 683 -6 624 94 624 218 c 4
710 229 m 4
 710 184 710 133 722 94 c 4
 733 59 754 34 795 34 c 4
 832 34 852 54 864 84 c 4
 879 124 880 180 880 229 c 4
 880 277 880 332 866 366 c 4
 851 401 823 417 795 417 c 4
 762 417 734 396 721 359 c 4
 710 325 710 274 710 229 c 4
26 0 m 5
 26 47 l 5
 43 47 l 6
 62 47 63 47 79 50 c 4
 98 53 98 54 98 76 c 6
 98 639 l 5
 98 639 l 5
 26 639 l 5
 26 639 l 5
 26 686 l 5
 180 686 l 6
 194 686 195 685 202 673 c 6
 468 205 l 5
 468 610 l 6
 468 632 467 633 448 636 c 4
 436 638 425 639 413 639 c 6
 396 639 l 5
 396 686 l 5
 423 683 458 683 486 683 c 4
 512 683 551 683 576 686 c 5
 576 639 l 5
 559 639 l 6
 540 639 539 639 523 636 c 4
 504 633 504 632 504 610 c 6
 504 32 l 6
 504 9 504 0 486 0 c 4
 475 0 475 1 468 13 c 6
 134 599 l 5
 134 599 l 5
 134 76 l 6
 134 54 135 53 154 50 c 4
 166 48 178 47 190 47 c 6
 206 47 l 5
 206 0 l 5
 179 3 144 3 116 3 c 4
 90 3 51 3 26 0 c 5
EndSplineSet
EndChar
StartChar: uF2E49
Encoding: 994889 994889 99
Width: 1000
Flags: MW
LayerCount: 2
Fore
SplineSet
522 0 m 1
 522 47 l 1
 522 47 l 1
 582 47 l 1
 582 639 l 1
 522 639 l 1
 522 639 l 1
 522 686 l 1
 545 683 604 683 631 683 c 0
 658 683 717 683 740 686 c 1
 740 639 l 1
 740 639 l 1
 680 639 l 1
 680 380 l 1
 819 380 l 1
 819 639 l 1
 759 639 l 1
 759 639 l 1
 759 686 l 1
 782 683 841 683 868 683 c 0
 895 683 954 683 977 686 c 1
 977 639 l 1
 977 639 l 1
 917 639 l 1
 917 47 l 1
 977 47 l 1
 977 47 l 1
 977 0 l 1
 954 3 895 3 868 3 c 0
 841 3 782 3 759 0 c 1
 759 47 l 1
 759 47 l 1
 819 47 l 1
 819 333 l 1
 680 333 l 1
 680 47 l 1
 740 47 l 1
 740 47 l 1
 740 0 l 1
 717 3 658 3 631 3 c 0
 604 3 545 3 522 0 c 1
25 0 m 1
 25 47 l 1
 25 47 l 1
 94 47 l 1
 94 639 l 1
 25 639 l 1
 25 639 l 1
 25 686 l 1
 289 686 l 2
 396 686 459 601 459 491 c 0
 459 373 385 302 296 302 c 2
 190 302 l 1
 190 47 l 1
 259 47 l 1
 259 47 l 1
 259 0 l 1
 234 3 170 3 142 3 c 0
 114 3 50 3 25 0 c 1
186 343 m 1
 262 343 l 2
 355 343 355 413 355 491 c 0
 355 571 354 639 262 639 c 2
 186 639 l 1
 186 639 l 1
 186 343 l 1
EndSplineSet
EndChar
StartChar: uF2E4A
Encoding: 994890 994890 100
Width: 1000
Flags: MW
LayerCount: 2
Fore
SplineSet
517 0 m 5
 517 47 l 1
 525 47 l 2
 508 47 542 47 555 50 c 0
 567 53 566 54 566 76 c 2
 566 639 l 1
 517 639 l 1
 517 686 l 1
 645 686 l 2
 668 686 666 678 670 658 c 2
 749 197 l 1
 828 661 l 2
 832 686 840 686 853 686 c 2
 980 686 l 1
 980 639 l 1
 931 639 l 1
 931 47 l 1
 980 47 l 1
 980 0 l 1
 957 3 913 3 889 3 c 0
 865 3 820 3 797 0 c 1
 797 47 l 1
 847 47 l 1
 847 614 l 1
 846 614 l 1
 740 26 l 2
 736 10 738 0 724 0 c 0
 700 0 704 23 705 25 c 2
 603 594 l 1
 602 594 l 1
 602 76 l 2
 602 54 601 53 614 50 c 0
 608 50 626 47 643 47 c 2
 651 47 l 1
 651 0 l 1
 632 -2 604 3 584 3 c 0
 563 3 541 -2 517 0 c 5
25 0 m 1
 25 47 l 1
 25 47 l 1
 94 47 l 1
 94 639 l 1
 25 639 l 1
 25 639 l 1
 25 686 l 1
 289 686 l 2
 396 686 459 601 459 491 c 0
 459 373 385 302 296 302 c 2
 190 302 l 1
 190 47 l 1
 259 47 l 1
 259 47 l 1
 259 0 l 1
 234 3 170 3 142 3 c 0
 114 3 50 3 25 0 c 1
186 343 m 1
 262 343 l 2
 355 343 355 413 355 491 c 0
 355 571 354 639 262 639 c 2
 186 639 l 1
 186 639 l 1
 186 343 l 1
EndSplineSet
EndChar
StartChar: uF2E4B
Encoding: 994891 994891 101
Width: 1000
Flags: MW
LayerCount: 2
Fore
SplineSet
522 0 m 1
 522 47 l 1
 522 47 l 1
 584 47 l 1
 584 639 l 1
 522 639 l 1
 522 639 l 1
 522 686 l 1
 742 686 l 2
 854 686 918 603 918 500 c 0
 918 429 882 364 818 339 c 1
 853 316 878 280 885 219 c 0
 886 216 890 168 892 145 c 0
 897 82 902 25 933 25 c 0
 951 25 964 50 967 94 c 0
 968 110 970 117 982 117 c 0
 989 117 998 117 998 94 c 0
 998 83 993 -11 928 -11 c 0
 889 -11 816 -1 797 80 c 0
 792 102 793 106 793 169 c 0
 793 231 792 255 779 287 c 0
 763 325 744 325 731 325 c 2
 674 325 l 1
 674 47 l 1
 736 47 l 1
 736 47 l 1
 736 0 l 1
 713 3 655 3 629 3 c 0
 603 3 545 3 522 0 c 1
674 361 m 1
 727 361 l 2
 817 361 817 431 817 500 c 0
 817 571 817 639 728 639 c 2
 674 639 l 1
 674 639 l 1
 674 361 l 1
25 0 m 1
 25 47 l 1
 25 47 l 1
 94 47 l 1
 94 639 l 1
 25 639 l 1
 25 639 l 1
 25 686 l 1
 289 686 l 2
 396 686 459 601 459 491 c 0
 459 373 385 302 296 302 c 2
 190 302 l 1
 190 47 l 1
 259 47 l 1
 259 47 l 1
 259 0 l 1
 234 3 170 3 142 3 c 0
 114 3 50 3 25 0 c 1
186 343 m 1
 262 343 l 2
 355 343 355 413 355 491 c 0
 355 571 354 639 262 639 c 2
 186 639 l 1
 186 639 l 1
 186 343 l 1
EndSplineSet
EndChar
StartChar: uF2E4C
Encoding: 994892 994892 102
Width: 1000
Flags: MW
LayerCount: 2
Fore
SplineSet
712 360 m 1
 712 384 l 1
 712 384 l 1
 754 384 l 1
 754 384 l 1
 754 680 l 1
 754 680 l 1
 712 680 l 1
 712 680 l 1
 712 703 l 1
 729 701 771 702 795 702 c 0
 821 702 865 701 885 703 c 1
 885 680 l 1
 885 680 l 1
 831 680 l 1
 831 680 l 1
 831 384 l 1
 831 384 l 1
 870 384 l 2
 950 384 958 463 962 497 c 1
 983 497 l 1
 969 360 l 1
 712 360 l 1
375 360 m 1
 375 384 l 1
 375 384 l 1
 417 384 l 1
 417 384 l 1
 417 676 l 1
 417 676 l 1
 375 676 l 1
 375 676 l 1
 375 700 l 1
 653 700 l 1
 667 580 l 1
 646 580 l 1
 639 640 627 676 555 676 c 2
 493 676 l 1
 493 676 l 1
 493 548 l 1
 511 548 l 2
 555 548 559 569 559 606 c 1
 580 606 l 1
 580 466 l 1
 559 466 l 1
 559 503 554 524 511 524 c 2
 493 524 l 1
 493 384 l 1
 493 384 l 1
 555 384 l 2
 638 384 650 428 660 497 c 1
 681 497 l 1
 661 360 l 1
 375 360 l 1
19 577 m 1
 28 698 l 1
 329 698 l 1
 339 577 l 1
 318 577 l 1
 314 634 309 674 245 674 c 2
 217 674 l 1
 217 674 l 1
 217 384 l 1
 217 384 l 1
 279 384 l 1
 279 384 l 1
 279 360 l 1
 255 362 211 362 179 362 c 0
 147 362 103 362 79 360 c 1
 79 384 l 1
 79 384 l 1
 141 384 l 1
 141 384 l 1
 141 674 l 1
 141 674 l 1
 113 674 l 2
 48 674 44 633 40 577 c 1
 19 577 l 1
EndSplineSet
EndChar
StartChar: uF2E4D
Encoding: 994893 994893 103
Width: 1000
Flags: MW
LayerCount: 2
Fore
SplineSet
446 360 m 1
 446 384 l 1
 459 384 l 2
 473 384 474 383 486 385 c 0
 500 387 500 387 500 398 c 2
 500 680 l 1
 500 680 l 1
 446 680 l 1
 446 680 l 1
 446 703 l 1
 558 703 l 2
 569 703 574 702 580 690 c 2
 700 426 l 1
 820 690 l 2
 826 702 831 703 842 703 c 6
 952 703 l 1
 952 680 l 1
 952 680 l 1
 898 680 l 5
 898 680 l 5
 898 384 l 5
 898 384 l 5
 952 384 l 1
 952 384 l 1
 952 360 l 1
 934 362 886 362 866 362 c 4
 846 362 800 362 782 360 c 1
 782 384 l 1
 782 384 l 1
 836 384 l 5
 836 384 l 5
 836 680 l 5
 835 680 l 5
 696 372 l 2
 694 368 690 360 680 360 c 0
 674 360 668 362 664 372 c 2
 528 673 l 1
 527 673 l 1
 527 398 l 2
 527 387 528 387 542 385 c 0
 551 384 559 384 568 384 c 2
 581 384 l 1
 581 360 l 1
 561 362 535 362 514 362 c 0
 494 362 465 362 446 360 c 1
48 577 m 1
 58 698 l 1
 395 698 l 1
 406 577 l 1
 382 577 l 1
 377 634 372 674 300 674 c 2
 262 674 l 1
 262 674 l 1
 262 384 l 1
 262 384 l 1
 339 384 l 1
 339 384 l 1
 339 360 l 1
 312 362 257 362 227 362 c 0
 197 362 142 362 115 360 c 1
 115 384 l 1
 115 384 l 1
 192 384 l 1
 192 384 l 1
 192 674 l 1
 192 674 l 1
 153 674 l 2
 81 674 76 633 72 577 c 1
 48 577 l 1
EndSplineSet
EndChar
StartChar: uF2E4E
Encoding: 994894 994894 104
Width: 1000
Flags: MW
LayerCount: 2
Fore
SplineSet
550 17 m 2
 550 199 l 2
 550 222 550 228 567 228 c 0
 582 228 582 223 583 205 c 0
 585 153 601 116 623 92 c 0
 667 42 735 36 773 36 c 0
 861 36 884 106 884 153 c 0
 884 187 868 213 846 232 c 0
 816 259 773 274 745 283 c 0
 699 296 670 305 648 316 c 0
 580 350 550 424 550 495 c 0
 550 593 602 697 726 697 c 0
 752 697 810 696 864 637 c 1
 902 688 l 10
 905 693 908 697 913 697 c 0
 926 697 926 688 926 669 c 2
 926 486 l 2
 926 463 926 458 909 458 c 0
 891 458 895 466 893 480 c 1
 889 573 828 654 727 654 c 0
 640 654 618 587 618 549 c 0
 618 476 662 446 712 428 c 2
 794 398 l 2
 912 355 951 274 951 203 c 0
 951 119 912 -11 773 -11 c 0
 743 -11 662 -6 611 48 c 1
 581 5 l 2
 574 -6 569 -11 563 -11 c 0
 550 -11 550 -2 550 17 c 2
15 639 m 1
 15 686 l 1
 39 683 86 683 112 683 c 0
 138 683 195 683 219 686 c 1
 219 639 l 1
 165 639 l 1
 165 639 l 1
 279 184 l 1
 391 629 l 1
 391 629 l 1
 374 639 352 639 340 639 c 1
 340 686 l 1
 359 685 393 683 418 683 c 0
 442 683 470 685 485 686 c 1
 485 639 l 1
 485 639 l 1
 432 639 432 633 427 616 c 2
 275 17 l 2
 270 0 269 -8 250 -8 c 0
 232 -8 229 0 225 17 c 2
 68 639 l 1
 15 639 l 1
EndSplineSet
EndChar
StartChar: uF2E4F
Encoding: 994895 994895 105
Width: 1000
Flags: MW
LayerCount: 2
Fore
SplineSet
575 162 m 0
 575 249 631 336 765 336 c 0
 792 336 835 334 864 318 c 0
 883 308 895 292 895 267 c 0
 895 235 871 219 848 219 c 0
 828 219 802 234 802 267 c 0
 802 274 802 289 816 301 c 1
 806 303 794 306 768 306 c 0
 671 306 671 208 671 166 c 0
 671 132 671 21 775 21 c 0
 813 21 849 36 869 83 c 0
 873 93 873 94 887 94 c 0
 895 94 905 94 905 84 c 0
 905 79 883 -9 761 -9 c 0
 645 -9 575 62 575 162 c 0
225 -10 m 0
 225 -3 232 8 246 24 c 2
 767 721 l 2
 773 728 783 748 797 748 c 0
 806 748 814 740 814 731 c 0
 814 722 805 712 800 706 c 2
 276 0 l 2
 270 -8 257 -28 242 -28 c 0
 233 -28 225 -19 225 -10 c 0
186 498 m 0
 186 465 216 438 254 438 c 0
 273 438 342 448 342 520 c 2
 342 591 l 1
 304 589 186 579 186 498 c 0
98 497 m 0
 98 555 153 584 212 599 c 0
 263 612 317 614 342 615 c 1
 342 640 l 2
 342 697 315 729 259 729 c 0
 250 729 226 727 205 723 c 1
 207 721 222 709 222 687 c 0
 222 655 197 639 174 639 c 0
 154 639 128 654 128 687 c 0
 128 717 146 733 171 743 c 0
 200 754 239 756 262 756 c 0
 318 756 360 744 387 723 c 0
 414 703 427 673 427 640 c 2
 427 479 l 2
 427 462 427 452 473 451 c 0
 483 451 492 451 492 434 c 0
 492 416 483 416 468 416 c 2
 432 416 l 2
 354 416 354 451 354 474 c 1
 338 442 302 411 242 411 c 0
 190 411 98 425 98 497 c 0
EndSplineSet
EndChar
StartChar: uF2E50
Encoding: 994896 994896 106
Width: 1000
Flags: MW
LayerCount: 2
Fore
SplineSet
880 78 m 0
 880 125 899 156 916 156 c 0
 935 156 952 123 952 78 c 0
 952 39 937 0 916 0 c 0
 897 0 880 33 880 78 c 0
424 0 m 1
 424 47 l 1
 450 47 l 1
 450 47 l 1
 450 356 l 2
 450 395 450 395 424 395 c 1
 424 442 l 1
 507 450 l 1
 507 342 l 5
 516 405 544 450 584 450 c 0
 601 450 647 447 658 354 c 1
 672 400 688 450 730 450 c 0
 754 450 773 440 787 415 c 0
 800 392 807 356 807 306 c 2
 807 47 l 1
 833 47 l 1
 833 0 l 1
 820 1 797 3 775 3 c 0
 754 3 730 1 717 0 c 1
 717 47 l 1
 744 47 l 1
 744 47 l 1
 744 317 l 2
 744 394 739 414 723 414 c 0
 694 414 660 364 660 256 c 2
 660 47 l 1
 660 47 l 1
 686 47 l 1
 686 0 l 1
 673 1 650 3 628 3 c 0
 607 3 583 1 570 0 c 1
 570 47 l 1
 597 47 l 1
 597 47 l 1
 597 317 l 2
 597 394 592 414 576 414 c 0
 547 414 513 365 513 256 c 2
 513 47 l 1
 513 47 l 1
 540 47 l 1
 540 0 l 1
 527 1 504 3 482 3 c 0
 461 3 437 1 424 0 c 1
294 78 m 0
 294 125 313 156 330 156 c 0
 349 156 366 123 366 78 c 0
 366 39 351 0 330 0 c 0
 311 0 294 33 294 78 c 0
9 108 m 0
 9 186 49 224 85 244 c 0
 116 261 141 264 159 265 c 1
 159 299 l 2
 159 375 148 417 114 417 c 0
 108 417 99 416 84 410 c 1
 86 408 96 391 96 361 c 0
 96 319 79 298 62 298 c 0
 47 298 27 317 27 361 c 0
 27 401 41 423 59 436 c 0
 81 451 101 453 115 453 c 0
 149 453 172 437 192 409 c 0
 212 382 222 343 222 299 c 2
 222 84 l 2
 222 61 217 48 245 47 c 0
 251 47 257 47 257 24 c 0
 257 0 251 0 242 0 c 2
 225 0 l 2
 168 0 168 46 168 77 c 1
 156 35 141 -6 104 -6 c 0
 72 -6 9 12 9 108 c 0
74 109 m 0
 74 65 87 30 110 30 c 0
 122 30 159 43 159 139 c 2
 159 234 l 1
 131 231 74 217 74 109 c 0
EndSplineSet
EndChar
StartChar: uF2E51
Encoding: 994897 994897 107
Width: 1000
Flags: MW
LayerCount: 2
Fore
SplineSet
575 162 m 0
 575 249 631 336 765 336 c 0
 792 336 835 334 864 318 c 0
 883 308 895 292 895 267 c 0
 895 235 871 219 848 219 c 0
 828 219 802 234 802 267 c 0
 802 274 802 289 816 301 c 1
 806 303 794 306 768 306 c 0
 671 306 671 208 671 166 c 0
 671 132 671 21 775 21 c 0
 813 21 849 36 869 83 c 0
 873 93 873 94 887 94 c 0
 895 94 905 94 905 84 c 0
 905 79 883 -9 761 -9 c 0
 645 -9 575 62 575 162 c 0
225 -10 m 0
 225 -3 232 8 246 24 c 2
 767 721 l 2
 773 728 783 748 797 748 c 0
 806 748 814 740 814 731 c 0
 814 722 805 712 800 706 c 2
 276 0 l 2
 270 -8 257 -28 242 -28 c 0
 233 -28 225 -19 225 -10 c 0
140 582 m 0
 140 669 196 756 330 756 c 0
 357 756 400 754 429 738 c 0
 448 728 460 712 460 687 c 0
 460 655 436 639 413 639 c 0
 393 639 366 654 366 687 c 0
 366 694 368 709 382 721 c 1
 372 723 359 726 333 726 c 0
 236 726 236 628 236 586 c 0
 236 552 236 441 340 441 c 0
 378 441 414 456 434 503 c 0
 438 513 438 514 452 514 c 0
 460 514 470 514 470 504 c 0
 470 499 448 411 326 411 c 0
 210 411 140 482 140 582 c 0
EndSplineSet
EndChar
StartChar: uF2E52
Encoding: 994898 994898 108
Width: 1000
Flags: MW
LayerCount: 2
Fore
SplineSet
876 78 m 4
 876 125 901 156 924 156 c 4
 949 156 973 123 973 78 c 4
 973 39 952 0 924 0 c 4
 899 0 876 33 876 78 c 4
535 222 m 4
 535 338 580 453 691 453 c 4
 713 453 748 451 772 429 c 4
 787 415 798 394 798 361 c 4
 798 319 779 298 760 298 c 4
 743 298 721 317 721 361 c 4
 721 370 723 391 734 407 c 5
 726 410 715 413 693 413 c 4
 613 413 614 283 614 227 c 4
 614 181 614 34 700 34 c 4
 731 34 761 53 777 116 c 4
 780 129 781 131 792 131 c 4
 798 131 806 131 806 117 c 4
 806 110 788 -6 688 -6 c 4
 593 -6 535 89 535 222 c 4
365 78 m 4
 365 125 390 156 413 156 c 4
 438 156 461 123 461 78 c 4
 461 39 441 0 413 0 c 4
 388 0 365 33 365 78 c 4
23 222 m 4
 23 338 69 453 180 453 c 4
 202 453 237 451 261 429 c 4
 276 415 287 394 287 361 c 4
 287 319 267 298 248 298 c 4
 231 298 210 317 210 361 c 4
 210 370 211 391 222 407 c 5
 214 410 204 413 182 413 c 4
 102 413 103 283 103 227 c 4
 103 181 102 34 188 34 c 4
 219 34 250 53 266 116 c 4
 269 129 269 131 280 131 c 4
 286 131 295 131 295 117 c 4
 295 110 277 -6 177 -6 c 4
 82 -6 23 89 23 222 c 4
EndSplineSet
EndChar
StartChar: uF2E53
Encoding: 994899 994899 109
Width: 1000
Flags: MW
LayerCount: 2
Fore
SplineSet
655 168 m 0
 655 134 655 95 667 66 c 0
 678 40 698 21 738 21 c 0
 774 21 795 37 807 59 c 0
 822 89 822 131 822 168 c 0
 822 204 822 244 808 270 c 0
 794 296 766 309 738 309 c 0
 706 309 679 293 666 265 c 0
 655 239 655 202 655 168 c 0
572 159 m 0
 572 259 631 336 738 336 c 0
 844 336 905 259 905 159 c 0
 905 67 848 -9 738 -9 c 0
 629 -9 572 66 572 159 c 0
225 -10 m 0
 225 -3 232 8 246 24 c 2
 767 721 l 2
 773 728 783 748 797 748 c 0
 806 748 814 740 814 731 c 0
 814 722 805 712 800 706 c 2
 276 0 l 2
 270 -8 257 -28 242 -28 c 0
 233 -28 225 -19 225 -10 c 0
140 582 m 0
 140 669 196 756 330 756 c 0
 357 756 400 754 429 738 c 0
 448 728 460 712 460 687 c 0
 460 655 436 639 413 639 c 0
 393 639 366 654 366 687 c 0
 366 694 368 709 382 721 c 1
 372 723 359 726 333 726 c 0
 236 726 236 628 236 586 c 0
 236 552 236 441 340 441 c 0
 378 441 414 456 434 503 c 0
 438 513 438 514 452 514 c 0
 460 514 470 514 470 504 c 0
 470 499 448 411 326 411 c 0
 210 411 140 482 140 582 c 0
EndSplineSet
EndChar
StartChar: uF2E54
Encoding: 994900 994900 110
Width: 1000
Flags: MW
LayerCount: 2
Fore
SplineSet
700 0 m 1
 700 47 l 1
 769 47 l 1
 769 47 l 1
 769 600 l 2
 769 639 762 639 700 639 c 1
 700 686 l 1
 877 694 l 1
 877 47 l 5
 877 47 l 1
 946 47 l 1
 946 0 l 1
 912 1 866 3 823 3 c 0
 780 3 732 1 700 0 c 1
54 221 m 0
 54 362 159 450 305 450 c 0
 338 450 390 444 440 405 c 1
 440 600 l 2
 440 639 433 639 371 639 c 1
 371 686 l 1
 548 694 l 1
 548 86 l 2
 548 47 555 47 617 47 c 1
 617 0 l 1
 434 -6 l 1
 434 43 l 1
 403 18 355 -6 294 -6 c 0
 146 -6 54 89 54 221 c 0
182 221 m 0
 182 180 182 122 206 80 c 0
 224 51 254 30 304 30 c 0
 380 30 421 85 434 103 c 1
 434 103 l 5
 434 353 l 1
 434 353 l 1
 412 382 372 414 315 414 c 0
 284 414 237 404 208 362 c 0
 182 323 182 269 182 221 c 0
EndSplineSet
EndChar
StartChar: uF2E55
Encoding: 994901 994901 111
Width: 1000
Flags: MW
LayerCount: 2
Fore
SplineSet
698 108 m 0
 698 186 741 224 782 244 c 0
 817 261 846 264 866 265 c 1
 866 299 l 2
 866 375 854 417 815 417 c 0
 809 417 799 416 782 410 c 1
 784 408 796 391 796 361 c 0
 796 319 776 298 757 298 c 0
 740 298 718 317 718 361 c 0
 718 401 734 423 754 436 c 0
 778 451 801 453 817 453 c 0
 856 453 882 437 904 409 c 0
 926 382 937 343 937 299 c 2
 937 84 l 2
 937 61 931 48 963 47 c 0
 970 47 976 47 976 24 c 0
 976 0 970 0 959 0 c 2
 941 0 l 2
 876 0 876 46 876 77 c 1
 862 35 845 -6 804 -6 c 0
 768 -6 698 12 698 108 c 0
770 109 m 0
 770 65 785 30 811 30 c 0
 824 30 866 43 866 139 c 2
 866 234 l 1
 835 231 770 217 770 109 c 0
350 0 m 1
 350 47 l 1
 350 47 l 1
 390 47 l 1
 390 47 l 1
 390 639 l 1
 390 639 l 1
 350 639 l 1
 350 639 l 1
 350 686 l 1
 566 686 l 2
 652 686 711 601 711 491 c 0
 711 374 643 302 571 302 c 2
 495 302 l 1
 495 47 l 1
 495 47 l 1
 535 47 l 1
 535 47 l 1
 535 0 l 1
 515 3 474 3 442 3 c 0
 410 3 370 3 350 0 c 1
491 343 m 1
 545 343 l 2
 605 343 616 420 616 491 c 0
 616 563 600 639 546 639 c 2
 491 639 l 1
 491 639 l 1
 491 343 l 1
23 0 m 1
 23 47 l 1
 53 47 l 1
 53 47 l 1
 53 600 l 2
 53 639 51 639 23 639 c 1
 23 686 l 1
 120 694 l 1
 120 354 l 1
 121 354 l 1
 127 392 153 450 203 450 c 0
 230 450 251 439 267 413 c 0
 281 390 288 355 288 306 c 2
 288 47 l 1
 318 47 l 1
 318 0 l 1
 304 1 277 3 253 3 c 0
 229 3 202 1 188 0 c 1
 188 47 l 1
 218 47 l 1
 218 47 l 1
 218 317 l 2
 218 393 213 414 195 414 c 0
 162 414 124 365 124 256 c 2
 124 47 l 1
 124 47 l 1
 154 47 l 1
 154 0 l 1
 140 1 112 3 88 3 c 0
 64 3 37 1 23 0 c 1
EndSplineSet
EndChar
StartChar: uF2E56
Encoding: 994902 994902 112
Width: 1000
Flags: MW
LayerCount: 2
Fore
SplineSet
684 0 m 1
 684 47 l 1
 754 47 l 1
 754 47 l 1
 754 600 l 2
 754 639 746 639 684 639 c 1
 684 686 l 1
 862 694 l 1
 862 47 l 5
 862 47 l 1
 930 47 l 1
 930 0 l 1
 896 1 851 3 808 3 c 0
 765 3 716 1 684 0 c 1
70 0 m 1
 70 47 l 1
 138 47 l 1
 138 47 l 1
 138 600 l 2
 138 639 132 639 70 639 c 1
 70 686 l 1
 246 694 l 1
 246 237 l 1
 436 386 l 1
 436 386 l 1
 428 394 425 397 402 397 c 1
 402 444 l 1
 425 443 489 441 516 441 c 0
 542 441 567 441 594 444 c 1
 594 397 l 1
 527 397 518 390 504 379 c 2
 374 278 l 1
 374 278 l 1
 544 67 l 2
 557 51 559 47 602 47 c 2
 620 47 l 1
 620 0 l 1
 586 2 552 3 516 3 c 0
 511 3 424 2 394 0 c 1
 394 47 l 1
 407 47 424 47 424 56 c 0
 424 59 409 79 400 91 c 2
 298 217 l 1
 278 203 271 197 242 174 c 1
 242 47 l 5
 242 47 l 1
 310 47 l 1
 310 0 l 1
 274 1 227 3 190 3 c 0
 154 3 107 1 70 0 c 1
EndSplineSet
EndChar
StartChar: uF2E58
Encoding: 994904 994904 114
Width: 1000
Flags: MW
LayerCount: 2
Fore
SplineSet
547 -75 m 4
 547 -12 606 9 617 12 c 5
 584 44 581 93 581 108 c 4
 581 129 586 162 609 197 c 5
 583 220 566 261 566 302 c 4
 566 372 612 450 729 450 c 4
 789 450 823 429 838 417 c 5
 874 452 912 455 924 455 c 4
 961 455 976 420 976 397 c 4
 976 373 962 354 941 354 c 4
 920 354 905 372 905 397 c 4
 905 403 907 412 909 417 c 5
 907 417 904 416 902 416 c 4
 892 415 878 411 858 398 c 5
 870 382 891 349 891 302 c 4
 891 232 846 154 729 154 c 4
 709 154 666 156 629 180 c 5
 624 172 621 157 621 147 c 4
 621 129 630 91 666 84 c 4
 670 83 708 83 729 83 c 4
 807 83 855 83 901 55 c 4
 956 21 963 -42 963 -72 c 4
 963 -142 899 -201 755 -201 c 4
 592 -201 547 -126 547 -75 c 4
617 -73 m 4
 617 -119 657 -165 755 -165 c 4
 861 -165 892 -111 892 -75 c 4
 892 -13 800 -13 775 -13 c 6
 680 -13 l 6
 669 -13 617 -13 617 -73 c 4
657 302 m 4
 657 257 657 190 729 190 c 4
 762 190 779 204 789 223 c 4
 800 246 800 278 800 302 c 4
 800 347 801 414 729 414 c 4
 701 414 684 404 673 389 c 4
 657 366 657 329 657 302 c 4
36 -147 m 5
 36 -147 l 5
 93 -147 l 5
 93 -147 l 5
 93 359 l 5
 92 388 85 394 45 394 c 6
 36 394 l 5
 36 442 l 5
 186 450 l 5
 186 147 l 6
 186 138 185 128 185 118 c 4
 185 56 188 31 251 31 c 4
 290 31 347 58 352 170 c 6
 352 170 l 5
 352 355 l 6
 352 386 349 394 303 394 c 6
 296 394 l 5
 296 442 l 5
 445 450 l 5
 445 85 l 6
 445 54 452 48 494 48 c 6
 502 48 l 5
 502 0 l 5
 357 -5 l 5
 357 38 l 5
 356 72 l 5
 318 -4 264 -5 240 -5 c 6
 238 -5 l 6
 221 -5 203 -4 186 -1 c 5
 186 -147 l 5
 186 -147 l 5
 242 -147 l 5
 242 -147 l 5
 242 -195 l 5
 211 -193 181 -192 150 -192 c 4
 145 -192 140 -192 135 -192 c 4
 95 -192 66 -193 36 -195 c 5
 36 -147 l 5
EndSplineSet
EndChar
StartChar: uF2E59
Encoding: 994905 994905 115
Width: 1000
Flags: MW
LayerCount: 2
Fore
SplineSet
417 0 m 1
 417 47 l 1
 452 47 l 1
 452 47 l 1
 452 356 l 2
 452 395 455 395 417 395 c 1
 417 442 l 1
 528 450 l 1
 528 342 l 1
 551 405 577 450 630 450 c 0
 653 450 712 447 727 354 c 1
 746 400 768 450 824 450 c 0
 856 450 881 440 899 415 c 4
 917 392 925 356 925 306 c 6
 925 47 l 5
 960 47 l 1
 960 0 l 1
 943 1 912 3 883 3 c 4
 855 3 823 1 806 0 c 1
 806 47 l 1
 842 47 l 5
 842 47 l 5
 842 317 l 6
 842 394 835 414 814 414 c 0
 776 414 730 364 730 256 c 2
 730 47 l 1
 730 47 l 1
 766 47 l 1
 766 0 l 1
 749 1 718 3 689 3 c 0
 661 3 629 1 612 0 c 1
 612 47 l 1
 647 47 l 1
 647 47 l 1
 647 317 l 2
 647 394 641 414 620 414 c 0
 582 414 536 365 536 256 c 2
 536 47 l 1
 536 47 l 1
 571 47 l 1
 571 0 l 1
 554 1 523 3 494 3 c 0
 466 3 434 1 417 0 c 1
27 -147 m 1
 27 -147 l 1
 63 -147 l 1
 63 -147 l 1
 63 359 l 1
 62 388 64 394 34 394 c 2
 27 394 l 1
 27 442 l 1
 146 450 l 1
 146 147 l 2
 146 138 145 128 145 118 c 0
 145 56 141 31 188 31 c 0
 217 31 253 58 257 170 c 2
 257 170 l 1
 257 355 l 2
 257 386 262 394 227 394 c 2
 221 394 l 1
 221 442 l 1
 340 450 l 1
 340 85 l 2
 340 54 338 48 370 48 c 2
 376 48 l 1
 376 0 l 1
 261 -5 l 1
 261 38 l 1
 260 72 l 1
 226 -4 198 -5 180 -5 c 2
 178 -5 l 2
 165 -5 161 -4 146 -1 c 1
 146 -147 l 1
 146 -147 l 1
 181 -147 l 1
 181 -147 l 1
 181 -195 l 1
 158 -193 142 -192 114 -192 c 0
 110 -192 105 -192 101 -192 c 0
 65 -192 50 -193 27 -195 c 1
 27 -147 l 1
EndSplineSet
EndChar
StartChar: uF2E5A
Encoding: 994906 994906 116
Width: 1000
Flags: MW
LayerCount: 2
Fore
SplineSet
776 0 m 5
 776 47 l 5
 829 47 l 5
 829 47 l 5
 829 600 l 6
 829 639 824 639 776 639 c 5
 776 686 l 5
 912 694 l 5
 912 47 l 5
 912 47 l 5
 966 47 l 5
 966 0 l 5
 940 1 904 3 871 3 c 4
 838 3 801 1 776 0 c 5
35 0 m 5
 35 47 l 5
 88 47 l 5
 88 47 l 5
 88 356 l 6
 88 395 83 395 35 395 c 5
 35 442 l 5
 168 450 l 5
 168 342 l 5
 193 405 237 450 304 450 c 4
 333 450 404 447 419 354 c 5
 439 400 480 450 550 450 c 4
 591 450 622 440 641 415 c 4
 660 392 669 356 669 306 c 6
 669 47 l 5
 722 47 l 5
 722 0 l 5
 700 1 655 3 625 3 c 4
 596 3 550 1 528 0 c 5
 528 47 l 5
 581 47 l 5
 581 47 l 5
 581 317 l 6
 581 394 564 414 538 414 c 4
 490 414 423 364 423 256 c 6
 423 47 l 5
 423 47 l 5
 476 47 l 5
 476 0 l 5
 454 1 409 3 379 3 c 4
 350 3 303 1 281 0 c 5
 281 47 l 5
 334 47 l 5
 334 47 l 5
 334 317 l 6
 334 394 317 414 291 414 c 4
 243 414 176 365 176 256 c 6
 176 47 l 5
 176 47 l 5
 229 47 l 5
 229 0 l 5
 207 1 162 3 132 3 c 4
 103 3 57 1 35 0 c 5
EndSplineSet
EndChar
StartChar: uF2E5B
Encoding: 994907 994907 117
Width: 1000
Flags: MW
LayerCount: 2
Fore
SplineSet
70 416 m 1
 70 452 l 1
 98 452 l 1
 98 452 l 1
 98 683 l 2
 98 712 97 712 70 712 c 1
 70 748 l 1
 157 754 l 1
 157 673 l 1
 168 720 195 754 237 754 c 0
 255 754 302 752 314 682 c 1
 322 716 346 754 390 754 c 0
 415 754 435 747 449 728 c 0
 463 711 469 684 469 646 c 2
 469 452 l 1
 497 452 l 1
 497 416 l 1
 484 417 459 418 437 418 c 0
 415 418 389 417 376 416 c 1
 376 452 l 1
 404 452 l 1
 404 452 l 1
 404 654 l 2
 404 712 398 727 382 727 c 0
 352 727 316 689 316 608 c 2
 316 452 l 1
 316 452 l 1
 344 452 l 1
 344 416 l 1
 331 417 306 418 284 418 c 0
 262 418 236 417 223 416 c 1
 223 452 l 1
 251 452 l 1
 251 452 l 1
 251 654 l 2
 251 712 245 727 229 727 c 0
 199 727 163 690 163 608 c 2
 163 452 l 1
 163 452 l 1
 191 452 l 1
 191 416 l 1
 178 417 152 418 130 418 c 0
 108 418 83 417 70 416 c 1
542 -4 m 1
 542 32 l 1
 570 32 l 1
 570 32 l 1
 570 263 l 2
 570 292 569 292 542 292 c 1
 542 328 l 1
 629 334 l 1
 629 253 l 1
 640 300 667 334 709 334 c 0
 727 334 774 332 786 262 c 1
 794 296 818 334 862 334 c 0
 887 334 907 327 921 308 c 0
 935 291 941 264 941 226 c 2
 941 32 l 1
 969 32 l 1
 969 -4 l 1
 956 -3 931 -2 909 -2 c 0
 887 -2 861 -3 848 -4 c 1
 848 32 l 1
 876 32 l 1
 876 32 l 1
 876 234 l 2
 876 292 870 307 854 307 c 0
 824 307 788 269 788 188 c 2
 788 32 l 1
 788 32 l 1
 816 32 l 1
 816 -4 l 1
 803 -3 777 -2 755 -2 c 0
 733 -2 708 -3 695 -4 c 1
 695 32 l 1
 723 32 l 1
 723 32 l 1
 723 234 l 2
 723 292 717 307 701 307 c 0
 671 307 635 270 635 188 c 2
 635 32 l 1
 635 32 l 1
 663 32 l 1
 663 -4 l 1
 650 -3 624 -2 602 -2 c 0
 580 -2 555 -3 542 -4 c 1
225 -10 m 0
 225 -3 232 8 246 24 c 2
 767 721 l 2
 773 728 783 748 797 748 c 0
 806 748 814 740 814 731 c 0
 814 722 805 712 800 706 c 2
 276 0 l 2
 270 -8 257 -28 242 -28 c 0
 233 -28 225 -19 225 -10 c 0
EndSplineSet
EndChar
StartChar: uF2E5C
Encoding: 994908 994908 118
Width: 1000
Flags: MW
LayerCount: 2
Fore
SplineSet
113 416 m 1
 113 452 l 1
 158 452 l 1
 158 452 l 1
 158 683 l 2
 158 712 154 712 113 712 c 1
 113 748 l 1
 227 754 l 1
 227 673 l 1
 244 711 279 754 343 754 c 0
 378 754 405 746 422 727 c 0
 438 710 446 684 446 646 c 2
 446 452 l 1
 492 452 l 1
 492 416 l 1
 473 417 434 418 408 418 c 0
 383 418 343 417 324 416 c 1
 324 452 l 1
 370 452 l 1
 370 452 l 1
 370 654 l 2
 370 711 357 727 334 727 c 0
 292 727 234 690 234 608 c 2
 234 452 l 1
 234 452 l 1
 280 452 l 1
 280 416 l 1
 261 417 222 418 196 418 c 0
 171 418 132 417 113 416 c 1
542 -4 m 1
 542 32 l 1
 570 32 l 1
 570 32 l 1
 570 263 l 2
 570 292 569 292 542 292 c 1
 542 328 l 1
 629 334 l 1
 629 253 l 1
 640 300 667 334 709 334 c 0
 727 334 774 332 786 262 c 1
 794 296 818 334 862 334 c 0
 887 334 907 327 921 308 c 0
 935 291 941 264 941 226 c 2
 941 32 l 1
 969 32 l 1
 969 -4 l 1
 956 -3 931 -2 909 -2 c 0
 887 -2 861 -3 848 -4 c 1
 848 32 l 1
 876 32 l 1
 876 32 l 1
 876 234 l 2
 876 292 870 307 854 307 c 0
 824 307 788 269 788 188 c 2
 788 32 l 1
 788 32 l 1
 816 32 l 1
 816 -4 l 1
 803 -3 777 -2 755 -2 c 0
 733 -2 708 -3 695 -4 c 1
 695 32 l 1
 723 32 l 1
 723 32 l 1
 723 234 l 2
 723 292 717 307 701 307 c 0
 671 307 635 270 635 188 c 2
 635 32 l 1
 635 32 l 1
 663 32 l 1
 663 -4 l 1
 650 -3 624 -2 602 -2 c 0
 580 -2 555 -3 542 -4 c 1
225 -10 m 0
 225 -3 232 8 246 24 c 2
 767 721 l 2
 773 728 783 748 797 748 c 0
 806 748 814 740 814 731 c 0
 814 722 805 712 800 706 c 2
 276 0 l 2
 270 -8 257 -28 242 -28 c 0
 233 -28 225 -19 225 -10 c 0
EndSplineSet
EndChar
StartChar: uF2E5D
Encoding: 994909 994909 119
Width: 1000
Flags: MW
LayerCount: 2
Fore
SplineSet
439 0 m 5
 439 47 l 5
 439 47 l 5
 510 47 l 5
 510 47 l 5
 510 639 l 5
 510 639 l 5
 439 639 l 5
 439 639 l 5
 439 686 l 5
 464 683 528 683 556 683 c 4
 584 683 647 683 672 686 c 5
 672 639 l 5
 672 639 l 5
 602 639 l 5
 602 639 l 5
 602 380 l 5
 811 380 l 5
 811 639 l 5
 811 639 l 5
 740 639 l 5
 740 639 l 5
 740 686 l 5
 765 683 829 683 857 683 c 4
 885 683 948 683 973 686 c 5
 973 639 l 5
 973 639 l 5
 903 639 l 5
 903 639 l 5
 903 47 l 5
 903 47 l 5
 973 47 l 5
 973 47 l 5
 973 0 l 5
 948 3 885 3 857 3 c 4
 829 3 765 3 740 0 c 5
 740 47 l 5
 740 47 l 5
 811 47 l 5
 811 47 l 5
 811 333 l 5
 602 333 l 5
 602 47 l 5
 602 47 l 5
 672 47 l 5
 672 47 l 5
 672 0 l 5
 647 3 584 3 556 3 c 4
 528 3 464 3 439 0 c 5
24 -147 m 5
 69 -147 l 5
 69 -147 l 5
 69 357 l 6
 69 395 64 395 24 395 c 5
 24 442 l 5
 139 450 l 5
 139 401 l 5
 154 419 188 450 237 450 c 4
 331 450 390 356 390 223 c 4
 390 84 324 -6 226 -6 c 4
 199 -6 171 4 143 39 c 5
 143 39 l 5
 143 -147 l 5
 143 -147 l 5
 188 -147 l 5
 188 -194 l 5
 170 -193 131 -191 106 -191 c 4
 81 -191 42 -193 24 -194 c 5
 24 -147 l 5
143 117 m 6
 143 98 143 97 150 84 c 4
 179 30 210 30 219 30 c 4
 261 30 307 82 307 223 c 4
 307 349 271 410 227 410 c 4
 213 410 179 404 153 363 c 4
 144 349 143 348 143 329 c 6
 143 117 l 6
EndSplineSet
EndChar
StartChar: uF2E5E
Encoding: 994910 994910 120
Width: 1000
Flags: MW
LayerCount: 2
Fore
SplineSet
907 78 m 0
 907 125 925 156 942 156 c 0
 961 156 978 123 978 78 c 0
 978 39 963 0 942 0 c 0
 923 0 907 33 907 78 c 0
455 0 m 1
 455 47 l 1
 481 47 l 1
 481 47 l 1
 481 356 l 2
 481 395 483 395 455 395 c 1
 455 442 l 1
 537 450 l 1
 537 342 l 5
 545 405 573 450 613 450 c 0
 630 450 675 447 686 354 c 5
 692 400 717 450 758 450 c 0
 782 450 800 440 814 415 c 0
 827 392 834 356 834 306 c 2
 834 47 l 1
 860 47 l 1
 860 0 l 1
 847 1 824 3 803 3 c 0
 782 3 758 1 745 0 c 1
 745 47 l 1
 771 47 l 1
 771 47 l 1
 771 317 l 2
 771 394 766 414 751 414 c 0
 723 414 689 364 689 256 c 2
 689 47 l 1
 689 47 l 1
 715 47 l 1
 715 0 l 1
 702 1 678 3 657 3 c 0
 636 3 613 1 600 0 c 1
 600 47 l 1
 626 47 l 1
 626 47 l 1
 626 317 l 2
 626 394 621 414 606 414 c 0
 578 414 543 365 543 256 c 2
 543 47 l 1
 543 47 l 1
 570 47 l 1
 570 0 l 1
 557 1 533 3 512 3 c 0
 491 3 468 1 455 0 c 1
327 78 m 0
 327 125 345 156 362 156 c 0
 381 156 398 123 398 78 c 0
 398 39 383 0 362 0 c 0
 343 0 327 33 327 78 c 0
17 -147 m 1
 42 -147 l 1
 42 -147 l 1
 42 357 l 2
 42 395 45 395 17 395 c 1
 17 442 l 1
 101 450 l 1
 101 401 l 1
 114 419 132 450 166 450 c 0
 232 450 279 356 279 223 c 0
 279 84 226 -6 158 -6 c 0
 139 -6 128 4 105 39 c 1
 105 39 l 1
 105 -147 l 1
 105 -147 l 1
 131 -147 l 1
 131 -194 l 1
 118 -193 94 -191 73 -191 c 0
 52 -191 30 -193 17 -194 c 1
 17 -147 l 1
105 117 m 2
 105 98 105 97 111 84 c 0
 136 30 147 30 153 30 c 0
 183 30 209 82 209 223 c 0
 209 349 189 410 159 410 c 0
 149 410 135 404 113 363 c 0
 105 349 105 348 105 329 c 2
 105 117 l 2
EndSplineSet
EndChar
StartChar: uF502B
Encoding: 1003563 1003563 121
Width: 1000
Flags: MW
LayerCount: 2
Fore
SplineSet
531.5 379 m 0
 531.5 392 540.5 404 553.5 408 c 0
 555.5 409 557.5 409 560.5 409 c 0
 572.5 409 581.5 401 590.5 392 c 2
 749.5 233 l 1
 750.5 233 l 1
 909.5 392 l 2
 925.5 408 933.5 409 939.5 409 c 0
 957.5 409 968.5 394 968.5 379 c 0
 968.5 367 958.5 356 950.5 348 c 2
 859.5 257 l 0
 792.5 190 l 1
 952.5 30 l 2
 968.5 14 968.5 6 968.5 0 c 0
 968.5 -17 953.5 -29 939.5 -29 c 0
 927.5 -29 919.5 -22 909.5 -13 c 2
 750.5 147 l 1
 749.5 147 l 1
 590.5 -12 l 2
 580 -22 572.5 -29 560.5 -29 c 0
 544.5 -29 531.5 -16 531.5 0 c 0
 531.5 13 540 22 549.5 32 c 2
 707.5 190 l 1
 548.5 349 l 2
 540.5 356 531.5 367 531.5 379 c 0
39 319 m 0
 39 382 39 504 96 582 c 0
 127 625 176 655 250 655 c 0
 316 655 362 631 393 596 c 0
 461 519 461 385 461 319 c 0
 461 252 460 128 397 52 c 0
 366 14 320 -11 250 -11 c 0
 180 -11 134 14 103 52 c 0
 40 128 39 253 39 319 c 0
151 331 m 0
 151 276 151 172 159 120 c 0
 170 47 219 25 250 25 c 0
 276 25 331 39 343 132 c 0
 349 184 349 275 349 331 c 0
 349 413 350 519 335 556 c 0
 318 600 282 619 250 619 c 0
 229 619 168 609 158 520 c 0
 151 468 151 403 151 331 c 0
EndSplineSet
EndChar
StartChar: uF502C
Encoding: 1003564 1003564 122
Width: 1000
Flags: MW
LayerCount: 2
Fore
SplineSet
531.5 379 m 0
 531.5 392 540.5 404 553.5 408 c 0
 555.5 409 557.5 409 560.5 409 c 0
 572.5 409 581.5 401 590.5 392 c 2
 749.5 233 l 1
 750.5 233 l 1
 909.5 392 l 2
 925.5 408 933.5 409 939.5 409 c 0
 957.5 409 968.5 394 968.5 379 c 0
 968.5 367 958.5 356 950.5 348 c 2
 859.5 257 l 0
 792.5 190 l 1
 952.5 30 l 2
 968.5 14 968.5 6 968.5 0 c 0
 968.5 -17 953.5 -29 939.5 -29 c 0
 927.5 -29 919.5 -22 909.5 -13 c 2
 750.5 147 l 1
 749.5 147 l 1
 590.5 -12 l 2
 580 -22 572.5 -29 560.5 -29 c 0
 544.5 -29 531.5 -16 531.5 0 c 0
 531.5 13 540 22 549.5 32 c 2
 707.5 190 l 1
 548.5 349 l 2
 540.5 356 531.5 367 531.5 379 c 0
74 544 m 1
 74 591 l 1
 91 591 l 2
 109 591 200 591 267 648 c 0
 275 655 276 655 286 655 c 0
 309 655 308 645 308 623 c 2
 308 47 l 1
 430 47 l 5
 430 47 l 1
 430 0 l 1
 392 3 300 3 257 3 c 0
 214 3 122 3 84 0 c 1
 84 47 l 1
 84 47 l 1
 205 47 l 1
 205 564 l 1
 154 545 105 544 91 544 c 2
 74 544 l 1
EndSplineSet
EndChar
StartChar: uF502D
Encoding: 1003565 1003565 123
Width: 1000
Flags: MW
LayerCount: 2
Fore
SplineSet
531.5 379 m 0
 531.5 392 540.5 404 553.5 408 c 0
 555.5 409 557.5 409 560.5 409 c 0
 572.5 409 581.5 401 590.5 392 c 2
 749.5 233 l 1
 750.5 233 l 1
 909.5 392 l 2
 925.5 408 933.5 409 939.5 409 c 0
 957.5 409 968.5 394 968.5 379 c 0
 968.5 367 958.5 356 950.5 348 c 2
 859.5 257 l 0
 792.5 190 l 1
 952.5 30 l 2
 968.5 14 968.5 6 968.5 0 c 0
 968.5 -17 953.5 -29 939.5 -29 c 0
 927.5 -29 919.5 -22 909.5 -13 c 2
 750.5 147 l 1
 749.5 147 l 1
 590.5 -12 l 2
 580 -22 572.5 -29 560.5 -29 c 0
 544.5 -29 531.5 -16 531.5 0 c 0
 531.5 13 540 22 549.5 32 c 2
 707.5 190 l 1
 548.5 349 l 2
 540.5 356 531.5 367 531.5 379 c 0
50 0 m 1
 50 18 l 2
 50 38 50 40 61 52 c 2
 236 257 l 2
 297 328 330 396 330 465 c 0
 330 540 290 608 215 608 c 0
 184 608 150 597 125 573 c 1
 128 572 133 571 136 569 c 4
 153 561 175 543 175 501 c 0
 175 451 140 429 112 429 c 0
 91 429 50 444 50 503 c 0
 50 593 132 655 237 655 c 0
 360 655 450 581 450 466 c 0
 450 371 394 324 295 240 c 0
 256 207 211 164 170 125 c 1
 298 125 l 2
 312 125 377 125 387 131 c 0
 399 138 406 202 409 222 c 1
 450 222 l 1
 423 0 l 1
 50 0 l 1
EndSplineSet
EndChar
StartChar: uF502E
Encoding: 1003566 1003566 124
Width: 1000
Flags: MW
LayerCount: 2
Fore
SplineSet
531.5 379 m 0
 531.5 392 540.5 404 553.5 408 c 0
 555.5 409 557.5 409 560.5 409 c 0
 572.5 409 581.5 401 590.5 392 c 2
 749.5 233 l 1
 750.5 233 l 1
 909.5 392 l 2
 925.5 408 933.5 409 939.5 409 c 0
 957.5 409 968.5 394 968.5 379 c 0
 968.5 367 958.5 356 950.5 348 c 2
 859.5 257 l 0
 792.5 190 l 1
 952.5 30 l 2
 968.5 14 968.5 6 968.5 0 c 0
 968.5 -17 953.5 -29 939.5 -29 c 0
 927.5 -29 919.5 -22 909.5 -13 c 2
 750.5 147 l 1
 749.5 147 l 1
 590.5 -12 l 2
 580 -22 572.5 -29 560.5 -29 c 0
 544.5 -29 531.5 -16 531.5 0 c 0
 531.5 13 540 22 549.5 32 c 2
 707.5 190 l 1
 548.5 349 l 2
 540.5 356 531.5 367 531.5 379 c 0
42 139 m 0
 42 190 72 217 109 217 c 0
 147 217 175 186 175 141 c 0
 175 100 154 75 125 66 c 1
 167 36 211 32 234 32 c 0
 325 32 325 134 325 181 c 0
 325 232 325 330 230 330 c 2
 192 330 l 2
 176 330 167 330 167 348 c 0
 167 354 169 364 178 365 c 0
 182 366 184 367 220 369 c 0
 253 371 273 390 287 414 c 4
 311 455 311 511 311 519 c 0
 311 552 308 616 236 616 c 0
 209 616 170 608 140 580 c 1
 143 579 191 568 191 510 c 0
 191 473 169 441 130 441 c 0
 97 441 70 468 70 511 c 0
 70 591 137 655 241 655 c 0
 364 655 430 593 430 516 c 0
 430 430 367 373 307 352 c 1
 433 321 458 235 458 180 c 0
 458 89 395 -11 239 -11 c 0
 127 -11 42 49 42 139 c 0
EndSplineSet
EndChar
StartChar: uF502F
Encoding: 1003567 1003567 125
Width: 1000
Flags: MW
LayerCount: 2
Fore
SplineSet
531.5 379 m 0
 531.5 392 540.5 404 553.5 408 c 0
 555.5 409 557.5 409 560.5 409 c 0
 572.5 409 581.5 401 590.5 392 c 2
 749.5 233 l 1
 750.5 233 l 1
 909.5 392 l 2
 925.5 408 933.5 409 939.5 409 c 0
 957.5 409 968.5 394 968.5 379 c 0
 968.5 367 958.5 356 950.5 348 c 2
 859.5 257 l 0
 792.5 190 l 1
 952.5 30 l 2
 968.5 14 968.5 6 968.5 0 c 0
 968.5 -17 953.5 -29 939.5 -29 c 0
 927.5 -29 919.5 -22 909.5 -13 c 2
 750.5 147 l 1
 749.5 147 l 1
 590.5 -12 l 2
 580 -22 572.5 -29 560.5 -29 c 0
 544.5 -29 531.5 -16 531.5 0 c 0
 531.5 13 540 22 549.5 32 c 2
 707.5 190 l 1
 548.5 349 l 2
 540.5 356 531.5 367 531.5 379 c 0
28 156 m 1
 28 203 l 1
 332 640 l 2
 342 655 344 656 362 656 c 0
 386 656 388 651 388 624 c 2
 388 203 l 1
 472 203 l 1
 472 156 l 1
 388 156 l 1
 388 47 l 1
 472 47 l 5
 472 47 l 1
 472 0 l 1
 442 3 366 3 331 3 c 0
 294 3 214 3 181 0 c 1
 181 47 l 1
 181 47 l 1
 279 47 l 1
 279 156 l 1
 28 156 l 1
73 203 m 1
 288 203 l 1
 288 513 l 1
 73 203 l 1
EndSplineSet
EndChar
StartChar: uF5030
Encoding: 1003568 1003568 126
Width: 1000
Flags: MW
LayerCount: 2
Fore
SplineSet
531.5 379 m 0
 531.5 392 540.5 404 553.5 408 c 0
 555.5 409 557.5 409 560.5 409 c 0
 572.5 409 581.5 401 590.5 392 c 2
 749.5 233 l 1
 750.5 233 l 1
 909.5 392 l 2
 925.5 408 933.5 409 939.5 409 c 0
 957.5 409 968.5 394 968.5 379 c 0
 968.5 367 958.5 356 950.5 348 c 2
 859.5 257 l 0
 792.5 190 l 1
 952.5 30 l 2
 968.5 14 968.5 6 968.5 0 c 0
 968.5 -17 953.5 -29 939.5 -29 c 0
 927.5 -29 919.5 -22 909.5 -13 c 2
 750.5 147 l 1
 749.5 147 l 1
 590.5 -12 l 2
 580 -22 572.5 -29 560.5 -29 c 0
 544.5 -29 531.5 -16 531.5 0 c 0
 531.5 13 540 22 549.5 32 c 2
 707.5 190 l 1
 548.5 349 l 2
 540.5 356 531.5 367 531.5 379 c 0
50 159 m 0
 50 220 95 229 108 229 c 0
 129 229 166 214 166 161 c 0
 166 125 147 103 122 96 c 0
 119 95 114 94 110 94 c 1
 147 37 201 32 222 32 c 0
 259 32 283 44 299 64 c 5
 327 100 327 158 327 205 c 0
 327 254 326 307 308 340 c 0
 297 360 279 373 249 373 c 0
 213 373 166 363 132 317 c 0
 126 309 124 305 113 305 c 0
 94 305 94 318 94 336 c 2
 94 628 l 2
 94 644 94 655 106 655 c 0
 109 655 110 654 118 651 c 0
 141 642 187 623 253 623 c 0
 290 623 336 629 386 651 c 0
 396 655 396 655 399 655 c 0
 409 655 411 644 411 637 c 0
 411 612 331 499 204 499 c 0
 174 499 164 501 140 506 c 1
 140 374 l 1
 181 406 228 409 253 409 c 0
 382 409 450 316 450 201 c 0
 450 79 365 -11 226 -11 c 0
 118 -11 50 74 50 159 c 0
EndSplineSet
EndChar
StartChar: uF5031
Encoding: 1003569 1003569 127
Width: 1000
Flags: MW
LayerCount: 2
Fore
SplineSet
531.5 379 m 0
 531.5 392 540.5 404 553.5 408 c 0
 555.5 409 557.5 409 560.5 409 c 0
 572.5 409 581.5 401 590.5 392 c 2
 749.5 233 l 1
 750.5 233 l 1
 909.5 392 l 2
 925.5 408 933.5 409 939.5 409 c 0
 957.5 409 968.5 394 968.5 379 c 0
 968.5 367 958.5 356 950.5 348 c 2
 859.5 257 l 0
 792.5 190 l 1
 952.5 30 l 2
 968.5 14 968.5 6 968.5 0 c 0
 968.5 -17 953.5 -29 939.5 -29 c 0
 927.5 -29 919.5 -22 909.5 -13 c 2
 750.5 147 l 1
 749.5 147 l 1
 590.5 -12 l 2
 580 -22 572.5 -29 560.5 -29 c 0
 544.5 -29 531.5 -16 531.5 0 c 0
 531.5 13 540 22 549.5 32 c 2
 707.5 190 l 1
 548.5 349 l 2
 540.5 356 531.5 367 531.5 379 c 0
42 317 m 0
 42 569 186 655 304 655 c 0
 396 655 433 592 433 530 c 0
 433 492 412 466 378 466 c 0
 344 466 324 494 324 528 c 0
 324 558 340 585 371 590 c 1
 351 613 322 616 306 616 c 0
 253 616 206 580 185 533 c 0
 179 518 160 475 160 361 c 2
 160 342 l 1
 197 418 246 418 265 418 c 0
 370 418 458 345 458 205 c 0
 458 71 374 -11 253 -11 c 0
 192 -11 126 13 85 89 c 1
 49 158 42 238 42 317 c 0
162 210 m 0
 162 192 162 119 176 87 c 0
 183 71 207 32 252 32 c 0
 297 32 319 51 329 84 c 4
 339 115 340 158 340 207 c 0
 340 259 340 305 328 336 c 0
 318 365 296 382 257 382 c 0
 209 382 162 335 162 210 c 0
EndSplineSet
EndChar
StartChar: uF5032
Encoding: 1003570 1003570 128
Width: 1000
Flags: MW
LayerCount: 2
Fore
SplineSet
531.5 379 m 0
 531.5 392 540.5 404 553.5 408 c 0
 555.5 409 557.5 409 560.5 409 c 0
 572.5 409 581.5 401 590.5 392 c 2
 749.5 233 l 1
 750.5 233 l 1
 909.5 392 l 2
 925.5 408 933.5 409 939.5 409 c 0
 957.5 409 968.5 394 968.5 379 c 0
 968.5 367 958.5 356 950.5 348 c 2
 859.5 257 l 0
 792.5 190 l 1
 952.5 30 l 2
 968.5 14 968.5 6 968.5 0 c 0
 968.5 -17 953.5 -29 939.5 -29 c 0
 927.5 -29 919.5 -22 909.5 -13 c 2
 750.5 147 l 1
 749.5 147 l 1
 590.5 -12 l 2
 580 -22 572.5 -29 560.5 -29 c 0
 544.5 -29 531.5 -16 531.5 0 c 0
 531.5 13 540 22 549.5 32 c 2
 707.5 190 l 1
 548.5 349 l 2
 540.5 356 531.5 367 531.5 379 c 0
56 422 m 1
 86 676 l 1
 127 676 l 1
 129 666 130 657 148 653 c 1
 160 649 288 644 308 644 c 2
 486 644 l 1
 486 609 486 607 477 596 c 2
 342 416 l 2
 312 375 294 316 286 249 c 0
 280 202 277 154 277 106 c 2
 277 60 l 2
 277 -6 236 -11 222 -11 c 0
 217 -11 168 -11 168 59 c 0
 168 207 230 342 314 454 c 2
 362 519 l 1
 215 519 l 2
 200 519 130 519 120 513 c 0
 117 511 106 498 97 422 c 1
 56 422 l 1
EndSplineSet
EndChar
StartChar: uF5033
Encoding: 1003571 1003571 129
Width: 1000
Flags: MW
LayerCount: 2
Fore
SplineSet
531.5 379 m 0
 531.5 392 540.5 404 553.5 408 c 0
 555.5 409 557.5 409 560.5 409 c 0
 572.5 409 581.5 401 590.5 392 c 2
 749.5 233 l 1
 750.5 233 l 1
 909.5 392 l 2
 925.5 408 933.5 409 939.5 409 c 0
 957.5 409 968.5 394 968.5 379 c 0
 968.5 367 958.5 356 950.5 348 c 2
 859.5 257 l 0
 792.5 190 l 1
 952.5 30 l 2
 968.5 14 968.5 6 968.5 0 c 0
 968.5 -17 953.5 -29 939.5 -29 c 0
 927.5 -29 919.5 -22 909.5 -13 c 2
 750.5 147 l 1
 749.5 147 l 1
 590.5 -12 l 2
 580 -22 572.5 -29 560.5 -29 c 0
 544.5 -29 531.5 -16 531.5 0 c 0
 531.5 13 540 22 549.5 32 c 2
 707.5 190 l 1
 548.5 349 l 2
 540.5 356 531.5 367 531.5 379 c 0
42 161 m 0
 42 235 80 292 153 329 c 1
 131 343 115 359 103 376 c 4
 77 412 70 450 70 480 c 0
 70 576 131 655 252 655 c 0
 351 655 430 610 430 508 c 0
 430 450 403 406 342 370 c 1
 362 357 389 340 412 314 c 0
 438 285 458 245 458 187 c 0
 458 77 387 -11 248 -11 c 0
 136 -11 42 40 42 161 c 0
117 161 m 0
 117 83 167 32 252 32 c 0
 302 32 383 48 383 132 c 0
 383 180 351 201 313 226 c 0
 265 257 223 284 193 302 c 1
 163 282 117 239 117 161 c 0
135 539 m 0
 135 505 159 488 173 479 c 2
 304 395 l 1
 342 424 365 458 365 507 c 0
 365 575 321 616 248 616 c 0
 213 616 135 609 135 539 c 0
EndSplineSet
EndChar
StartChar: uF5034
Encoding: 1003572 1003572 130
Width: 1000
Flags: MW
LayerCount: 2
Fore
SplineSet
531.5 379 m 0
 531.5 392 540.5 404 553.5 408 c 0
 555.5 409 557.5 409 560.5 409 c 0
 572.5 409 581.5 401 590.5 392 c 2
 749.5 233 l 1
 750.5 233 l 1
 909.5 392 l 2
 925.5 408 933.5 409 939.5 409 c 0
 957.5 409 968.5 394 968.5 379 c 0
 968.5 367 958.5 356 950.5 348 c 2
 859.5 257 l 0
 792.5 190 l 1
 952.5 30 l 2
 968.5 14 968.5 6 968.5 0 c 0
 968.5 -17 953.5 -29 939.5 -29 c 0
 927.5 -29 919.5 -22 909.5 -13 c 2
 750.5 147 l 1
 749.5 147 l 1
 590.5 -12 l 2
 580 -22 572.5 -29 560.5 -29 c 0
 544.5 -29 531.5 -16 531.5 0 c 0
 531.5 13 540 22 549.5 32 c 2
 707.5 190 l 1
 548.5 349 l 2
 540.5 356 531.5 367 531.5 379 c 0
42 440 m 0
 42 510 66 567 106 604 c 5
 143 637 194 655 252 655 c 0
 458 655 458 396 458 329 c 0
 458 73 321 -11 208 -11 c 0
 111 -11 67 46 67 114 c 0
 67 152 88 178 122 178 c 0
 156 178 176 150 176 116 c 0
 176 71 143 57 133 54 c 1
 159 34 190 32 206 32 c 0
 266 32 304 77 319 116 c 0
 332 150 340 209 340 282 c 2
 340 304 l 1
 307 234 265 227 235 227 c 0
 128 227 42 302 42 440 c 0
160 438 m 0
 160 384 160 338 173 306 c 0
 184 279 205 263 243 263 c 0
 316 263 339 365 339 428 c 0
 339 462 338 520 328 553 c 0
 325 563 304 616 253 616 c 0
 210 616 188 599 175 572 c 0
 160 539 160 491 160 438 c 0
EndSplineSet
EndChar
StartChar: uF5038
Encoding: 1003576 1003576 134
Width: 1000
Flags: MW
LayerCount: 2
Fore
SplineSet
542 139 m 0
 542 190 572 217 609 217 c 0
 647 217 675 186 675 141 c 0
 675 100 654 75 625 66 c 1
 667 36 711 32 734 32 c 0
 825 32 825 134 825 181 c 0
 825 232 825 330 730 330 c 2
 692 330 l 2
 676 330 667 330 667 348 c 0
 667 354 669 364 678 365 c 0
 682 366 684 367 720 369 c 0
 753 371 773 390 787 414 c 4
 811 455 811 511 811 519 c 0
 811 552 808 616 736 616 c 0
 709 616 670 608 640 580 c 1
 643 579 691 568 691 510 c 0
 691 473 669 441 630 441 c 0
 597 441 570 468 570 511 c 0
 570 591 637 655 741 655 c 0
 864 655 930 593 930 516 c 0
 930 430 867 373 807 352 c 1
 933 321 958 235 958 180 c 0
 958 89 895 -11 739 -11 c 0
 627 -11 542 49 542 139 c 0
EndSplineSet
EndChar
StartChar: uF5039
Encoding: 1003577 1003577 135
Width: 1000
Flags: MW
LayerCount: 2
Fore
SplineSet
528 156 m 1
 528 203 l 1
 832 640 l 2
 842 655 844 656 862 656 c 0
 886 656 888 651 888 624 c 2
 888 203 l 1
 972 203 l 1
 972 156 l 1
 888 156 l 1
 888 47 l 1
 972 47 l 5
 972 47 l 1
 972 0 l 1
 942 3 866 3 831 3 c 0
 794 3 714 3 681 0 c 1
 681 47 l 1
 681 47 l 1
 779 47 l 1
 779 156 l 1
 528 156 l 1
573 203 m 1
 788 203 l 1
 788 513 l 1
 573 203 l 1
EndSplineSet
EndChar
StartChar: uF503B
Encoding: 1003579 1003579 137
Width: 1000
Flags: MW
LayerCount: 2
Fore
SplineSet
542 317 m 0
 542 569 686 655 804 655 c 0
 896 655 933 592 933 530 c 0
 933 492 912 466 878 466 c 0
 844 466 824 494 824 528 c 0
 824 558 840 585 871 590 c 1
 851 613 822 616 806 616 c 0
 753 616 706 580 685 533 c 0
 679 518 660 475 660 361 c 2
 660 342 l 1
 697 418 746 418 765 418 c 0
 870 418 958 345 958 205 c 0
 958 71 874 -11 753 -11 c 0
 692 -11 626 13 585 89 c 1
 549 158 542 238 542 317 c 0
662 210 m 0
 662 192 662 119 676 87 c 0
 683 71 707 32 752 32 c 0
 797 32 819 51 829 84 c 4
 839 115 840 158 840 207 c 0
 840 259 840 305 828 336 c 0
 818 365 796 382 757 382 c 0
 709 382 662 335 662 210 c 0
EndSplineSet
EndChar
StartChar: uF503C
Encoding: 1003580 1003580 138
Width: 1000
Flags: MW
LayerCount: 2
Fore
SplineSet
556 422 m 1
 586 676 l 1
 627 676 l 1
 629 666 630 657 648 653 c 1
 660 649 788 644 808 644 c 2
 986 644 l 1
 986 609 986 607 977 596 c 2
 842 416 l 2
 812 375 794 316 786 249 c 0
 780 202 777 154 777 106 c 2
 777 60 l 2
 777 -6 736 -11 722 -11 c 0
 717 -11 668 -11 668 59 c 0
 668 207 730 342 814 454 c 2
 862 519 l 1
 715 519 l 2
 700 519 630 519 620 513 c 0
 617 511 606 498 597 422 c 1
 556 422 l 1
EndSplineSet
EndChar
StartChar: uF503E
Encoding: 1003582 1003582 140
Width: 1000
Flags: MW
LayerCount: 2
Fore
SplineSet
542 440 m 0
 542 510 566 567 606 604 c 5
 643 637 694 655 752 655 c 0
 958 655 958 396 958 329 c 0
 958 73 821 -11 708 -11 c 0
 611 -11 567 46 567 114 c 0
 567 152 588 178 622 178 c 0
 656 178 676 150 676 116 c 0
 676 71 643 57 633 54 c 1
 659 34 690 32 706 32 c 0
 766 32 804 77 819 116 c 0
 832 150 840 209 840 282 c 2
 840 304 l 1
 807 234 765 227 735 227 c 0
 628 227 542 302 542 440 c 0
660 438 m 0
 660 384 660 338 673 306 c 0
 684 279 705 263 743 263 c 0
 816 263 839 365 839 428 c 0
 839 462 838 520 828 553 c 0
 825 563 804 616 753 616 c 0
 710 616 688 599 675 572 c 0
 660 539 660 491 660 438 c 0
EndSplineSet
EndChar
StartChar: uF503F
Encoding: 1003583 1003583 141
Width: 1000
Flags: MW
LayerCount: 2
Fore
SplineSet
39 319 m 0
 39 382 39 504 96 582 c 0
 127 625 176 655 250 655 c 0
 316 655 362 631 393 596 c 0
 461 519 461 385 461 319 c 0
 461 252 460 128 397 52 c 0
 366 14 320 -11 250 -11 c 0
 180 -11 134 14 103 52 c 0
 40 128 39 253 39 319 c 0
151 331 m 0
 151 276 151 172 159 120 c 0
 170 47 219 25 250 25 c 0
 276 25 331 39 343 132 c 0
 349 184 349 275 349 331 c 0
 349 413 350 519 335 556 c 0
 318 600 282 619 250 619 c 0
 229 619 168 609 158 520 c 0
 151 468 151 403 151 331 c 0
EndSplineSet
EndChar
StartChar: uF5040
Encoding: 1003584 1003584 142
Width: 1000
Flags: MW
LayerCount: 2
Fore
SplineSet
74 544 m 1
 74 591 l 1
 91 591 l 2
 109 591 200 591 267 648 c 0
 275 655 276 655 286 655 c 0
 309 655 308 645 308 623 c 2
 308 47 l 1
 430 47 l 5
 430 47 l 1
 430 0 l 1
 392 3 300 3 257 3 c 0
 214 3 122 3 84 0 c 1
 84 47 l 1
 84 47 l 1
 205 47 l 1
 205 564 l 1
 154 545 105 544 91 544 c 2
 74 544 l 1
EndSplineSet
EndChar
StartChar: uF5043
Encoding: 1003587 1003587 145
Width: 1000
Flags: MW
LayerCount: 2
Fore
SplineSet
28 156 m 1
 28 203 l 1
 332 640 l 2
 342 655 344 656 362 656 c 0
 386 656 388 651 388 624 c 2
 388 203 l 1
 472 203 l 1
 472 156 l 1
 388 156 l 1
 388 47 l 1
 472 47 l 5
 472 47 l 1
 472 0 l 1
 442 3 366 3 331 3 c 0
 294 3 214 3 181 0 c 1
 181 47 l 1
 181 47 l 1
 279 47 l 1
 279 156 l 1
 28 156 l 1
73 203 m 1
 288 203 l 1
 288 513 l 1
 73 203 l 1
EndSplineSet
EndChar
StartChar: uF5045
Encoding: 1003589 1003589 147
Width: 1000
Flags: MW
LayerCount: 2
Fore
SplineSet
42 317 m 0
 42 569 186 655 304 655 c 0
 396 655 433 592 433 530 c 0
 433 492 412 466 378 466 c 0
 344 466 324 494 324 528 c 0
 324 558 340 585 371 590 c 1
 351 613 322 616 306 616 c 0
 253 616 206 580 185 533 c 0
 179 518 160 475 160 361 c 2
 160 342 l 1
 197 418 246 418 265 418 c 0
 370 418 458 345 458 205 c 0
 458 71 374 -11 253 -11 c 0
 192 -11 126 13 85 89 c 1
 49 158 42 238 42 317 c 0
162 210 m 0
 162 192 162 119 176 87 c 0
 183 71 207 32 252 32 c 0
 297 32 319 51 329 84 c 4
 339 115 340 158 340 207 c 0
 340 259 340 305 328 336 c 0
 318 365 296 382 257 382 c 0
 209 382 162 335 162 210 c 0
EndSplineSet
EndChar
StartChar: uF5047
Encoding: 1003591 1003591 149
Width: 1000
Flags: MW
LayerCount: 2
Fore
SplineSet
42 161 m 0
 42 235 80 292 153 329 c 1
 131 343 115 359 103 376 c 4
 77 412 70 450 70 480 c 0
 70 576 131 655 252 655 c 0
 351 655 430 610 430 508 c 0
 430 450 403 406 342 370 c 1
 362 357 389 340 412 314 c 0
 438 285 458 245 458 187 c 0
 458 77 387 -11 248 -11 c 0
 136 -11 42 40 42 161 c 0
117 161 m 0
 117 83 167 32 252 32 c 0
 302 32 383 48 383 132 c 0
 383 180 351 201 313 226 c 0
 265 257 223 284 193 302 c 1
 163 282 117 239 117 161 c 0
135 539 m 0
 135 505 159 488 173 479 c 2
 304 395 l 1
 342 424 365 458 365 507 c 0
 365 575 321 616 248 616 c 0
 213 616 135 609 135 539 c 0
EndSplineSet
EndChar
StartChar: uF506B
Encoding: 1003627 1003627 151
Width: 1000
Flags: MW
LayerCount: 2
Fore
SplineSet
832 78 m 0
 832 125 867 156 900 156 c 0
 936 156 968 123 968 78 c 0
 968 39 940 0 900 0 c 0
 864 0 832 33 832 78 c 0
389 319 m 0
 389 382 389 504 446 582 c 0
 477 625 526 655 600 655 c 0
 666 655 712 631 743 596 c 0
 811 519 811 385 811 319 c 0
 811 252 810 128 747 52 c 0
 716 14 670 -11 600 -11 c 0
 530 -11 484 14 453 52 c 0
 390 128 389 253 389 319 c 0
501 331 m 0
 501 276 501 172 509 120 c 0
 520 47 569 25 600 25 c 0
 626 25 681 39 693 132 c 0
 699 184 699 275 699 331 c 0
 699 413 700 519 685 556 c 0
 668 600 632 619 600 619 c 0
 579 619 518 609 508 520 c 0
 501 468 501 403 501 331 c 0
24 544 m 1
 24 591 l 1
 41 591 l 2
 59 591 150 591 217 648 c 0
 225 655 226 655 236 655 c 0
 259 655 258 645 258 623 c 2
 258 47 l 1
 380 47 l 5
 380 47 l 1
 380 0 l 1
 342 3 250 3 207 3 c 0
 164 3 72 3 34 0 c 1
 34 47 l 1
 34 47 l 1
 155 47 l 1
 155 564 l 1
 104 545 55 544 41 544 c 2
 24 544 l 1
EndSplineSet
EndChar
StartChar: uF506C
Encoding: 1003628 1003628 152
Width: 1000
Flags: MW
LayerCount: 2
Fore
SplineSet
832 78 m 0
 832 125 867 156 900 156 c 0
 936 156 968 123 968 78 c 0
 968 39 940 0 900 0 c 0
 864 0 832 33 832 78 c 0
424 544 m 1
 424 591 l 1
 441 591 l 2
 459 591 550 591 617 648 c 0
 625 655 626 655 636 655 c 0
 659 655 658 645 658 623 c 2
 658 47 l 1
 780 47 l 5
 780 47 l 1
 780 0 l 1
 742 3 650 3 607 3 c 0
 564 3 472 3 434 0 c 1
 434 47 l 1
 434 47 l 1
 555 47 l 1
 555 564 l 1
 504 545 455 544 441 544 c 2
 424 544 l 1
24 544 m 1
 24 591 l 1
 41 591 l 2
 59 591 150 591 217 648 c 0
 225 655 226 655 236 655 c 0
 259 655 258 645 258 623 c 2
 258 47 l 1
 380 47 l 5
 380 47 l 1
 380 0 l 1
 342 3 250 3 207 3 c 0
 164 3 72 3 34 0 c 1
 34 47 l 1
 34 47 l 1
 155 47 l 1
 155 564 l 1
 104 545 55 544 41 544 c 2
 24 544 l 1
EndSplineSet
EndChar
StartChar: uF506D
Encoding: 1003629 1003629 153
Width: 1000
Flags: MW
LayerCount: 2
Fore
SplineSet
522 156 m 0
 524 211 555 414 636 543 c 0
 659 579 686 609 716 629 c 1
 746 650 789 666 836 666 c 0
 910 666 984 630 978 486 c 0
 976 435 953 294 908 183 c 4
 898 156 885 131 872 110 c 0
 800 -11 705 -22 664 -22 c 0
 590 -22 517 14 522 156 c 0
608 103 m 0
 606 48 633 15 674 15 c 0
 718 15 764 54 788 113 c 0
 814 177 891 468 894 545 c 0
 896 600 867 630 827 630 c 0
 787 630 752 600 731 570 c 0
 687 504 610 160 608 103 c 0
22 156 m 0
 24 211 55 414 136 543 c 0
 159 579 186 609 216 629 c 1
 246 650 289 666 336 666 c 0
 410 666 484 630 478 486 c 0
 476 435 453 294 408 183 c 4
 398 156 385 131 372 110 c 0
 300 -11 205 -22 164 -22 c 0
 90 -22 17 14 22 156 c 0
108 103 m 0
 106 48 133 15 174 15 c 0
 218 15 264 54 288 113 c 0
 314 177 391 468 394 545 c 0
 396 600 367 630 327 630 c 0
 287 630 252 600 231 570 c 0
 187 504 110 160 108 103 c 0
EndSplineSet
EndChar
StartChar: uF506E
Encoding: 1003630 1003630 154
Width: 1000
Flags: MW
LayerCount: 2
Fore
SplineSet
575 20 m 0
 576 34 582 48 602 48 c 2
 615 48 l 2
 694 48 688 48 695 78 c 2
 803 509 l 1
 784 500 744 480 706 480 c 0
 690 480 685 490 685 501 c 0
 686 516 692 522 701 526 c 0
 713 530 729 530 744 534 c 0
 801 548 855 591 892 640 c 0
 898 647 906 656 915 656 c 0
 925 656 930 648 930 637 c 0
 930 630 928 620 924 604 c 2
 800 108 l 1
 785 50 l 1
 793 49 799 48 807 48 c 4
 843 48 l 2
 864 48 l 2
 876 48 888 46 887 27 c 0
 887 16 881 0 862 0 c 0
 849 0 811 3 733 3 c 0
 629 3 608 0 597 0 c 0
 578 0 575 12 575 20 c 0
70 156 m 0
 72 211 104 414 185 543 c 0
 208 579 235 609 265 629 c 1
 295 650 338 666 385 666 c 0
 459 666 533 630 527 486 c 0
 525 435 501 294 456 183 c 4
 446 156 434 131 421 110 c 0
 349 -11 254 -22 213 -22 c 0
 139 -22 65 14 70 156 c 0
156 103 m 0
 154 48 182 15 223 15 c 0
 267 15 313 54 337 113 c 0
 363 177 440 468 443 545 c 0
 445 600 415 630 375 630 c 0
 335 630 301 600 280 570 c 0
 236 504 158 160 156 103 c 0
EndSplineSet
EndChar
StartChar: uF506F
Encoding: 1003631 1003631 155
Width: 1000
Flags: MW
LayerCount: 2
Fore
SplineSet
504 -6 m 0
 504 3 511 25 517 38 c 0
 538 92 568 135 598 169 c 0
 654 230 712 260 732 274 c 0
 842 352 857 423 871 484 c 0
 875 503 878 523 879 543 c 0
 882 612 843 630 813 630 c 0
 713 630 637 480 634 412 c 0
 633 397 636 384 650 384 c 0
 691 384 734 462 735 499 c 0
 736 513 731 522 728 529 c 0
 726 533 725 536 725 540 c 0
 725 548 733 559 743 559 c 0
 757 559 768 527 767 501 c 0
 765 451 714 347 644 347 c 0
 608 347 586 378 588 420 c 0
 591 503 686 666 819 666 c 0
 909 666 975 610 971 500 c 0
 967 391 919 328 756 229 c 0
 695 192 656 171 602 99 c 1
 610 99 617 98 625 98 c 4
 651 97 679 94 705 91 c 0
 735 87 765 84 791 84 c 0
 847 84 881 128 893 163 c 0
 899 179 901 183 918 183 c 0
 937 183 942 178 942 168 c 0
 941 136 879 -22 774 -22 c 0
 737 -22 708 -1 681 20 c 0
 655 41 631 62 601 62 c 0
 593 62 585 60 575 48 c 0
 560 28 556 10 552 -3 c 0
 548 -15 543 -22 528 -22 c 2
 523 -22 l 2
 515 -22 503 -21 504 -6 c 0
29 156 m 0
 31 211 63 414 144 543 c 0
 167 579 194 609 224 629 c 1
 254 650 297 666 344 666 c 0
 418 666 492 630 486 486 c 0
 484 435 460 294 415 183 c 4
 405 156 393 131 380 110 c 0
 308 -11 213 -22 172 -22 c 0
 98 -22 24 14 29 156 c 0
115 103 m 0
 113 48 141 15 182 15 c 0
 226 15 272 54 296 113 c 0
 322 177 399 468 402 545 c 0
 404 600 374 630 334 630 c 0
 294 630 260 600 239 570 c 0
 195 504 117 160 115 103 c 0
EndSplineSet
EndChar
StartChar: uF5070
Encoding: 1003632 1003632 156
Width: 1000
Flags: MW
LayerCount: 2
Fore
SplineSet
518 114 m 0
 521 186 559 206 584 206 c 0
 609 206 625 187 624 160 c 0
 623 132 603 96 566 90 c 1
 577 32 613 15 649 15 c 0
 691 15 733 38 758 83 c 0
 777 117 801 214 802 250 c 0
 804 311 762 311 743 311 c 2
 717 311 l 2
 705 311 693 311 694 328 c 0
 695 361 715 359 717 359 c 2
 751 359 l 2
 781 359 803 365 823 382 c 1
 881 427 893 563 893 563 c 1
 895 616 860 630 832 630 c 0
 752 630 671 553 668 478 c 0
 667 462 671 450 685 450 c 0
 706 450 729 476 730 500 c 0
 731 513 726 522 723 530 c 4
 721 534 720 537 720 541 c 0
 720 551 731 560 737 560 c 0
 748 560 763 533 762 502 c 0
 760 455 719 412 678 412 c 0
 642 412 621 445 622 483 c 0
 625 559 710 666 837 666 c 0
 918 666 980 623 976 532 c 0
 974 487 951 395 868 343 c 0
 858 337 847 332 837 327 c 1
 890 296 895 239 894 206 c 0
 890 94 799 -22 648 -22 c 0
 569 -22 515 32 518 114 c 0
25 156 m 0
 27 211 58 414 139 543 c 0
 162 579 189 609 219 629 c 1
 249 650 292 666 339 666 c 0
 413 666 487 630 481 486 c 0
 479 435 456 294 411 183 c 4
 401 156 388 131 375 110 c 0
 303 -11 208 -22 167 -22 c 0
 93 -22 20 14 25 156 c 0
111 103 m 0
 109 48 136 15 177 15 c 0
 221 15 267 54 291 113 c 0
 317 177 394 468 397 545 c 0
 399 600 370 630 330 630 c 0
 290 630 255 600 234 570 c 0
 190 504 113 160 111 103 c 0
EndSplineSet
EndChar
StartChar: uF5071
Encoding: 1003633 1003633 157
Width: 1000
Flags: MW
LayerCount: 2
Fore
SplineSet
509 28 m 0
 510 43 522 48 547 68 c 0
 565 83 592 105 626 146 c 0
 659 185 688 227 712 269 c 0
 807 434 840 603 851 629 c 0
 859 648 877 666 900 666 c 0
 922 666 938 648 937 624 c 0
 936 598 905 510 897 490 c 0
 827 305 723 172 622 76 c 1
 632 76 l 2
 661 76 680 72 701 65 c 0
 716 60 732 54 753 46 c 1
 770 115 779 153 785 175 c 4
 793 204 795 204 801 212 c 1
 811 226 827 236 842 236 c 0
 863 236 880 219 879 194 c 0
 879 188 877 181 874 168 c 0
 869 147 859 108 838 24 c 1
 844 24 849 25 853 25 c 0
 872 27 883 30 892 33 c 0
 898 35 903 36 906 36 c 0
 914 36 924 19 924 10 c 0
 923 -7 885 -19 848 -23 c 0
 840 -24 834 -24 826 -24 c 1
 813 -83 803 -117 797 -138 c 0
 787 -171 785 -169 781 -174 c 0
 770 -186 755 -194 741 -194 c 0
 720 -194 705 -177 706 -152 c 0
 706 -147 708 -136 711 -122 c 0
 719 -86 735 -30 741 -1 c 1
 723 5 708 12 690 18 c 0
 672 24 651 28 625 28 c 0
 586 28 567 23 556 18 c 0
 541 11 541 2 529 2 c 0
 518 2 509 18 509 28 c 0
63 156 m 0
 65 211 97 414 178 543 c 0
 201 579 228 609 258 629 c 1
 288 650 331 666 378 666 c 0
 452 666 526 630 520 486 c 0
 518 435 494 294 449 183 c 4
 439 156 427 131 414 110 c 0
 342 -11 247 -22 206 -22 c 0
 132 -22 58 14 63 156 c 0
149 103 m 0
 147 48 175 15 216 15 c 0
 260 15 306 54 330 113 c 0
 356 177 433 468 436 545 c 0
 438 600 409 630 369 630 c 0
 329 630 294 600 273 570 c 0
 229 504 151 160 149 103 c 0
EndSplineSet
EndChar
StartChar: uF5072
Encoding: 1003634 1003634 158
Width: 1000
Flags: MW
LayerCount: 2
Fore
SplineSet
526 120 m 0
 529 203 572 225 599 225 c 0
 624 225 643 205 642 175 c 0
 641 156 629 108 581 99 c 0
 579 99 578 98 575 98 c 1
 586 24 633 22 647 22 c 0
 678 22 707 40 726 60 c 0
 739 75 752 98 762 125 c 0
 794 207 809 321 809 328 c 0
 810 349 803 384 768 384 c 0
 758 384 706 382 656 326 c 0
 645 315 642 305 627 305 c 0
 616 305 606 311 607 325 c 0
 607 332 610 340 611 347 c 2
 685 643 l 2
 688 652 691 665 702 665 c 0
 705 665 711 663 718 659 c 0
 737 650 771 634 826 634 c 0
 887 634 934 654 955 662 c 4
 960 664 963 665 966 665 c 0
 973 665 978 659 978 651 c 0
 977 635 962 621 953 612 c 0
 905 561 835 517 758 517 c 0
 744 517 731 518 718 521 c 0
 715 522 712 522 709 523 c 1
 709 523 l 1
 676 389 l 1
 704 407 734 420 775 420 c 0
 857 420 913 365 909 264 c 0
 904 139 814 -22 644 -22 c 0
 568 -22 523 40 526 120 c 0
23 156 m 0
 25 211 56 414 137 543 c 0
 160 579 187 609 217 629 c 1
 247 650 291 666 338 666 c 0
 412 666 486 630 480 486 c 0
 478 435 454 294 409 183 c 4
 399 156 386 131 373 110 c 0
 301 -11 207 -22 166 -22 c 0
 92 -22 18 14 23 156 c 0
109 103 m 0
 107 48 135 15 176 15 c 0
 220 15 265 54 289 113 c 0
 315 177 393 468 396 545 c 0
 398 600 368 630 328 630 c 0
 288 630 253 600 232 570 c 0
 188 504 111 160 109 103 c 0
EndSplineSet
EndChar
StartChar: uF5073
Encoding: 1003635 1003635 159
Width: 1000
Flags: MW
LayerCount: 2
Fore
SplineSet
539 165 m 0
 542 230 564 331 590 402 c 0
 609 452 631 496 658 532 c 0
 721 619 804 666 884 666 c 0
 963 666 978 611 977 573 c 0
 975 516 943 485 911 485 c 0
 887 485 870 504 871 532 c 0
 872 556 888 592 925 601 c 1
 916 617 905 627 880 627 c 0
 859 627 799 616 750 537 c 0
 719 489 702 426 685 364 c 1
 725 424 766 429 789 429 c 0
 899 429 923 332 921 275 c 0
 920 241 905 162 872 105 c 0
 848 65 804 18 758 -4 c 0
 734 -15 707 -22 673 -22 c 0
 601 -22 533 21 539 165 c 0
626 93 m 0
 625 63 635 22 676 22 c 0
 719 22 745 48 763 85 c 0
 781 123 792 172 804 218 c 0
 811 246 826 306 827 333 c 0
 828 348 825 364 816 376 c 4
 809 386 798 392 779 392 c 0
 666 392 627 118 626 93 c 0
23 156 m 0
 25 211 57 414 138 543 c 0
 161 579 188 609 218 629 c 1
 248 650 291 666 338 666 c 0
 412 666 486 630 480 486 c 0
 478 435 454 294 409 183 c 4
 399 156 387 131 374 110 c 0
 302 -11 207 -22 166 -22 c 0
 92 -22 18 14 23 156 c 0
109 103 m 0
 107 48 135 15 176 15 c 0
 220 15 266 54 290 113 c 0
 316 177 393 468 396 545 c 0
 398 600 368 630 328 630 c 0
 288 630 254 600 233 570 c 0
 189 504 111 160 109 103 c 0
EndSplineSet
EndChar
StartChar: uF5074
Encoding: 1003636 1003636 160
Width: 1000
Flags: MW
LayerCount: 2
Fore
SplineSet
528 446 m 0
 528 450 529 452 541 477 c 4
 553 502 575 549 619 642 c 0
 627 661 630 666 646 666 c 2
 652 666 l 2
 668 666 671 660 671 652 c 0
 671 642 664 629 660 622 c 1
 709 659 751 666 773 666 c 0
 803 666 814 646 820 624 c 0
 828 596 830 563 855 563 c 0
 898 563 945 632 961 653 c 0
 966 660 971 664 975 665 c 0
 978 666 982 666 986 666 c 2
 992 666 l 2
 1002 666 1011 664 1011 652 c 0
 1011 643 1003 635 999 629 c 0
 956 565 920 500 890 437 c 0
 793 234 758 55 747 24 c 1
 731 -14 699 -22 686 -22 c 0
 662 -22 643 -4 644 27 c 0
 645 45 658 89 667 115 c 0
 682 163 707 226 745 303 c 0
 778 368 821 444 879 531 c 1
 869 528 858 526 848 526 c 0
 825 526 811 537 794 547 c 0
 782 555 769 561 750 561 c 0
 730 561 632 548 574 442 c 0
 569 431 561 431 553 431 c 2
 545 431 l 2
 532 431 528 437 528 446 c 0
-10 156 m 0
 -8 211 23 414 104 543 c 0
 127 579 154 609 184 629 c 1
 214 650 258 666 305 666 c 0
 379 666 453 630 447 486 c 0
 445 435 421 294 376 183 c 4
 366 156 353 131 340 110 c 0
 268 -11 174 -22 133 -22 c 0
 59 -22 -15 14 -10 156 c 0
76 103 m 0
 74 48 102 15 143 15 c 0
 187 15 232 54 256 113 c 0
 282 177 360 468 363 545 c 0
 365 600 335 630 295 630 c 0
 255 630 220 600 199 570 c 0
 155 504 78 160 76 103 c 0
EndSplineSet
EndChar
StartChar: uF5075
Encoding: 1003637 1003637 161
Width: 1000
Flags: MW
LayerCount: 2
Fore
SplineSet
523 114 m 0
 526 201 576 278 675 330 c 1
 661 343 650 357 643 373 c 0
 633 395 629 420 630 446 c 0
 633 534 704 666 841 666 c 0
 911 666 975 633 972 547 c 0
 969 476 928 411 849 369 c 1
 849 368 l 1
 861 358 882 341 897 312 c 4
 908 290 916 262 915 226 c 0
 911 124 830 -22 672 -22 c 0
 593 -22 519 16 523 114 c 0
596 113 m 0
 594 66 614 21 681 21 c 0
 771 21 824 95 826 156 c 0
 828 197 804 217 797 223 c 2
 708 302 l 1
 642 262 599 182 596 113 c 0
712 521 m 0
 711 499 718 485 738 465 c 0
 755 448 781 428 818 396 c 1
 819 396 l 1
 892 449 906 515 907 550 c 0
 909 603 878 627 835 627 c 0
 759 627 714 572 712 521 c 0
29 156 m 0
 31 211 62 414 143 543 c 0
 166 579 193 609 223 629 c 1
 253 650 296 666 343 666 c 0
 417 666 491 630 485 486 c 0
 483 435 459 294 414 183 c 4
 404 156 392 131 379 110 c 0
 307 -11 212 -22 171 -22 c 0
 97 -22 24 14 29 156 c 0
114 103 m 0
 112 48 140 15 181 15 c 0
 225 15 271 54 295 113 c 0
 321 177 398 468 401 545 c 0
 403 600 374 630 334 630 c 0
 294 630 259 600 238 570 c 0
 194 504 116 160 114 103 c 0
EndSplineSet
EndChar
StartChar: uF5076
Encoding: 1003638 1003638 162
Width: 1000
Flags: MW
LayerCount: 2
Fore
SplineSet
534 72 m 0
 536 125 564 159 599 159 c 0
 623 159 639 141 638 113 c 0
 637 91 624 55 589 44 c 1
 595 36 609 22 641 22 c 0
 688 22 734 61 762 107 c 0
 780 137 803 191 824 280 c 1
 784 221 743 215 720 215 c 0
 610 215 587 313 589 370 c 0
 590 403 604 480 636 536 c 0
 669 593 739 667 841 667 c 0
 912 667 978 625 972 482 c 0
 970 433 952 326 918 237 c 1
 905 201 889 168 871 139 c 4
 808 35 722 -22 637 -22 c 0
 584 -22 531 2 534 72 c 0
683 309 m 0
 682 284 691 252 731 252 c 0
 848 252 885 539 886 557 c 0
 888 605 866 627 836 627 c 0
 788 627 758 591 734 527 c 0
 719 486 706 433 692 370 c 0
 685 338 683 322 683 309 c 0
28 156 m 0
 30 211 62 414 143 543 c 0
 166 579 193 609 223 629 c 1
 253 650 296 666 343 666 c 0
 417 666 491 630 485 486 c 0
 483 435 459 294 414 183 c 4
 404 156 392 131 379 110 c 0
 307 -11 212 -22 171 -22 c 0
 97 -22 23 14 28 156 c 0
114 103 m 0
 112 48 140 15 181 15 c 0
 225 15 271 54 295 113 c 0
 321 177 398 468 401 545 c 0
 403 600 373 630 333 630 c 0
 293 630 259 600 238 570 c 0
 194 504 116 160 114 103 c 0
EndSplineSet
EndChar
StartChar: uF5077
Encoding: 1003639 1003639 163
Width: 1000
Flags: MW
LayerCount: 2
Fore
SplineSet
519 156 m 0
 521 211 553 414 634 543 c 0
 657 579 683 609 713 629 c 1
 743 650 787 666 834 666 c 0
 908 666 982 630 976 486 c 0
 974 435 950 294 905 183 c 4
 895 156 882 131 869 110 c 0
 797 -11 703 -22 662 -22 c 0
 588 -22 514 14 519 156 c 0
605 103 m 0
 603 48 631 15 672 15 c 0
 716 15 761 54 785 113 c 0
 811 177 889 468 892 545 c 0
 894 600 864 630 824 630 c 0
 784 630 750 600 729 570 c 0
 685 504 607 160 605 103 c 0
24 20 m 0
 25 34 30 48 50 48 c 2
 64 48 l 2
 143 48 137 48 144 78 c 2
 252 509 l 1
 233 500 192 480 154 480 c 0
 138 480 134 490 134 501 c 0
 135 516 141 522 150 526 c 0
 162 530 178 530 193 534 c 0
 250 548 303 591 340 640 c 0
 346 647 354 656 363 656 c 0
 373 656 378 648 378 637 c 0
 378 630 376 620 372 604 c 2
 248 108 l 1
 233 50 l 1
 241 49 248 48 256 48 c 4
 291 48 l 2
 313 48 l 2
 325 48 336 46 335 27 c 0
 335 16 330 0 311 0 c 0
 298 0 259 3 181 3 c 0
 77 3 56 0 45 0 c 0
 26 0 24 12 24 20 c 0
EndSplineSet
EndChar
StartChar: uF5078
Encoding: 1003640 1003640 164
Width: 1000
Flags: MW
LayerCount: 2
Fore
SplineSet
573 20 m 0
 574 34 579 48 599 48 c 2
 613 48 l 2
 692 48 686 48 693 78 c 2
 801 509 l 1
 782 500 741 480 703 480 c 0
 687 480 683 490 683 501 c 0
 684 516 690 522 699 526 c 0
 711 530 726 530 741 534 c 0
 798 548 852 591 889 640 c 0
 895 647 903 656 912 656 c 0
 922 656 927 648 927 637 c 0
 927 630 925 620 921 604 c 2
 797 108 l 1
 782 50 l 1
 790 49 797 48 805 48 c 4
 840 48 l 2
 861 48 l 2
 873 48 885 46 884 27 c 0
 884 16 879 0 860 0 c 0
 847 0 808 3 730 3 c 0
 626 3 605 0 594 0 c 0
 575 0 573 12 573 20 c 0
73 20 m 0
 74 34 79 48 99 48 c 2
 113 48 l 2
 192 48 186 48 193 78 c 2
 301 509 l 1
 282 500 241 480 203 480 c 0
 187 480 183 490 183 501 c 0
 184 516 190 522 199 526 c 0
 211 530 226 530 241 534 c 0
 298 548 352 591 389 640 c 0
 395 647 403 656 412 656 c 0
 422 656 427 648 427 637 c 0
 427 630 425 620 421 604 c 2
 297 108 l 1
 282 50 l 1
 290 49 297 48 305 48 c 4
 340 48 l 2
 361 48 l 2
 373 48 385 46 384 27 c 0
 384 16 379 0 360 0 c 0
 347 0 308 3 230 3 c 0
 126 3 105 0 94 0 c 0
 75 0 73 12 73 20 c 0
EndSplineSet
EndChar
StartChar: uF5079
Encoding: 1003641 1003641 165
Width: 1000
Flags: MW
LayerCount: 2
Fore
SplineSet
501 -6 m 0
 501 3 509 25 515 38 c 0
 536 92 565 135 595 169 c 0
 651 230 709 260 729 274 c 0
 839 352 855 423 869 484 c 0
 873 503 876 523 877 543 c 0
 880 612 841 630 811 630 c 0
 711 630 634 480 631 412 c 0
 630 397 633 384 647 384 c 0
 688 384 732 462 733 499 c 0
 734 513 729 522 726 529 c 0
 724 533 723 536 723 540 c 0
 723 548 730 559 740 559 c 0
 754 559 765 527 764 501 c 0
 762 451 712 347 642 347 c 0
 606 347 583 378 585 420 c 0
 588 503 683 666 816 666 c 0
 906 666 972 610 968 500 c 0
 964 391 916 328 753 229 c 0
 692 192 654 171 600 99 c 1
 608 99 615 98 623 98 c 4
 649 97 676 94 702 91 c 0
 732 87 762 84 788 84 c 0
 844 84 878 128 890 163 c 0
 896 179 898 183 915 183 c 0
 934 183 939 178 939 168 c 0
 938 136 876 -22 771 -22 c 0
 734 -22 706 -1 679 20 c 0
 653 41 628 62 598 62 c 0
 590 62 583 60 573 48 c 0
 558 28 553 10 549 -3 c 0
 545 -15 541 -22 526 -22 c 2
 521 -22 l 2
 513 -22 500 -21 501 -6 c 0
32 20 m 0
 33 34 38 48 58 48 c 2
 72 48 l 2
 151 48 145 48 152 78 c 2
 260 509 l 1
 241 500 200 480 162 480 c 0
 146 480 142 490 142 501 c 0
 143 516 149 522 158 526 c 0
 170 530 185 530 200 534 c 0
 257 548 311 591 348 640 c 0
 354 647 362 656 371 656 c 0
 381 656 386 648 386 637 c 0
 386 630 384 620 380 604 c 2
 256 108 l 1
 241 50 l 1
 249 49 256 48 264 48 c 4
 299 48 l 2
 320 48 l 2
 332 48 344 46 343 27 c 0
 343 16 338 0 319 0 c 0
 306 0 267 3 189 3 c 0
 85 3 64 0 53 0 c 0
 34 0 32 12 32 20 c 0
EndSplineSet
EndChar
StartChar: uF507A
Encoding: 1003642 1003642 166
Width: 1000
Flags: MW
LayerCount: 2
Fore
SplineSet
515 114 m 0
 518 186 556 206 581 206 c 0
 606 206 622 187 621 160 c 0
 620 132 600 96 563 90 c 1
 574 32 611 15 647 15 c 0
 689 15 730 38 755 83 c 0
 774 117 799 214 800 250 c 0
 802 311 759 311 740 311 c 2
 714 311 l 2
 702 311 690 311 691 328 c 0
 692 361 712 359 714 359 c 2
 749 359 l 2
 779 359 801 365 821 382 c 1
 879 427 890 563 890 563 c 1
 892 616 858 630 830 630 c 0
 750 630 669 553 666 478 c 0
 665 462 668 450 682 450 c 0
 703 450 726 476 727 500 c 0
 728 513 723 522 720 530 c 4
 718 534 718 537 718 541 c 0
 718 551 729 560 735 560 c 0
 746 560 760 533 759 502 c 0
 757 455 717 412 676 412 c 0
 640 412 618 445 619 483 c 0
 622 559 707 666 834 666 c 0
 915 666 977 623 973 532 c 0
 971 487 948 395 865 343 c 0
 855 337 845 332 835 327 c 1
 888 296 892 239 891 206 c 0
 887 94 796 -22 645 -22 c 0
 566 -22 512 32 515 114 c 0
27 20 m 0
 28 34 33 48 53 48 c 2
 67 48 l 2
 146 48 140 48 147 78 c 2
 255 509 l 1
 236 500 195 480 157 480 c 0
 141 480 137 490 137 501 c 0
 138 516 144 522 153 526 c 0
 165 530 181 530 196 534 c 0
 253 548 306 591 343 640 c 0
 349 647 357 656 366 656 c 0
 376 656 381 648 381 637 c 0
 381 630 379 620 375 604 c 2
 251 108 l 1
 236 50 l 1
 244 49 251 48 259 48 c 4
 294 48 l 2
 316 48 l 2
 328 48 339 46 338 27 c 0
 338 16 333 0 314 0 c 0
 301 0 262 3 184 3 c 0
 80 3 59 0 48 0 c 0
 29 0 27 12 27 20 c 0
EndSplineSet
EndChar
StartChar: uF507B
Encoding: 1003643 1003643 167
Width: 1000
Flags: MW
LayerCount: 2
Fore
SplineSet
507 28 m 0
 508 43 520 48 545 68 c 0
 563 83 589 105 623 146 c 0
 656 185 685 227 709 269 c 0
 804 434 837 603 848 629 c 0
 856 648 875 666 898 666 c 0
 920 666 935 648 934 624 c 0
 933 598 902 510 894 490 c 0
 824 305 721 172 620 76 c 1
 630 76 l 2
 659 76 678 72 699 65 c 0
 714 60 729 54 750 46 c 1
 767 115 776 153 782 175 c 4
 790 204 792 204 798 212 c 1
 808 226 825 236 840 236 c 0
 861 236 877 219 876 194 c 0
 876 188 875 181 872 168 c 0
 867 147 856 108 835 24 c 1
 841 24 846 25 850 25 c 0
 869 27 880 30 889 33 c 0
 895 35 900 36 903 36 c 0
 911 36 922 19 922 10 c 0
 921 -7 883 -19 846 -23 c 0
 838 -24 831 -24 823 -24 c 1
 810 -83 800 -117 794 -138 c 0
 784 -171 782 -169 778 -174 c 0
 767 -186 753 -194 739 -194 c 0
 718 -194 702 -177 703 -152 c 0
 703 -147 705 -136 708 -122 c 0
 716 -86 732 -30 738 -1 c 1
 720 5 706 12 688 18 c 0
 670 24 649 28 623 28 c 0
 584 28 564 23 553 18 c 0
 538 11 538 2 526 2 c 0
 515 2 507 18 507 28 c 0
66 20 m 0
 67 34 72 48 92 48 c 2
 106 48 l 2
 185 48 179 48 186 78 c 2
 294 509 l 1
 275 500 234 480 196 480 c 0
 180 480 176 490 176 501 c 0
 177 516 183 522 192 526 c 0
 204 530 219 530 234 534 c 0
 291 548 345 591 382 640 c 0
 388 647 396 656 405 656 c 0
 415 656 420 648 420 637 c 0
 420 630 418 620 414 604 c 2
 290 108 l 1
 275 50 l 1
 283 49 290 48 298 48 c 4
 333 48 l 2
 355 48 l 2
 367 48 378 46 377 27 c 0
 377 16 372 0 353 0 c 0
 340 0 301 3 223 3 c 0
 119 3 98 0 87 0 c 0
 68 0 66 12 66 20 c 0
EndSplineSet
EndChar
StartChar: uF507C
Encoding: 1003644 1003644 168
Width: 1000
Flags: MW
LayerCount: 2
Fore
SplineSet
524 120 m 0
 527 203 569 225 596 225 c 0
 621 225 640 205 639 175 c 0
 638 156 627 108 579 99 c 0
 577 99 575 98 572 98 c 1
 583 24 630 22 644 22 c 0
 675 22 705 40 724 60 c 0
 737 75 749 98 759 125 c 0
 791 207 807 321 807 328 c 0
 808 349 800 384 765 384 c 0
 755 384 704 382 654 326 c 0
 643 315 639 305 624 305 c 0
 613 305 604 311 605 325 c 0
 605 332 608 340 609 347 c 2
 683 643 l 2
 686 652 689 665 700 665 c 0
 703 665 709 663 716 659 c 0
 735 650 769 634 824 634 c 0
 885 634 931 654 952 662 c 4
 957 664 961 665 964 665 c 0
 971 665 975 659 975 651 c 0
 974 635 960 621 951 612 c 0
 903 561 833 517 756 517 c 0
 742 517 728 518 715 521 c 0
 712 522 709 522 706 523 c 1
 706 523 l 1
 673 389 l 1
 701 407 731 420 772 420 c 0
 854 420 911 365 907 264 c 0
 902 139 811 -22 641 -22 c 0
 565 -22 521 40 524 120 c 0
25 20 m 0
 26 34 32 48 52 48 c 2
 65 48 l 2
 144 48 138 48 145 78 c 2
 253 509 l 1
 234 500 193 480 155 480 c 0
 139 480 135 490 135 501 c 0
 136 516 142 522 151 526 c 0
 163 530 179 530 194 534 c 0
 251 548 305 591 342 640 c 0
 348 647 355 656 364 656 c 0
 374 656 380 648 380 637 c 0
 380 630 377 620 373 604 c 2
 249 108 l 1
 234 50 l 1
 242 49 249 48 257 48 c 4
 293 48 l 2
 314 48 l 2
 326 48 338 46 337 27 c 0
 337 16 331 0 312 0 c 0
 299 0 261 3 183 3 c 0
 79 3 57 0 46 0 c 0
 27 0 25 12 25 20 c 0
EndSplineSet
EndChar
StartChar: uF507D
Encoding: 1003645 1003645 169
Width: 1000
Flags: MW
LayerCount: 2
Fore
SplineSet
536 165 m 0
 539 230 561 331 587 402 c 0
 606 452 628 496 655 532 c 0
 718 619 801 666 881 666 c 0
 960 666 975 611 974 573 c 0
 972 516 940 485 908 485 c 0
 884 485 868 504 869 532 c 0
 870 556 886 592 923 601 c 1
 914 617 902 627 877 627 c 0
 856 627 797 616 748 537 c 0
 717 489 700 426 683 364 c 1
 723 424 764 429 787 429 c 0
 897 429 921 332 919 275 c 0
 918 241 902 162 869 105 c 0
 845 65 802 18 756 -4 c 0
 732 -15 704 -22 670 -22 c 0
 598 -22 530 21 536 165 c 0
623 93 m 0
 622 63 633 22 674 22 c 0
 717 22 743 48 761 85 c 0
 779 123 790 172 802 218 c 0
 809 246 824 306 825 333 c 0
 826 348 823 364 814 376 c 4
 807 386 795 392 776 392 c 0
 663 392 624 118 623 93 c 0
26 20 m 0
 27 34 32 48 52 48 c 2
 66 48 l 2
 145 48 139 48 146 78 c 2
 254 509 l 1
 235 500 194 480 156 480 c 0
 140 480 136 490 136 501 c 0
 137 516 143 522 152 526 c 0
 164 530 179 530 194 534 c 0
 251 548 305 591 342 640 c 0
 348 647 356 656 365 656 c 0
 375 656 380 648 380 637 c 0
 380 630 378 620 374 604 c 2
 250 108 l 1
 235 50 l 1
 243 49 250 48 258 48 c 4
 293 48 l 2
 314 48 l 2
 326 48 338 46 337 27 c 0
 337 16 332 0 313 0 c 0
 300 0 261 3 183 3 c 0
 79 3 58 0 47 0 c 0
 28 0 26 12 26 20 c 0
EndSplineSet
EndChar
StartChar: uF507E
Encoding: 1003646 1003646 170
Width: 1000
Flags: MW
LayerCount: 2
Fore
SplineSet
525 446 m 0
 525 450 526 452 538 477 c 4
 550 502 573 549 617 642 c 0
 625 661 628 666 644 666 c 2
 649 666 l 2
 665 666 669 660 669 652 c 0
 669 642 661 629 657 622 c 1
 706 659 749 666 771 666 c 0
 801 666 811 646 817 624 c 0
 825 596 827 563 852 563 c 0
 895 563 943 632 959 653 c 0
 964 660 968 664 972 665 c 0
 975 666 979 666 983 666 c 2
 990 666 l 2
 1000 666 1008 664 1008 652 c 0
 1008 643 1000 635 996 629 c 0
 953 565 917 500 887 437 c 0
 790 234 755 55 744 24 c 1
 728 -14 696 -22 683 -22 c 0
 659 -22 640 -4 641 27 c 0
 642 45 655 89 664 115 c 0
 679 163 704 226 742 303 c 0
 775 368 818 444 876 531 c 1
 866 528 856 526 846 526 c 0
 823 526 809 537 792 547 c 0
 780 555 766 561 747 561 c 0
 727 561 630 548 572 442 c 0
 567 431 558 431 550 431 c 2
 543 431 l 2
 530 431 525 437 525 446 c 0
-8 20 m 0
 -7 34 -1 48 19 48 c 2
 32 48 l 2
 111 48 105 48 112 78 c 2
 220 509 l 1
 201 500 160 480 122 480 c 0
 106 480 102 490 102 501 c 0
 103 516 109 522 118 526 c 0
 130 530 146 530 161 534 c 0
 218 548 272 591 309 640 c 0
 315 647 322 656 331 656 c 0
 341 656 347 648 347 637 c 0
 347 630 344 620 340 604 c 2
 216 108 l 1
 201 50 l 1
 209 49 216 48 224 48 c 4
 260 48 l 2
 281 48 l 2
 293 48 305 46 304 27 c 0
 304 16 298 0 279 0 c 0
 266 0 228 3 150 3 c 0
 46 3 24 0 13 0 c 0
 -6 0 -8 12 -8 20 c 0
EndSplineSet
EndChar
StartChar: uF507F
Encoding: 1003647 1003647 171
Width: 1000
Flags: MW
LayerCount: 2
Fore
SplineSet
520 114 m 0
 523 201 573 278 672 330 c 1
 658 343 648 357 641 373 c 0
 631 395 627 420 628 446 c 0
 631 534 701 666 838 666 c 0
 908 666 972 633 969 547 c 0
 966 476 925 411 846 369 c 1
 846 368 l 1
 858 358 880 341 895 312 c 4
 906 290 914 262 913 226 c 0
 909 124 828 -22 670 -22 c 0
 591 -22 516 16 520 114 c 0
594 113 m 0
 592 66 611 21 678 21 c 0
 768 21 822 95 824 156 c 0
 826 197 801 217 794 223 c 2
 705 302 l 1
 639 262 597 182 594 113 c 0
709 521 m 0
 708 499 716 485 736 465 c 0
 753 448 778 428 815 396 c 1
 816 396 l 1
 889 449 904 515 905 550 c 0
 907 603 876 627 833 627 c 0
 757 627 711 572 709 521 c 0
31 20 m 0
 32 34 37 48 57 48 c 2
 71 48 l 2
 150 48 144 48 151 78 c 2
 259 509 l 1
 240 500 199 480 161 480 c 0
 145 480 141 490 141 501 c 0
 142 516 148 522 157 526 c 0
 169 530 185 530 200 534 c 0
 257 548 310 591 347 640 c 0
 353 647 361 656 370 656 c 0
 380 656 385 648 385 637 c 0
 385 630 383 620 379 604 c 2
 255 108 l 1
 240 50 l 1
 248 49 255 48 263 48 c 4
 298 48 l 2
 320 48 l 2
 332 48 343 46 342 27 c 0
 342 16 337 0 318 0 c 0
 305 0 266 3 188 3 c 0
 84 3 63 0 52 0 c 0
 33 0 31 12 31 20 c 0
EndSplineSet
EndChar
StartChar: uF5080
Encoding: 1003648 1003648 172
Width: 1000
Flags: MW
LayerCount: 2
Fore
SplineSet
531 72 m 0
 533 125 561 159 596 159 c 0
 620 159 637 141 636 113 c 0
 635 91 622 55 587 44 c 1
 593 36 606 22 638 22 c 0
 685 22 731 61 759 107 c 0
 777 137 801 191 822 280 c 1
 782 221 741 215 718 215 c 0
 608 215 584 313 586 370 c 0
 587 403 601 480 633 536 c 0
 666 593 736 667 838 667 c 0
 909 667 975 625 969 482 c 0
 967 433 950 326 916 237 c 1
 903 201 887 168 869 139 c 4
 806 35 720 -22 635 -22 c 0
 582 -22 528 2 531 72 c 0
681 309 m 0
 680 284 688 252 728 252 c 0
 845 252 883 539 884 557 c 0
 886 605 863 627 833 627 c 0
 785 627 755 591 731 527 c 0
 716 486 704 433 690 370 c 0
 683 338 681 322 681 309 c 0
31 20 m 0
 32 34 37 48 57 48 c 2
 71 48 l 2
 150 48 144 48 151 78 c 2
 259 509 l 1
 240 500 199 480 161 480 c 0
 145 480 141 490 141 501 c 0
 142 516 148 522 157 526 c 0
 169 530 184 530 199 534 c 0
 256 548 310 591 347 640 c 0
 353 647 361 656 370 656 c 0
 380 656 385 648 385 637 c 0
 385 630 383 620 379 604 c 2
 255 108 l 1
 240 50 l 1
 248 49 255 48 263 48 c 4
 298 48 l 2
 319 48 l 2
 331 48 343 46 342 27 c 0
 342 16 337 0 318 0 c 0
 305 0 266 3 188 3 c 0
 84 3 63 0 52 0 c 0
 33 0 31 12 31 20 c 0
EndSplineSet
EndChar
StartChar: uF5081
Encoding: 1003649 1003649 173
Width: 1000
Flags: MW
LayerCount: 2
Fore
SplineSet
534 156 m 0
 536 211 568 414 649 543 c 0
 672 579 698 609 728 629 c 1
 758 650 802 666 849 666 c 0
 923 666 997 630 991 486 c 0
 989 435 965 294 920 183 c 4
 910 156 897 131 884 110 c 0
 812 -11 718 -22 677 -22 c 0
 603 -22 529 14 534 156 c 0
620 103 m 0
 618 48 646 15 687 15 c 0
 731 15 777 54 801 113 c 0
 827 177 904 468 907 545 c 0
 909 600 879 630 839 630 c 0
 799 630 765 600 744 570 c 0
 700 504 622 160 620 103 c 0
9 -6 m 0
 9 3 16 25 22 38 c 0
 43 92 72 135 102 169 c 0
 158 230 217 260 237 274 c 0
 347 352 362 423 376 484 c 0
 380 503 383 523 384 543 c 0
 387 612 348 630 318 630 c 0
 218 630 142 480 139 412 c 0
 138 397 141 384 155 384 c 0
 196 384 239 462 240 499 c 0
 241 513 236 522 233 529 c 0
 231 533 230 536 230 540 c 0
 230 548 238 559 248 559 c 0
 262 559 273 527 272 501 c 0
 270 451 219 347 149 347 c 0
 113 347 91 378 93 420 c 0
 96 503 191 666 324 666 c 0
 414 666 480 610 476 500 c 0
 472 391 423 328 260 229 c 0
 199 192 161 171 107 99 c 1
 115 99 122 98 130 98 c 4
 156 97 183 94 209 91 c 0
 239 87 269 84 295 84 c 0
 351 84 385 128 397 163 c 0
 403 179 406 183 423 183 c 0
 442 183 447 178 447 168 c 0
 446 136 384 -22 279 -22 c 0
 242 -22 213 -1 186 20 c 0
 160 41 136 62 106 62 c 0
 98 62 90 60 80 48 c 0
 65 28 61 10 57 -3 c 0
 53 -15 48 -22 33 -22 c 2
 28 -22 l 2
 20 -22 8 -21 9 -6 c 0
EndSplineSet
EndChar
StartChar: uF5082
Encoding: 1003650 1003650 174
Width: 1000
Flags: MW
LayerCount: 2
Fore
SplineSet
588 20 m 0
 589 34 594 48 614 48 c 2
 628 48 l 2
 707 48 701 48 708 78 c 2
 816 509 l 1
 797 500 756 480 718 480 c 0
 702 480 698 490 698 501 c 0
 699 516 705 522 714 526 c 0
 726 530 742 530 757 534 c 0
 814 548 868 591 905 640 c 0
 911 647 918 656 927 656 c 0
 937 656 943 648 943 637 c 0
 943 630 940 620 936 604 c 2
 812 108 l 1
 797 50 l 1
 805 49 812 48 820 48 c 4
 856 48 l 2
 877 48 l 2
 889 48 901 46 900 27 c 0
 900 16 894 0 875 0 c 0
 862 0 824 3 746 3 c 0
 642 3 620 0 609 0 c 0
 590 0 588 12 588 20 c 0
57 -6 m 0
 57 3 65 25 71 38 c 0
 92 92 121 135 151 169 c 0
 207 230 266 260 286 274 c 0
 396 352 411 423 425 484 c 0
 429 503 432 523 433 543 c 0
 436 612 397 630 367 630 c 0
 267 630 191 480 188 412 c 0
 187 397 190 384 204 384 c 0
 245 384 288 462 289 499 c 0
 290 513 285 522 282 529 c 0
 280 533 279 536 279 540 c 0
 279 548 287 559 297 559 c 0
 311 559 322 527 321 501 c 0
 319 451 268 347 198 347 c 0
 162 347 140 378 142 420 c 0
 145 503 240 666 373 666 c 0
 463 666 528 610 524 500 c 0
 520 391 472 328 309 229 c 0
 248 192 210 171 156 99 c 1
 164 99 171 98 179 98 c 4
 205 97 232 94 258 91 c 0
 288 87 318 84 344 84 c 0
 400 84 434 128 446 163 c 0
 452 179 455 183 472 183 c 0
 491 183 496 178 496 168 c 0
 495 136 433 -22 328 -22 c 0
 291 -22 262 -1 235 20 c 0
 209 41 185 62 155 62 c 0
 147 62 139 60 129 48 c 0
 114 28 110 10 106 -3 c 0
 102 -15 97 -22 82 -22 c 2
 77 -22 l 2
 69 -22 56 -21 57 -6 c 0
EndSplineSet
EndChar
StartChar: uF5083
Encoding: 1003651 1003651 175
Width: 1000
Flags: MW
LayerCount: 2
Fore
SplineSet
516 -6 m 0
 516 3 524 25 530 38 c 0
 551 92 580 135 610 169 c 0
 666 230 725 260 745 274 c 0
 855 352 870 423 884 484 c 0
 888 503 891 523 892 543 c 0
 895 612 856 630 826 630 c 0
 726 630 650 480 647 412 c 0
 646 397 649 384 663 384 c 0
 704 384 747 462 748 499 c 0
 749 513 744 522 741 529 c 0
 739 533 738 536 738 540 c 0
 738 548 746 559 756 559 c 0
 770 559 781 527 780 501 c 0
 778 451 727 347 657 347 c 0
 621 347 598 378 600 420 c 0
 603 503 699 666 832 666 c 0
 922 666 987 610 983 500 c 0
 979 391 931 328 768 229 c 0
 707 192 669 171 615 99 c 1
 623 99 630 98 638 98 c 4
 664 97 691 94 717 91 c 0
 747 87 777 84 803 84 c 0
 859 84 893 128 905 163 c 0
 911 179 914 183 931 183 c 0
 950 183 955 178 955 168 c 0
 954 136 891 -22 786 -22 c 0
 749 -22 721 -1 694 20 c 0
 668 41 644 62 614 62 c 0
 606 62 598 60 588 48 c 0
 573 28 569 10 565 -3 c 0
 561 -15 556 -22 541 -22 c 2
 536 -22 l 2
 528 -22 515 -21 516 -6 c 0
16 -6 m 0
 16 3 24 25 30 38 c 0
 51 92 80 135 110 169 c 0
 166 230 225 260 245 274 c 0
 355 352 370 423 384 484 c 0
 388 503 391 523 392 543 c 0
 395 612 356 630 326 630 c 0
 226 630 150 480 147 412 c 0
 146 397 149 384 163 384 c 0
 204 384 247 462 248 499 c 0
 249 513 244 522 241 529 c 0
 239 533 238 536 238 540 c 0
 238 548 246 559 256 559 c 0
 270 559 281 527 280 501 c 0
 278 451 227 347 157 347 c 0
 121 347 98 378 100 420 c 0
 103 503 199 666 332 666 c 0
 422 666 487 610 483 500 c 0
 479 391 431 328 268 229 c 0
 207 192 169 171 115 99 c 1
 123 99 130 98 138 98 c 4
 164 97 191 94 217 91 c 0
 247 87 277 84 303 84 c 0
 359 84 393 128 405 163 c 0
 411 179 414 183 431 183 c 0
 450 183 455 178 455 168 c 0
 454 136 392 -22 287 -22 c 0
 250 -22 221 -1 194 20 c 0
 168 41 144 62 114 62 c 0
 106 62 98 60 88 48 c 0
 73 28 69 10 65 -3 c 0
 61 -15 56 -22 41 -22 c 2
 36 -22 l 2
 28 -22 15 -21 16 -6 c 0
EndSplineSet
EndChar
StartChar: uF5084
Encoding: 1003652 1003652 176
Width: 1000
Flags: MW
LayerCount: 2
Fore
SplineSet
531 114 m 0
 534 186 572 206 597 206 c 0
 622 206 637 187 636 160 c 0
 635 132 616 96 579 90 c 1
 590 32 626 15 662 15 c 0
 704 15 745 38 770 83 c 0
 789 117 814 214 815 250 c 0
 817 311 775 311 756 311 c 2
 729 311 l 2
 717 311 705 311 706 328 c 0
 707 361 728 359 730 359 c 2
 764 359 l 2
 794 359 816 365 836 382 c 1
 894 427 906 563 906 563 c 1
 908 616 873 630 845 630 c 0
 765 630 684 553 681 478 c 0
 680 462 683 450 697 450 c 0
 718 450 742 476 743 500 c 0
 744 513 738 522 735 530 c 4
 733 534 733 537 733 541 c 0
 733 551 744 560 750 560 c 0
 761 560 776 533 775 502 c 0
 773 455 732 412 691 412 c 0
 655 412 633 445 634 483 c 0
 637 559 723 666 850 666 c 0
 931 666 992 623 988 532 c 0
 986 487 963 395 880 343 c 0
 870 337 860 332 850 327 c 1
 903 296 907 239 906 206 c 0
 902 94 812 -22 661 -22 c 0
 582 -22 528 32 531 114 c 0
12 -6 m 0
 12 3 19 25 25 38 c 0
 46 92 75 135 105 169 c 0
 161 230 220 260 240 274 c 0
 350 352 365 423 379 484 c 0
 383 503 386 523 387 543 c 0
 390 612 351 630 321 630 c 0
 221 630 145 480 142 412 c 0
 141 397 144 384 158 384 c 0
 199 384 242 462 243 499 c 0
 244 513 239 522 236 529 c 0
 234 533 233 536 233 540 c 0
 233 548 241 559 251 559 c 0
 265 559 276 527 275 501 c 0
 273 451 222 347 152 347 c 0
 116 347 94 378 96 420 c 0
 99 503 194 666 327 666 c 0
 417 666 483 610 479 500 c 0
 475 391 426 328 263 229 c 0
 202 192 164 171 110 99 c 1
 118 99 125 98 133 98 c 4
 159 97 186 94 212 91 c 0
 242 87 272 84 298 84 c 0
 354 84 388 128 400 163 c 0
 406 179 409 183 426 183 c 0
 445 183 450 178 450 168 c 0
 449 136 387 -22 282 -22 c 0
 245 -22 216 -1 189 20 c 0
 163 41 139 62 109 62 c 0
 101 62 93 60 83 48 c 0
 68 28 64 10 60 -3 c 0
 56 -15 51 -22 36 -22 c 2
 31 -22 l 2
 23 -22 11 -21 12 -6 c 0
EndSplineSet
EndChar
StartChar: uF5085
Encoding: 1003653 1003653 177
Width: 1000
Flags: MW
LayerCount: 2
Fore
SplineSet
522 28 m 0
 523 43 535 48 560 68 c 0
 578 83 604 105 638 146 c 0
 671 185 700 227 724 269 c 0
 819 434 852 603 863 629 c 0
 871 648 890 666 913 666 c 0
 935 666 951 648 950 624 c 0
 949 598 918 510 910 490 c 0
 840 305 736 172 635 76 c 1
 645 76 l 2
 674 76 693 72 714 65 c 0
 729 60 745 54 766 46 c 1
 783 115 792 153 798 175 c 4
 806 204 808 204 814 212 c 1
 824 226 840 236 855 236 c 0
 876 236 892 219 891 194 c 0
 891 188 890 181 887 168 c 0
 882 147 871 108 850 24 c 1
 856 24 862 25 866 25 c 0
 885 27 896 30 905 33 c 0
 911 35 915 36 918 36 c 0
 926 36 937 19 937 10 c 0
 936 -7 898 -19 861 -23 c 0
 853 -24 846 -24 838 -24 c 1
 825 -83 815 -117 809 -138 c 0
 799 -171 798 -169 794 -174 c 0
 783 -186 768 -194 754 -194 c 0
 733 -194 717 -177 718 -152 c 0
 718 -147 721 -136 724 -122 c 0
 732 -86 748 -30 754 -1 c 1
 736 5 721 12 703 18 c 0
 685 24 664 28 638 28 c 0
 599 28 579 23 568 18 c 0
 553 11 553 2 541 2 c 0
 530 2 522 18 522 28 c 0
50 -6 m 0
 50 3 58 25 64 38 c 0
 85 92 114 135 144 169 c 0
 200 230 259 260 279 274 c 0
 389 352 404 423 418 484 c 0
 422 503 425 523 426 543 c 0
 429 612 390 630 360 630 c 0
 260 630 184 480 181 412 c 0
 180 397 183 384 197 384 c 0
 238 384 281 462 282 499 c 0
 283 513 278 522 275 529 c 0
 273 533 272 536 272 540 c 0
 272 548 280 559 290 559 c 0
 304 559 315 527 314 501 c 0
 312 451 261 347 191 347 c 0
 155 347 133 378 135 420 c 0
 138 503 233 666 366 666 c 0
 456 666 521 610 517 500 c 0
 513 391 465 328 302 229 c 0
 241 192 203 171 149 99 c 1
 157 99 164 98 172 98 c 4
 198 97 225 94 251 91 c 0
 281 87 311 84 337 84 c 0
 393 84 427 128 439 163 c 0
 445 179 448 183 465 183 c 0
 484 183 489 178 489 168 c 0
 488 136 426 -22 321 -22 c 0
 284 -22 255 -1 228 20 c 0
 202 41 178 62 148 62 c 0
 140 62 132 60 122 48 c 0
 107 28 103 10 99 -3 c 0
 95 -15 90 -22 75 -22 c 2
 70 -22 l 2
 62 -22 49 -21 50 -6 c 0
EndSplineSet
EndChar
StartChar: uF5086
Encoding: 1003654 1003654 178
Width: 1000
Flags: MW
LayerCount: 2
Fore
SplineSet
539 120 m 0
 542 203 585 225 612 225 c 0
 637 225 656 205 655 175 c 0
 654 156 642 108 594 99 c 0
 592 99 590 98 587 98 c 1
 598 24 646 22 660 22 c 0
 691 22 720 40 739 60 c 0
 752 75 765 98 775 125 c 0
 807 207 822 321 822 328 c 0
 823 349 815 384 780 384 c 0
 770 384 719 382 669 326 c 0
 658 315 654 305 639 305 c 0
 628 305 619 311 620 325 c 0
 620 332 623 340 624 347 c 2
 698 643 l 2
 701 652 704 665 715 665 c 0
 718 665 724 663 731 659 c 0
 750 650 784 634 839 634 c 0
 900 634 947 654 968 662 c 4
 973 664 976 665 979 665 c 0
 986 665 990 659 990 651 c 0
 989 635 975 621 966 612 c 0
 918 561 848 517 771 517 c 0
 757 517 744 518 731 521 c 0
 728 522 724 522 721 523 c 1
 721 523 l 1
 688 389 l 1
 716 407 747 420 788 420 c 0
 870 420 926 365 922 264 c 0
 917 139 826 -22 656 -22 c 0
 580 -22 536 40 539 120 c 0
10 -6 m 0
 10 3 17 25 23 38 c 0
 44 92 74 135 104 169 c 0
 160 230 218 260 238 274 c 0
 348 352 363 423 377 484 c 0
 381 503 384 523 385 543 c 0
 388 612 349 630 319 630 c 0
 219 630 143 480 140 412 c 0
 139 397 142 384 156 384 c 0
 197 384 241 462 242 499 c 0
 243 513 237 522 234 529 c 0
 232 533 231 536 231 540 c 0
 231 548 239 559 249 559 c 0
 263 559 274 527 273 501 c 0
 271 451 220 347 150 347 c 0
 114 347 92 378 94 420 c 0
 97 503 192 666 325 666 c 0
 415 666 481 610 477 500 c 0
 473 391 425 328 262 229 c 0
 201 192 163 171 109 99 c 1
 117 99 123 98 131 98 c 4
 157 97 185 94 211 91 c 0
 241 87 271 84 297 84 c 0
 353 84 387 128 399 163 c 0
 405 179 407 183 424 183 c 0
 443 183 448 178 448 168 c 0
 447 136 385 -22 280 -22 c 0
 243 -22 215 -1 188 20 c 0
 162 41 137 62 107 62 c 0
 99 62 91 60 81 48 c 0
 66 28 62 10 58 -3 c 0
 54 -15 50 -22 35 -22 c 2
 29 -22 l 2
 21 -22 9 -21 10 -6 c 0
EndSplineSet
EndChar
StartChar: uF5087
Encoding: 1003655 1003655 179
Width: 1000
Flags: MW
LayerCount: 2
Fore
SplineSet
552 165 m 0
 555 230 576 331 602 402 c 0
 621 452 644 496 671 532 c 0
 734 619 817 666 897 666 c 0
 976 666 991 611 990 573 c 0
 988 516 956 485 924 485 c 0
 900 485 883 504 884 532 c 0
 885 556 901 592 938 601 c 1
 929 617 918 627 893 627 c 0
 872 627 812 616 763 537 c 0
 732 489 715 426 698 364 c 1
 738 424 779 429 802 429 c 0
 912 429 936 332 934 275 c 0
 933 241 917 162 884 105 c 0
 860 65 817 18 771 -4 c 0
 747 -15 720 -22 686 -22 c 0
 614 -22 546 21 552 165 c 0
639 93 m 0
 638 63 648 22 689 22 c 0
 732 22 758 48 776 85 c 0
 794 123 805 172 817 218 c 0
 824 246 839 306 840 333 c 0
 841 348 838 364 829 376 c 4
 822 386 810 392 791 392 c 0
 678 392 640 118 639 93 c 0
10 -6 m 0
 10 3 18 25 24 38 c 0
 45 92 74 135 104 169 c 0
 160 230 219 260 239 274 c 0
 349 352 364 423 378 484 c 0
 382 503 385 523 386 543 c 0
 389 612 350 630 320 630 c 0
 220 630 144 480 141 412 c 0
 140 397 143 384 157 384 c 0
 198 384 241 462 242 499 c 0
 243 513 238 522 235 529 c 0
 233 533 232 536 232 540 c 0
 232 548 240 559 250 559 c 0
 264 559 275 527 274 501 c 0
 272 451 221 347 151 347 c 0
 115 347 92 378 94 420 c 0
 97 503 193 666 326 666 c 0
 416 666 481 610 477 500 c 0
 473 391 425 328 262 229 c 0
 201 192 163 171 109 99 c 1
 117 99 124 98 132 98 c 4
 158 97 185 94 211 91 c 0
 241 87 271 84 297 84 c 0
 353 84 387 128 399 163 c 0
 405 179 408 183 425 183 c 0
 444 183 449 178 449 168 c 0
 448 136 386 -22 281 -22 c 0
 244 -22 215 -1 188 20 c 0
 162 41 138 62 108 62 c 0
 100 62 92 60 82 48 c 0
 67 28 63 10 59 -3 c 0
 55 -15 50 -22 35 -22 c 2
 30 -22 l 2
 22 -22 9 -21 10 -6 c 0
EndSplineSet
EndChar
StartChar: uF5088
Encoding: 1003656 1003656 180
Width: 1000
Flags: MW
LayerCount: 2
Fore
SplineSet
541 446 m 0
 541 450 542 452 554 477 c 4
 566 502 588 549 632 642 c 0
 640 661 643 666 659 666 c 2
 664 666 l 2
 680 666 684 660 684 652 c 0
 684 642 677 629 673 622 c 1
 722 659 764 666 786 666 c 0
 816 666 827 646 833 624 c 0
 841 596 843 563 868 563 c 0
 911 563 958 632 974 653 c 0
 979 660 983 664 987 665 c 0
 990 666 994 666 998 666 c 2
 1005 666 l 2
 1015 666 1023 664 1023 652 c 0
 1023 643 1015 635 1011 629 c 0
 968 565 932 500 902 437 c 0
 805 234 771 55 760 24 c 1
 744 -14 712 -22 699 -22 c 0
 675 -22 656 -4 657 27 c 0
 658 45 670 89 679 115 c 0
 694 163 720 226 758 303 c 0
 791 368 834 444 892 531 c 1
 882 528 871 526 861 526 c 0
 838 526 824 537 807 547 c 0
 795 555 782 561 763 561 c 0
 743 561 645 548 587 442 c 0
 582 431 573 431 565 431 c 2
 558 431 l 2
 545 431 541 437 541 446 c 0
-23 -6 m 0
 -23 3 -16 25 -10 38 c 0
 11 92 41 135 71 169 c 0
 127 230 185 260 205 274 c 0
 315 352 330 423 344 484 c 0
 348 503 351 523 352 543 c 0
 355 612 316 630 286 630 c 0
 186 630 110 480 107 412 c 0
 106 397 109 384 123 384 c 0
 164 384 208 462 209 499 c 0
 210 513 204 522 201 529 c 0
 199 533 198 536 198 540 c 0
 198 548 206 559 216 559 c 0
 230 559 241 527 240 501 c 0
 238 451 187 347 117 347 c 0
 81 347 59 378 61 420 c 0
 64 503 159 666 292 666 c 0
 382 666 448 610 444 500 c 0
 440 391 392 328 229 229 c 0
 168 192 130 171 76 99 c 1
 84 99 90 98 98 98 c 4
 124 97 152 94 178 91 c 0
 208 87 238 84 264 84 c 0
 320 84 354 128 366 163 c 0
 372 179 374 183 391 183 c 0
 410 183 415 178 415 168 c 0
 414 136 352 -22 247 -22 c 0
 210 -22 182 -1 155 20 c 0
 129 41 104 62 74 62 c 0
 66 62 58 60 48 48 c 0
 33 28 29 10 25 -3 c 0
 21 -15 17 -22 2 -22 c 2
 -4 -22 l 2
 -12 -22 -24 -21 -23 -6 c 0
EndSplineSet
EndChar
StartChar: uF5089
Encoding: 1003657 1003657 181
Width: 1000
Flags: MW
LayerCount: 2
Fore
SplineSet
535 114 m 0
 538 201 589 278 688 330 c 1
 674 343 663 357 656 373 c 0
 646 395 642 420 643 446 c 0
 646 534 717 666 854 666 c 0
 924 666 987 633 984 547 c 0
 981 476 941 411 862 369 c 1
 862 368 l 1
 874 358 895 341 910 312 c 4
 921 290 929 262 928 226 c 0
 924 124 843 -22 685 -22 c 0
 606 -22 531 16 535 114 c 0
609 113 m 0
 607 66 626 21 693 21 c 0
 783 21 837 95 839 156 c 0
 841 197 816 217 809 223 c 2
 720 302 l 1
 654 262 612 182 609 113 c 0
724 521 m 0
 723 499 731 485 751 465 c 0
 768 448 793 428 830 396 c 1
 831 396 l 1
 904 449 919 515 920 550 c 0
 922 603 891 627 848 627 c 0
 772 627 726 572 724 521 c 0
16 -6 m 0
 16 3 23 25 29 38 c 0
 50 92 79 135 109 169 c 0
 165 230 224 260 244 274 c 0
 354 352 369 423 383 484 c 0
 387 503 390 523 391 543 c 0
 394 612 355 630 325 630 c 0
 225 630 149 480 146 412 c 0
 145 397 148 384 162 384 c 0
 203 384 246 462 247 499 c 0
 248 513 243 522 240 529 c 0
 238 533 237 536 237 540 c 0
 237 548 245 559 255 559 c 0
 269 559 280 527 279 501 c 0
 277 451 226 347 156 347 c 0
 120 347 98 378 100 420 c 0
 103 503 198 666 331 666 c 0
 421 666 487 610 483 500 c 0
 479 391 430 328 267 229 c 0
 206 192 168 171 114 99 c 1
 122 99 129 98 137 98 c 4
 163 97 190 94 216 91 c 0
 246 87 276 84 302 84 c 0
 358 84 392 128 404 163 c 0
 410 179 413 183 430 183 c 0
 449 183 454 178 454 168 c 0
 453 136 391 -22 286 -22 c 0
 249 -22 220 -1 193 20 c 0
 167 41 143 62 113 62 c 0
 105 62 97 60 87 48 c 0
 72 28 68 10 64 -3 c 0
 60 -15 55 -22 40 -22 c 2
 35 -22 l 2
 27 -22 15 -21 16 -6 c 0
EndSplineSet
EndChar
StartChar: uF508A
Encoding: 1003658 1003658 182
Width: 1000
Flags: MW
LayerCount: 2
Fore
SplineSet
546 72 m 0
 548 125 576 159 611 159 c 0
 635 159 652 141 651 113 c 0
 650 91 637 55 602 44 c 1
 608 36 622 22 654 22 c 0
 701 22 746 61 774 107 c 0
 792 137 816 191 837 280 c 1
 797 221 756 215 733 215 c 0
 623 215 600 313 602 370 c 0
 603 403 617 480 649 536 c 0
 682 593 751 667 853 667 c 0
 924 667 990 625 984 482 c 0
 982 433 965 326 931 237 c 1
 918 201 902 168 884 139 c 4
 821 35 735 -22 650 -22 c 0
 597 -22 543 2 546 72 c 0
696 309 m 0
 695 284 704 252 744 252 c 0
 861 252 898 539 899 557 c 0
 901 605 879 627 849 627 c 0
 801 627 771 591 747 527 c 0
 732 486 719 433 705 370 c 0
 698 338 696 322 696 309 c 0
15 -6 m 0
 15 3 23 25 29 38 c 0
 50 92 79 135 109 169 c 0
 165 230 224 260 244 274 c 0
 354 352 369 423 383 484 c 0
 387 503 390 523 391 543 c 0
 394 612 355 630 325 630 c 0
 225 630 149 480 146 412 c 0
 145 397 148 384 162 384 c 0
 203 384 246 462 247 499 c 0
 248 513 243 522 240 529 c 0
 238 533 237 536 237 540 c 0
 237 548 245 559 255 559 c 0
 269 559 280 527 279 501 c 0
 277 451 226 347 156 347 c 0
 120 347 98 378 100 420 c 0
 103 503 198 666 331 666 c 0
 421 666 486 610 482 500 c 0
 478 391 430 328 267 229 c 0
 206 192 168 171 114 99 c 1
 122 99 129 98 137 98 c 4
 163 97 190 94 216 91 c 0
 246 87 276 84 302 84 c 0
 358 84 392 128 404 163 c 0
 410 179 413 183 430 183 c 0
 449 183 454 178 454 168 c 0
 453 136 391 -22 286 -22 c 0
 249 -22 220 -1 193 20 c 0
 167 41 143 62 113 62 c 0
 105 62 97 60 87 48 c 0
 72 28 68 10 64 -3 c 0
 60 -15 55 -22 40 -22 c 2
 35 -22 l 2
 27 -22 14 -21 15 -6 c 0
EndSplineSet
EndChar
